<svg width="48" height="48" viewBox="0 0 48 48" fill="none" xmlns="http://www.w3.org/2000/svg">
<path d="M32.2599 11.5273C31.4383 15.2764 31.108 17.0156 30.4313 19.7064C29.7788 22.307 29.2794 24.7271 28.4094 25.9002C27.5475 27.098 26.3633 27.3441 25.5739 27.4425C25.1631 27.4917 24.8489 27.5164 23.9628 27.5164C23.0767 27.5164 22.7625 27.4917 22.3517 27.4425C21.5542 27.3441 20.3781 27.098 19.5162 25.9002C18.6542 24.7271 18.1467 22.2988 17.5184 19.7064C16.8418 16.991 16.5115 15.2764 15.6898 11.5273C15.6898 11.5273 14.8682 11.552 14.5137 11.5766C14.0062 11.6012 13.6276 11.6504 13.2168 11.6996C13.2168 11.6996 13.7001 19.4193 13.9176 22.7008C14.1351 26.1299 14.5459 31.9382 14.9004 36.3189C14.9004 36.3189 15.6012 36.442 16.7531 36.4912C17.9534 36.565 18.5092 36.565 18.5092 36.565C19.0167 34.629 19.6128 31.9628 20.3137 30.806C20.8937 29.879 21.7556 29.7806 22.2631 29.7067C23.0364 29.6083 23.705 29.5837 23.995 29.5837C24.3092 29.5837 24.9536 29.5837 25.7269 29.7067C26.2344 29.7806 27.0964 29.879 27.6764 30.806C28.3772 31.9546 28.9975 34.629 29.4808 36.565C29.4808 36.565 30.0125 36.565 31.2127 36.4912C32.3646 36.4174 33.0655 36.3189 33.0655 36.3189C33.428 31.9382 33.8388 26.1545 34.0482 22.7008C34.2657 19.4439 34.7491 11.6996 34.7491 11.6996C34.3382 11.6504 33.9274 11.6012 33.4521 11.5766C33.0896 11.552 32.276 11.5273 32.276 11.5273" fill="#121212"/>
<path d="M41.8067 16.0798C41.3233 11.1822 38.1012 10.1485 35.2898 9.6645C33.872 9.41839 31.3426 9.2215 29.7315 9.14767C28.3138 9.04922 24.9949 9 23.9799 9C22.9649 9 19.6541 9.04922 18.2283 9.14767C16.6172 9.2215 14.0878 9.41839 12.67 9.6645C9.85868 10.1567 6.63649 11.1822 6.15316 16.0798C6.00816 17.4252 5.984 19.1644 6.00816 21.0266C6.0565 24.1358 6.32233 26.2196 6.46733 27.688C6.56399 28.6889 6.97482 31.6832 7.49843 33.2255C8.22342 35.3585 8.86786 35.9656 9.64118 36.6055C11.0348 37.754 13.3467 38.1231 13.83 38.2216C16.4239 38.6892 21.668 38.7876 24.0041 38.7876C26.3402 38.7876 31.5843 38.7138 34.1781 38.2216C34.6615 38.1231 36.9653 37.7786 38.367 36.6055C39.1403 35.9656 39.7847 35.3585 40.5097 33.2255C41.0414 31.6832 41.4442 28.6725 41.5408 27.688C41.6858 26.2442 41.9517 24.1358 42 21.0266C41.9758 19.1398 41.9275 17.4006 41.8067 16.0798ZM40.0264 24.3081C39.7364 28.2295 39.3981 30.5757 38.9228 32.2657C38.4878 33.7588 37.9642 34.7432 37.1909 35.4487C35.894 36.6465 34.1137 36.8926 33.0504 37.0649C30.7868 37.4094 26.9685 37.5325 23.9799 37.5325C20.9913 37.5325 17.173 37.4094 14.9095 37.0649C13.8542 36.8926 12.0739 36.6465 10.7689 35.4487C9.99562 34.735 9.47202 33.7342 9.03702 32.2657C8.55369 30.5757 8.1912 28.2213 7.93342 24.3081C7.76426 21.9536 7.78842 18.1389 8.05425 16.0798C8.41675 12.9952 9.90701 11.4529 13.105 10.8869C14.5953 10.6161 16.6172 10.4192 18.5183 10.3208C20.0569 10.2224 22.5622 10.1731 23.9799 10.1731C25.3735 10.1485 27.9029 10.2224 29.4174 10.3208C31.3184 10.4192 33.3404 10.6161 34.8306 10.8869C38.0287 11.4775 39.5189 13.0198 39.9056 16.0798C40.1714 18.1143 40.1956 21.9372 40.0264 24.3081Z" fill="#121212"/>
</svg>
