<svg width="48" height="48" viewBox="0 0 48 48" fill="none" xmlns="http://www.w3.org/2000/svg">
<path fill-rule="evenodd" clip-rule="evenodd" d="M23.7972 14.4844C12.881 14.4844 4.03125 18.8538 4.03125 24.2422C4.03125 29.6309 12.881 34.0008 23.7972 34.0008C34.7126 34.0008 43.5628 29.6313 43.5628 24.2422C43.5624 18.8542 34.7122 14.4844 23.7972 14.4844ZM21.9219 16.6562C24.178 15.8586 30.8806 16.6562 33.4841 17.9066C34.3173 18.7057 29.7689 21.2732 24.3531 22.3861C16.61 23.9476 20.29 17.9755 21.9219 16.6562ZM8.62438 28.2183C6.92228 27.0047 3.58937 23.5316 9.11053 19.9209C12.027 18.22 13.6586 17.8369 15.6721 17.4208C16.6448 17.2117 17.339 17.4553 16.4709 18.1847C14.6309 20.0945 10.8115 26.4124 10.4648 27.8023C10.1862 28.7405 9.63115 28.9822 8.62438 28.2183ZM24.5254 32.247C21.2623 32.5933 14.0061 31.5176 13.8666 30.5813C14.0061 28.3229 25.3939 24.5732 27.4419 26.6565C28.3108 28.2881 26.6444 32.1424 24.5254 32.247ZM41.1226 25.683C40.2886 27.5931 37.4767 29.7469 31.5748 31.2053C30.671 31.4122 30.3588 30.8575 30.9488 30.3365C31.9219 29.7465 36.609 21.9 37.199 20.3366C37.5464 19.5374 38.2057 19.8512 38.6229 20.163C40.4982 21.3778 41.9214 23.3573 41.1226 25.683Z" fill="#121212"/>
</svg>
