<svg width="48" height="48" viewBox="0 0 48 48" fill="none" xmlns="http://www.w3.org/2000/svg">
<path fill-rule="evenodd" clip-rule="evenodd" d="M31.9362 6H16.2273L6 16.2271V31.8135L16.1455 42H31.7727L42 31.7727V16.1455L31.9362 6V6ZM38.891 30.3818L30.3818 38.891H17.6182L9.10918 30.4228V17.6182L17.6182 9.14998H30.5452L38.8908 17.5364V30.3818H38.891V30.3818Z" fill="#121212"/>
<path fill-rule="evenodd" clip-rule="evenodd" d="M16.3572 19.9088L14.189 15.4906L10.957 18.518V29.3589L14.0662 32.5089V21.9543L16.7663 27.9679L19.8343 19.9498V36.7634H23.2706V11.1543H19.63L16.3572 19.9088ZM25.6736 11.1543V36.7634H29.601L37.0464 29.3589V23.9588H31.3191V27.0679H33.4464C34.0192 26.986 34.06 27.6408 33.6507 28.1315C33.2418 28.6223 29.1099 32.6725 29.1099 32.6725V15.2452L33.9371 20.2769V21.5042H37.0462V18.6405L29.6826 11.1543H25.6736V11.1543Z" fill="#121212"/>
</svg>
