<svg width="48" height="48" viewBox="0 0 48 48" fill="none" xmlns="http://www.w3.org/2000/svg">
<path d="M24.4805 42.5122C34.4193 42.5122 42.4727 34.4486 42.4727 24.4984C42.4727 14.5477 34.4193 6.46875 24.4805 6.46875C14.5419 6.46875 6.47266 14.5477 6.47266 24.4983C6.47266 34.4486 14.5419 42.5122 24.4805 42.5122Z" fill="#121212"/>
<path d="M24.4799 42.061C34.1694 42.061 42.0207 34.2004 42.0207 24.4993C42.0207 14.7981 34.1694 6.92188 24.4799 6.92188C14.7905 6.92188 6.93945 14.7981 6.93945 24.4993C6.93945 34.2004 14.7906 42.061 24.4799 42.061Z" fill="white"/>
<path d="M24.4796 41.5293C33.8729 41.5293 41.5062 33.9029 41.5062 24.4983C41.5062 15.0779 33.873 7.45117 24.4796 7.45117C15.0862 7.45117 7.45312 15.0779 7.45312 24.4983C7.45316 33.9029 15.0862 41.5293 24.4796 41.5293Z" fill="#121212"/>
<path d="M24.4794 35.1349C30.3522 35.1349 35.1034 30.3628 35.1034 24.4983C35.1034 18.6183 30.3522 13.8457 24.4794 13.8457C18.6066 13.8457 13.8398 18.6183 13.8398 24.4983C13.8398 30.3628 18.6066 35.1349 24.4794 35.1349ZM26.4423 9.16674C26.8938 9.80636 26.9564 10.6954 26.8317 11.4594C26.6917 12.1614 26.1308 12.5981 25.492 12.8009C24.495 12.9256 23.2801 13.1751 22.3921 12.2238C21.8937 11.5219 21.8937 10.6329 22.0804 9.74387C22.3298 8.79256 23.4202 8.54303 24.3081 8.48047C25.0871 8.48054 25.8814 8.60538 26.4423 9.16674Z" fill="white"/>
<path d="M25.3052 9.94582C25.3677 10.523 25.5547 11.412 25.1185 11.9111C24.729 12.1919 24.1839 12.3009 23.7944 12.0359C23.2803 11.5368 23.3582 10.7725 23.4829 10.1331C23.545 9.75867 23.7944 9.36879 24.1839 9.30648C24.6044 9.24406 25.1809 9.43121 25.3052 9.94582Z" fill="#121212"/>
<path d="M34.0145 12.0841C34.2794 12.8485 34.0145 13.5504 33.6405 14.1742C33.329 14.7513 32.4567 15.219 31.9892 15.1412C30.9612 14.9541 30.0885 14.3146 29.0762 13.6909L31.0858 10.0566C32.114 10.618 33.3758 10.9456 34.0145 12.0841Z" fill="white"/>
<path d="M32.8137 12.2699C32.8761 12.8469 32.6267 13.4864 32.1126 13.8608C31.614 14.2506 30.5859 13.4864 30.5859 13.4864L31.723 11.3809C32.1749 11.6459 32.6891 11.7708 32.8137 12.2699Z" fill="#121212"/>
<path d="M12.1901 15.7022C11.8161 16.139 11.3643 16.529 11.3021 17.0903C11.3021 17.2776 11.4733 17.5114 11.6914 17.4802C12.3147 16.9655 12.9533 15.8895 13.8412 16.139C14.2929 16.139 14.7292 16.5913 14.8538 16.9655C15.1187 18.104 14.2929 19.0712 13.5297 19.8197L12.8288 19.383C13.3428 18.9306 14.0905 18.2446 13.7788 17.5426C12.7976 17.0591 12.6417 18.8683 11.6292 18.8683C11.1774 18.8683 10.5699 18.5564 10.4141 18.0418C10.4141 18.0418 10.3518 17.7298 10.3518 17.527C10.3362 17.1683 10.492 16.7783 10.6634 16.4508C10.8503 16.139 11.0529 15.8894 11.0529 15.8894L11.6292 15.25L12.1901 15.7022ZM10.3518 16.7783C10.2116 16.794 9.96233 16.8252 9.80664 16.8408C9.83779 16.7316 9.97798 16.3886 9.97798 16.3886L10.4765 16.3106L10.2427 15.905C10.3518 15.7491 10.4296 15.5775 10.5388 15.4216L10.8191 15.9362L10.3518 16.7783ZM38.8281 17.5896L35.7125 21.0674L35.1206 19.8041L35.8685 19.0866L35.0269 17.6363L34.0769 17.8545L33.36 16.8408L37.9245 16.0765L38.8281 17.5896Z" fill="white"/>
<path d="M36.3656 18.4467L35.8047 17.433L37.7207 17.0586L36.3656 18.4467Z" fill="#121212"/>
<path d="M18.0145 38.442L17.0643 37.8337L17.2669 37.1634L16.4099 36.5237L15.7869 36.945C15.5376 36.7266 15.3039 36.5083 15.0703 36.29L17.5471 34.4492L18.8246 35.2136L18.0145 38.442ZM33.0937 35.8533C33.3274 36.3834 33.156 36.945 32.7666 37.2568C32.2681 37.7715 31.6918 38.0833 30.9909 38.0212C30.3678 37.9584 29.8536 37.3189 29.6668 36.82C29.5421 36.3053 29.5421 35.7592 29.9159 35.4166C30.4297 34.964 30.9286 34.6675 31.6294 34.59C32.2681 34.59 32.8446 35.2918 33.0937 35.8533Z" fill="white"/>
<path d="M17.5313 36.5535L16.9395 36.1322L17.7807 35.4304L17.5313 36.5535ZM32.1434 36.3197C32.3459 36.7719 32.1277 37.1931 31.6447 37.2706C30.9907 37.3955 30.7724 36.6783 30.5543 36.3037C30.3676 35.9292 30.6167 35.415 31.0532 35.3523C31.6917 35.2275 31.8941 35.9452 32.1434 36.3197Z" fill="#121212"/>
<path d="M21.3495 38.4569C21.334 38.7841 21.9415 39.0025 22.1596 38.6592C22.2375 38.4255 22.44 37.2711 22.5647 36.5694C22.8917 36.6474 23.2656 36.7256 23.5147 36.7883C23.437 37.3178 23.3592 38.7994 22.7204 39.3615C22.2841 39.6887 21.5832 39.5017 21.1315 39.3615C20.1188 39.0024 20.2903 38.1604 20.2903 38.1604L20.7576 36.1953L21.7234 36.3977L21.3495 38.4569ZM27.1601 37.1154L27.6119 39.3769L26.6148 39.5799L26.1631 37.3024L25.3841 37.4894L25.2284 36.8031L27.8143 36.2261L28.0013 36.9125L27.1601 37.1154Z" fill="white"/>
<path d="M26.3329 15.5454C29.0434 18.462 30.539 22.4079 29.3706 26.5877C29.3706 26.5877 29.0278 27.5858 28.9344 27.9914C28.8564 28.3969 28.8721 28.7087 28.8721 28.7087C28.9965 28.9741 29.4016 29.0519 29.6666 28.9895C29.9311 28.7244 29.4639 28.3813 29.7287 28.0538C31.0375 27.929 32.1278 28.8493 33.1092 29.707C32.2525 30.7523 30.9595 31.75 29.6353 31.4228C29.4486 31.1576 30.0558 30.8145 29.651 30.5494L20.0083 30.5335C19.7279 30.5494 19.2139 31.3761 18.9179 31.4542C18.4973 31.5476 17.7963 31.5317 17.6094 31.4228C17.2042 31.0169 17.1109 30.3625 16.8461 29.8942C16.5812 29.3172 15.3817 28.7245 15.5842 28.2878C15.6777 28.1319 17.9833 27.7887 19.4632 28.3188C20.0239 28.5686 20.6004 29.0832 21.1923 28.9271C21.2233 28.9115 21.2701 28.896 21.3013 28.8181C21.457 27.0088 20.1486 25.0125 18.2324 24.0923C17.6716 23.8271 17.2667 23.7647 16.7214 23.8115C16.145 23.8426 15.5375 23.905 15.1482 23.6245C14.8209 23.3749 14.8833 22.5326 15.1325 21.706C15.2571 21.3318 15.4285 20.9261 15.5999 20.5988C16.3788 18.883 18.8401 20.7078 19.1671 20.8794C19.5878 21.0978 20.0239 21.5656 20.1486 20.9574C20.1174 20.5675 19.3541 20.1932 18.8556 19.928C17.3913 19.1483 16.4566 19.3355 16.9239 18.4464C17.0642 18.1813 17.5314 17.5731 18.1702 17.0271C18.8244 16.4501 19.6499 15.9042 20.2576 15.8262C21.348 15.7171 22.5163 17.2611 22.5163 17.2611L23.9028 18.8051C24.1677 18.9611 24.3233 18.7895 24.3544 18.6804C24.4324 18.4464 24.2144 18.1967 24.2144 18.1967C24.2144 18.1967 23.5757 17.417 23.2329 17.074C22.9059 16.7308 21.9401 15.8107 21.9401 15.8107C21.5661 15.1557 22.2671 14.9529 22.6564 14.8903C23.9183 14.7655 25.3045 14.4225 26.3329 15.5454Z" fill="#121212"/>
<path d="M26.365 28.1952C27.175 28.1952 27.8295 27.5401 27.8295 26.7291C27.8295 25.9181 27.175 25.2475 26.365 25.2475C25.5551 25.2475 24.9009 25.918 24.9009 26.7291C24.9008 27.5402 25.5551 28.1952 26.365 28.1952ZM17.9687 12.1775C18.7164 12.6455 19.651 12.9574 20.3989 13.4878L19.1214 14.0959L16.8784 12.9263L16.9095 10.5401L18.0623 9.93164C18.1866 10.5713 17.9843 11.4757 17.9687 12.1775ZM17.0652 15.453L14.7441 11.9748L15.71 11.2886L18.0466 14.7199L17.0652 15.453Z" fill="white"/>
</svg>
