<svg width="48" height="48" viewBox="0 0 48 48" fill="none" xmlns="http://www.w3.org/2000/svg">
<path d="M24.0254 40.3694C15.0614 40.3694 7.71739 32.9894 7.71739 24.0254C7.71739 22.0094 8.07739 20.1014 8.76139 18.3014L18.3014 37.4894C18.4094 37.7414 18.5894 37.9574 18.8774 37.9574C19.1654 37.9574 19.3454 37.7414 19.4534 37.4894L23.8454 27.6614C23.8814 27.5534 23.9534 27.4454 24.0614 27.4454C24.1694 27.4454 24.2054 27.5534 24.2774 27.6614L28.6694 37.4894C28.7774 37.7414 28.9574 37.9574 29.2454 37.9574C29.5334 37.9574 29.7134 37.7414 29.8214 37.4894L39.3614 18.3014C40.0454 20.1014 40.4054 22.0094 40.4054 24.0254C40.3334 32.9894 32.9894 40.3694 24.0254 40.3694ZM24.0254 20.3174C23.9174 20.3174 23.8814 20.2094 23.8094 20.1014L18.6974 8.58139C20.3534 7.96939 22.1534 7.64539 24.0254 7.64539C25.8974 7.64539 27.6974 7.96939 29.3534 8.58139L24.2414 20.1014C24.1694 20.2454 24.1334 20.3174 24.0254 20.3174ZM18.8054 32.1614C18.6974 32.1614 18.6614 32.0534 18.5894 31.9454L10.3094 15.2414C11.7854 12.9734 13.7654 11.0654 16.1774 9.73339L22.1534 23.0174C22.2254 23.2334 22.4054 23.3054 22.5854 23.3054H25.4654C25.6814 23.3054 25.8254 23.2694 25.9334 23.0174L31.9094 9.73339C34.2854 11.0654 36.3014 12.9734 37.7774 15.2414L29.4254 31.9454C29.3894 32.0534 29.3174 32.1614 29.2094 32.1614C29.1014 32.1614 29.0654 32.0534 28.9934 31.9454L25.8614 24.8174C25.7534 24.5654 25.6094 24.5294 25.3934 24.5294H22.5134C22.2974 24.5294 22.1534 24.5654 22.0454 24.8174L19.0214 31.9454C18.9854 32.0534 18.9134 32.1614 18.8054 32.1614ZM24.0254 42.0254C33.9974 42.0254 42.0254 33.9974 42.0254 24.0254C42.0254 14.0534 33.9974 6.02539 24.0254 6.02539C14.0534 6.02539 6.02539 14.0534 6.02539 24.0254C6.02539 33.9974 14.0534 42.0254 24.0254 42.0254Z" fill="#121212"/>
</svg>
