<svg width="80" height="80" viewBox="0 0 80 80" fill="none" xmlns="http://www.w3.org/2000/svg">
<g clip-path="url(#clip0_2214_7470)">
<path d="M41.4287 72.8248C20.9887 72.8248 4.42871 71.8448 4.42871 70.6448C4.42871 69.4448 20.9887 68.4648 41.4287 68.4648C61.8687 68.4648 78.4287 69.4448 78.4287 70.6448C78.4287 71.8448 61.8687 72.8248 41.4287 72.8248Z" fill="url(#paint0_radial_2214_7470)"/>
<path d="M19.8181 48.736C19.8181 48.736 13.0881 49.986 8.19807 52.096C6.55807 52.806 5.46807 54.456 5.54807 55.296L6.11807 62.456C6.30807 64.446 7.98807 65.966 9.98807 65.966L74.5481 63.926C76.5881 62.786 77.3581 60.626 77.3581 58.306L75.3081 51.966C75.3081 49.756 74.4681 47.646 72.9681 46.026L68.3181 40.876C68.0881 40.626 68.0181 40.266 68.1481 39.936C68.3381 39.456 68.5481 38.796 68.2781 38.646C66.8781 37.896 64.6081 37.946 62.9781 37.946H40.4481C37.5481 37.946 35.7981 37.966 33.6581 39.156C30.4681 40.946 23.9881 44.836 19.7981 48.746H19.8181H19.8081L19.8181 48.736Z" fill="url(#paint1_linear_2214_7470)"/>
<path d="M8.64941 63.8195C8.64941 67.7195 11.0994 70.8595 14.1394 70.8595H17.8394V56.7695H14.1394C11.1194 56.7695 8.64941 59.9295 8.64941 63.8095V63.8195Z" fill="black"/>
<path d="M17.8484 70.8613C14.8284 70.8613 12.3584 67.7013 12.3584 63.8213C12.3584 59.9413 14.8084 56.7812 17.8484 56.7812C20.8884 56.7812 23.3384 59.9413 23.3384 63.8213C23.3384 67.7013 20.8884 70.8613 17.8484 70.8613Z" fill="url(#paint2_linear_2214_7470)"/>
<path d="M25.4673 63.8195C25.4673 67.7195 27.9173 70.8595 30.9573 70.8595H34.6573V56.7695H30.9573C27.9373 56.7695 25.4673 59.9295 25.4673 63.8095V63.8195Z" fill="black"/>
<path d="M60.1396 63.8195C60.1396 67.7195 62.5897 70.8595 65.6297 70.8595H69.3297V56.7695H65.6297C62.6097 56.7695 60.1396 59.9295 60.1396 63.8095V63.8195Z" fill="black"/>
<path d="M19.8191 48.7367C23.9591 44.8467 30.3891 41.0067 33.7191 39.1167C36.0791 37.8567 38.4791 37.9467 41.3691 37.9467H54.0591C52.3291 37.9467 49.0191 37.9867 47.7691 38.8867L39.9491 48.7467C39.9491 48.7467 30.5791 51.0067 25.5391 54.0967C24.6191 54.6567 24.2291 55.3267 24.1891 56.3467L24.7891 64.1367C24.7891 64.1367 24.7191 65.9767 26.7991 65.9767H10.0191C8.01914 65.9767 6.34914 64.4567 6.14914 62.4667C6.14914 62.4667 5.64914 56.3267 5.57914 55.3067C5.50914 54.2967 6.92914 52.5767 8.95914 51.7967C14.0291 49.8667 19.8391 48.7267 19.8391 48.7267H19.8191V48.7367Z" fill="url(#paint3_linear_2214_7470)"/>
<path d="M68.6293 45.5972C68.6293 45.5972 66.1193 41.8872 65.2593 41.0272C64.3893 40.1672 63.0093 39.5572 61.2093 39.3472C57.0393 38.8672 34.8293 38.8672 34.8293 38.8672C34.4793 38.8672 34.1293 38.9272 33.8193 39.0772C30.5693 40.5772 19.8193 48.7272 19.8193 48.7272H55.2893L67.6793 47.7972C68.7793 47.7272 69.3293 46.4472 68.6393 45.5872H68.6293V45.5972Z" fill="black"/>
<path d="M77.3685 54.1967C77.3685 51.2767 75.0685 49.8867 75.0685 49.8867L70.6085 51.1267L42.2885 51.8967C42.2885 51.8967 32.5985 51.9967 25.9885 53.8967C24.9085 54.2167 24.1685 55.2167 24.1685 56.3467L24.7885 64.4467C24.8585 65.3167 25.5885 65.9667 26.4585 65.9667L65.0985 65.4967L74.5585 63.9167C76.5985 62.7767 77.3685 62.4567 77.3685 60.1167V54.1867V54.1967Z" fill="url(#paint4_linear_2214_7470)"/>
<path d="M63.8892 63.0669C63.8892 63.0669 63.5392 65.4369 61.4092 65.5369L61.7092 66.2669L64.0092 65.5069L64.2392 63.1769L63.8792 63.0469H63.8892V63.0669Z" fill="black"/>
<path d="M38.0093 48.7389H19.8193C19.8193 48.7389 29.2293 40.9189 33.8693 39.0689C34.2293 38.8889 34.7193 38.8789 35.1193 38.8789C39.4793 38.8789 43.6693 38.9089 47.6793 38.9489C44.0993 40.7889 40.8093 44.7589 37.9993 48.7389H38.0093Z" fill="url(#paint5_linear_2214_7470)"/>
<path d="M69.3382 70.8613C66.3182 70.8613 63.8481 67.7013 63.8481 63.8213C63.8481 59.9413 66.2982 56.7812 69.3382 56.7812C72.3781 56.7812 74.8281 59.9413 74.8281 63.8213C74.8281 67.7013 72.3781 70.8613 69.3382 70.8613Z" fill="url(#paint6_linear_2214_7470)"/>
<path d="M69.4691 68.2189C67.7291 68.2189 66.3091 66.2389 66.3091 63.7989C66.3091 61.3589 67.7291 59.3789 69.4691 59.3789C71.2091 59.3789 72.6291 61.3589 72.6291 63.7989C72.6291 66.2389 71.2091 68.2189 69.4691 68.2189Z" fill="url(#paint7_linear_2214_7470)"/>
<path d="M69.4774 66.4066C68.4474 66.4066 67.6274 65.2466 67.6274 63.8166C67.6274 62.3866 68.4474 61.2266 69.4774 61.2266C70.5074 61.2266 71.3274 62.3866 71.3274 63.8166C71.3274 65.2466 70.5074 66.4066 69.4774 66.4066Z" fill="url(#paint8_linear_2214_7470)"/>
<path d="M34.6585 70.8613C31.6385 70.8613 29.1685 67.7013 29.1685 63.8213C29.1685 59.9413 31.6185 56.7812 34.6585 56.7812C37.6985 56.7812 40.1485 59.9413 40.1485 63.8213C40.1485 67.7013 37.6985 70.8613 34.6585 70.8613Z" fill="url(#paint9_linear_2214_7470)"/>
<path d="M34.848 68.2189C33.108 68.2189 31.688 66.2389 31.688 63.7989C31.688 61.3589 33.108 59.3789 34.848 59.3789C36.588 59.3789 38.008 61.3589 38.008 63.7989C38.008 66.2389 36.588 68.2189 34.848 68.2189Z" fill="url(#paint10_linear_2214_7470)"/>
<path d="M34.8485 66.4066C33.8185 66.4066 32.9985 65.2466 32.9985 63.8166C32.9985 62.3866 33.8185 61.2266 34.8485 61.2266C35.8785 61.2266 36.6985 62.3866 36.6985 63.8166C36.6985 65.2466 35.8785 66.4066 34.8485 66.4066Z" fill="url(#paint11_linear_2214_7470)"/>
<path d="M27.0487 53.6152C27.0487 53.6152 18.0987 54.0352 12.8187 53.9752C7.53873 53.9152 6.53873 53.2852 6.53873 53.2852C6.53873 53.2852 5.47873 54.2652 5.54873 55.3052L5.61873 56.1252C5.61873 56.1252 6.38873 56.5752 7.82873 56.6652C8.59873 56.7052 9.26873 56.6552 9.72873 56.0452C9.95873 55.7452 10.6587 54.8152 10.6587 54.8152C10.6587 54.8152 13.1387 54.9352 16.5387 54.7752C16.5387 54.7752 17.5387 56.3152 18.3887 56.7252C18.8987 56.9552 22.5287 56.8352 24.2387 56.5652C26.4387 56.2152 27.0387 53.6152 27.0387 53.6152H27.0487Z" fill="#939393"/>
<path d="M53.6491 51.6272L51.0791 51.6672V52.4072C51.0991 52.7572 51.3891 53.0372 51.7491 53.0372L53.0391 53.0172C53.3991 53.0172 53.6791 52.7172 53.6691 52.3572V51.6172H53.6491V51.6272Z" fill="url(#paint12_linear_2214_7470)"/>
<path d="M53.4888 51.6289L51.2388 51.6689V52.0089C51.2388 52.1589 51.3788 52.2789 51.5288 52.2789L53.2388 52.2489C53.3888 52.2489 53.5088 52.1289 53.5088 51.9789V51.6389H53.4888V51.6289Z" fill="url(#paint13_linear_2214_7470)"/>
<path d="M67.4792 51.217L64.9092 51.287L64.9292 52.027C64.9292 52.377 65.2392 52.657 65.5992 52.647L66.8892 52.617C67.2392 52.617 67.5192 52.307 67.5092 51.947L67.4892 51.207H67.4792V51.217Z" fill="url(#paint14_linear_2214_7470)"/>
<path d="M67.3188 51.217L65.0688 51.277V51.617C65.0788 51.767 65.2088 51.887 65.3688 51.877L67.0788 51.837C67.2288 51.837 67.3488 51.707 67.3388 51.547V51.207H67.3188V51.217Z" fill="url(#paint15_linear_2214_7470)"/>
<path d="M41.349 49.5461H45.029C45.719 49.5461 46.299 48.9261 46.299 48.1461C46.299 47.3661 45.739 46.7461 45.029 46.7461H43.849C43.229 46.7461 42.629 47.0061 42.169 47.4661L40.249 49.5361H41.359L41.349 49.5461Z" fill="url(#paint16_linear_2214_7470)"/>
<path d="M19.2482 55.6762C21.7982 55.6762 24.7982 55.4462 24.9382 55.4362C25.1682 55.3962 25.3382 55.1762 25.2982 54.9362C25.2582 54.7062 25.0482 54.5362 24.8082 54.5762C24.7782 54.5762 21.4182 54.8662 18.8682 54.8062C18.6382 54.8062 18.4382 54.9962 18.4282 55.2262C18.4282 55.4562 18.6182 55.6562 18.8482 55.6662H19.2582H19.2482V55.6762Z" fill="url(#paint17_linear_2214_7470)"/>
<path d="M9.1184 55.5287C9.3284 55.5287 9.5184 55.3688 9.5384 55.1488C9.5684 54.9188 9.3984 54.6987 9.1584 54.6687C9.1384 54.6687 7.2084 54.6088 5.9784 53.9688C5.8184 54.1788 5.6484 54.5287 5.6084 54.7587C7.0684 55.5287 8.9684 55.5087 9.0584 55.5187H9.1184V55.5287Z" fill="url(#paint18_linear_2214_7470)"/>
<path d="M36.7377 52.7188H37.3777C37.5877 52.7188 37.7477 52.8887 37.7477 53.0987C37.7477 53.3087 37.5777 53.4787 37.3777 53.4787H36.7377C36.5277 53.4787 36.3677 53.3087 36.3677 53.0987C36.3677 52.8887 36.5377 52.7188 36.7377 52.7188Z" fill="url(#paint19_linear_2214_7470)"/>
<path d="M54.958 65.6366C54.958 65.6366 56.198 65.0466 56.198 62.6666V52.8866C56.198 52.2666 56.118 51.6266 55.938 51.0266L55.268 48.7266" stroke="url(#paint20_linear_2214_7470)" stroke-width="0.2" stroke-miterlimit="10"/>
<path d="M73.7786 47.0166C73.7786 47.0166 66.5586 46.2366 74.3086 49.5766L75.0586 49.8866C75.0586 49.8866 74.5786 48.0266 73.7786 47.0266V47.0166Z" fill="url(#paint21_linear_2214_7470)"/>
<g clip-path="url(#clip1_2214_7470)">
<path d="M33.9199 11.1418L35.5299 9.53179C36.0099 9.05179 35.7599 8.22179 35.0899 8.08179L27.5499 6.57179C26.9499 6.45179 26.4199 6.98179 26.5399 7.58179L28.0499 15.1218C28.1799 15.7918 29.0099 16.0418 29.4999 15.5618L31.0499 14.0118C35.1099 18.7018 34.9199 25.8318 30.4599 30.2818C28.7399 32.0018 26.5699 33.1418 24.2099 33.5818C23.1999 33.7718 22.4499 34.6218 22.4799 35.6518C22.5199 36.8918 23.6699 37.7918 24.8899 37.5718C28.0699 36.9918 30.9999 35.4618 33.3199 33.1418C39.3599 27.1018 39.5399 17.4218 33.9099 11.1318H33.9199V11.1418Z" fill="url(#paint22_linear_2214_7470)"/>
<path d="M12.96 29.6307C8.90001 24.9407 9.08001 17.8007 13.54 13.3507C15.27 11.6207 17.47 10.4707 19.85 10.0407C20.86 9.85071 21.61 9.00071 21.58 7.98071C21.54 6.73071 20.4 5.82071 19.18 6.04071C15.97 6.61071 13.02 8.15071 10.68 10.4807C4.64001 16.5207 4.46001 26.2107 10.1 32.5007L8.49001 34.1107C8.01001 34.5907 8.26001 35.4207 8.93001 35.5607L16.47 37.0707C17.07 37.1907 17.6 36.6607 17.48 36.0607L15.97 28.5207C15.84 27.8507 15.01 27.6007 14.52 28.0807L12.98 29.6307H12.97H12.96Z" fill="url(#paint23_linear_2214_7470)"/>
</g>
</g>
<defs>
<radialGradient id="paint0_radial_2214_7470" cx="0" cy="0" r="1" gradientUnits="userSpaceOnUse" gradientTransform="translate(44.9287 70.9946) rotate(-180) scale(32 2.78261)">
<stop/>
<stop offset="1" stop-opacity="0"/>
</radialGradient>
<linearGradient id="paint1_linear_2214_7470" x1="29.4081" y1="43.276" x2="42.6681" y2="56.686" gradientUnits="userSpaceOnUse">
<stop stop-color="#F1F2F2"/>
<stop offset="1" stop-color="#E6E7E8"/>
</linearGradient>
<linearGradient id="paint2_linear_2214_7470" x1="17.8484" y1="57.7513" x2="17.8484" y2="71.2813" gradientUnits="userSpaceOnUse">
<stop stop-color="#414042"/>
<stop offset="1"/>
</linearGradient>
<linearGradient id="paint3_linear_2214_7470" x1="29.8091" y1="40.1767" x2="29.8791" y2="66.1467" gradientUnits="userSpaceOnUse">
<stop stop-color="#E8E9EA"/>
<stop offset="0.51" stop-color="white"/>
<stop offset="0.53" stop-color="#F6F6F6"/>
<stop offset="0.61" stop-color="#DCDDDE"/>
<stop offset="0.69" stop-color="#CACBCD"/>
<stop offset="0.78" stop-color="#BFC1C3"/>
<stop offset="0.88" stop-color="#BCBEC0"/>
<stop offset="1" stop-color="#828282"/>
</linearGradient>
<linearGradient id="paint4_linear_2214_7470" x1="50.6485" y1="50.4667" x2="51.0285" y2="65.1567" gradientUnits="userSpaceOnUse">
<stop stop-color="#E6E7E8"/>
<stop offset="0.3" stop-color="#A8A7AA"/>
<stop offset="0.76" stop-color="#BCBEC0"/>
<stop offset="1" stop-color="#828282"/>
</linearGradient>
<linearGradient id="paint5_linear_2214_7470" x1="25.5093" y1="35.2689" x2="44.1493" y2="54.6589" gradientUnits="userSpaceOnUse">
<stop offset="0.14" stop-color="#414042"/>
<stop offset="0.34" stop-color="#6D6E71"/>
<stop offset="1"/>
</linearGradient>
<linearGradient id="paint6_linear_2214_7470" x1="63.8481" y1="63.8313" x2="74.8281" y2="63.8313" gradientUnits="userSpaceOnUse">
<stop stop-color="#414042"/>
<stop offset="1"/>
</linearGradient>
<linearGradient id="paint7_linear_2214_7470" x1="69.4691" y1="58.9489" x2="69.4691" y2="68.4289" gradientUnits="userSpaceOnUse">
<stop stop-color="#606060"/>
<stop offset="1" stop-color="#E6E7E8"/>
</linearGradient>
<linearGradient id="paint8_linear_2214_7470" x1="69.4274" y1="61.2966" x2="69.5874" y2="69.4966" gradientUnits="userSpaceOnUse">
<stop stop-color="#606060"/>
<stop offset="1" stop-color="#E6E7E8"/>
</linearGradient>
<linearGradient id="paint9_linear_2214_7470" x1="29.1785" y1="63.8313" x2="40.1485" y2="63.8313" gradientUnits="userSpaceOnUse">
<stop stop-color="#414042"/>
<stop offset="1"/>
</linearGradient>
<linearGradient id="paint10_linear_2214_7470" x1="38.028" y1="63.7989" x2="31.698" y2="63.7989" gradientUnits="userSpaceOnUse">
<stop stop-color="#606060"/>
<stop offset="1" stop-color="#E6E7E8"/>
</linearGradient>
<linearGradient id="paint11_linear_2214_7470" x1="34.7985" y1="61.2966" x2="34.9685" y2="69.4966" gradientUnits="userSpaceOnUse">
<stop stop-color="#606060"/>
<stop offset="1" stop-color="#E6E7E8"/>
</linearGradient>
<linearGradient id="paint12_linear_2214_7470" x1="52.3691" y1="51.7472" x2="52.3991" y2="53.0272" gradientUnits="userSpaceOnUse">
<stop stop-color="#DDDFE0"/>
<stop offset="1" stop-color="#A7A9AC"/>
</linearGradient>
<linearGradient id="paint13_linear_2214_7470" x1="54.7888" y1="52.0689" x2="51.8888" y2="51.9389" gradientUnits="userSpaceOnUse">
<stop stop-color="#DBDCDD"/>
<stop offset="1" stop-color="#E6E7E8"/>
</linearGradient>
<linearGradient id="paint14_linear_2214_7470" x1="68.5792" y1="51.887" x2="65.9992" y2="51.957" gradientUnits="userSpaceOnUse">
<stop stop-color="#DDDFE0"/>
<stop offset="1" stop-color="#A7A9AC"/>
</linearGradient>
<linearGradient id="paint15_linear_2214_7470" x1="68.7388" y1="51.637" x2="65.8388" y2="51.537" gradientUnits="userSpaceOnUse">
<stop stop-color="#DBDCDD"/>
<stop offset="1" stop-color="#E6E7E8"/>
</linearGradient>
<linearGradient id="paint16_linear_2214_7470" x1="47.179" y1="48.4561" x2="39.599" y2="47.9561" gradientUnits="userSpaceOnUse">
<stop stop-color="#DBDCDD"/>
<stop offset="1" stop-color="#E6E7E8"/>
</linearGradient>
<linearGradient id="paint17_linear_2214_7470" x1="25.3082" y1="55.1262" x2="18.4282" y2="55.1262" gradientUnits="userSpaceOnUse">
<stop stop-color="#939393"/>
<stop offset="0.1" stop-color="#A3A3A3"/>
<stop offset="0.38" stop-color="#CBCBCB"/>
<stop offset="0.62" stop-color="#E7E7E7"/>
<stop offset="0.84" stop-color="#F8F8F8"/>
<stop offset="1" stop-color="white"/>
</linearGradient>
<linearGradient id="paint18_linear_2214_7470" x1="5.6184" y1="53.8688" x2="6.7784" y2="54.4188" gradientUnits="userSpaceOnUse">
<stop stop-color="#606060"/>
<stop offset="1" stop-color="#E6E7E8"/>
</linearGradient>
<linearGradient id="paint19_linear_2214_7470" x1="37.0577" y1="53.5087" x2="37.0577" y2="52.7487" gradientUnits="userSpaceOnUse">
<stop stop-color="#FB7674"/>
<stop offset="0.03" stop-color="#FA7976"/>
<stop offset="0.33" stop-color="#F98989"/>
<stop offset="0.65" stop-color="#F89395"/>
<stop offset="1" stop-color="#F79899"/>
</linearGradient>
<linearGradient id="paint20_linear_2214_7470" x1="55.608" y1="65.7266" x2="55.608" y2="48.6966" gradientUnits="userSpaceOnUse">
<stop stop-color="#606060"/>
<stop offset="1" stop-color="#E6E7E8"/>
</linearGradient>
<linearGradient id="paint21_linear_2214_7470" x1="72.6286" y1="48.8466" x2="73.2386" y2="48.2466" gradientUnits="userSpaceOnUse">
<stop stop-color="#FB7674"/>
<stop offset="0.03" stop-color="#FA7976"/>
<stop offset="0.33" stop-color="#F98989"/>
<stop offset="0.65" stop-color="#F89395"/>
<stop offset="1" stop-color="#F79899"/>
</linearGradient>
<linearGradient id="paint22_linear_2214_7470" x1="30.2399" y1="37.4118" x2="30.2399" y2="7.69179" gradientUnits="userSpaceOnUse">
<stop stop-color="#A96FFF"/>
<stop offset="1" stop-color="#DCA1FF"/>
</linearGradient>
<linearGradient id="paint23_linear_2214_7470" x1="13.79" y1="37.3907" x2="13.79" y2="7.66071" gradientUnits="userSpaceOnUse">
<stop stop-color="#A96FFF"/>
<stop offset="1" stop-color="#DCA1FF"/>
</linearGradient>
<clipPath id="clip0_2214_7470">
<rect width="80" height="80" fill="white"/>
</clipPath>
<clipPath id="clip1_2214_7470">
<rect width="32" height="32" fill="white" transform="translate(6 6)"/>
</clipPath>
</defs>
</svg>
