<svg width="80" height="80" viewBox="0 0 80 80" fill="none" xmlns="http://www.w3.org/2000/svg">
<path d="M1.25 70.895C1.25 72.084 20.2986 73.0479 43.7962 73.0479C67.2937 73.0479 78.75 72.084 78.75 70.895C78.75 69.706 67.2937 68.7422 43.7962 68.7422C20.2986 68.7422 1.25 69.706 1.25 70.895Z" fill="url(#paint0_radial_2173_7703)"/>
<path d="M18.4713 48.5504C18.4713 48.5504 11.7041 49.808 6.78354 51.9421C5.13644 52.6566 4.03272 54.32 4.11589 55.173L4.69295 62.3935C4.88838 64.3976 6.57294 65.9259 8.5864 65.9259H71.7523C73.8081 64.7755 75.0815 62.6037 75.0815 60.2479V51.737C75.0815 49.1697 74.4077 47.5373 73.7518 46.7614L69.3378 40.6868C67.9231 38.4613 65.4691 37.1133 62.832 37.1133H38.6934C35.7816 37.1133 32.8914 37.0815 30.1094 38.8789C26.8925 40.6811 22.6878 44.6031 18.4713 48.5504Z" fill="url(#paint1_linear_2173_7703)"/>
<path d="M7.22928 63.7494C7.22928 67.6733 9.70105 70.8542 12.7502 70.8542H16.4814V56.6445H12.7502C9.70105 56.6445 7.22928 59.8256 7.22928 63.7494Z" fill="black"/>
<path d="M16.4825 70.8541C13.4334 70.8541 10.9616 67.6732 10.9616 63.7493C10.9616 59.8255 13.4334 56.6445 16.4825 56.6445C19.5316 56.6445 22.0034 59.8255 22.0034 63.7493C22.0034 67.6732 19.5316 70.8541 16.4825 70.8541Z" fill="url(#paint2_linear_2173_7703)"/>
<path d="M24.1497 63.7494C24.1497 67.6733 26.6215 70.8542 29.6706 70.8542H33.4019V56.6445H29.6706C26.6215 56.6445 24.1497 59.8256 24.1497 63.7494Z" fill="black"/>
<path d="M57.2483 63.7494C57.2483 67.6733 59.7201 70.8542 62.7693 70.8542H66.5005V56.6445H62.7693C59.7201 56.6445 57.2483 59.8256 57.2483 63.7494Z" fill="black"/>
<path d="M18.4747 48.5523C22.6492 44.633 26.8056 40.758 30.1544 38.846C33.5449 36.833 36.6882 37.1151 39.6 37.1151H52.3569C50.6136 37.1151 47.8323 37.7017 46.5702 38.6068L38.6969 48.5523C38.6969 48.5523 29.2759 50.8306 24.2026 53.9477C23.2727 54.5191 22.8778 55.1816 22.8422 56.2213L23.4447 64.0798C23.4447 64.0798 23.375 65.9277 25.4702 65.9277H8.58988C6.57643 65.9277 4.89187 64.3994 4.69643 62.3954C4.69643 62.3954 4.19809 56.1994 4.11938 55.1749C4.04067 54.1504 5.47918 52.4262 7.53075 51.6416C12.6303 49.6917 18.4747 48.5523 18.4747 48.5523Z" fill="url(#paint3_linear_2173_7703)"/>
<path d="M30.2906 38.7913C26.7156 40.5523 18.4754 48.5509 18.4754 48.5509H69.2347C70.4387 48.5509 71.1871 47.2425 70.5766 46.2046L67.6274 41.1906C66.6853 39.5889 64.9659 38.6055 63.1077 38.6055H31.547C31.1369 38.6055 30.6586 38.6102 30.2906 38.7913Z" fill="black"/>
<path d="M75.0815 51.7383H41.0672C41.0672 51.7383 31.3085 51.8325 24.6737 53.7532C23.5809 54.0696 22.8387 55.0831 22.8387 56.2208L23.4701 64.3928C23.55 65.2621 24.2791 65.9273 25.152 65.9273H71.7523C73.8081 64.7769 75.0815 62.6051 75.0815 60.2492V51.7383Z" fill="url(#paint4_linear_2173_7703)"/>
<path d="M36.7641 48.5509H18.472C18.472 48.5509 26.3951 40.706 30.2251 38.8012C30.5923 38.6186 31.1549 38.6055 31.565 38.6055H46.5674C42.9615 40.4523 39.5972 44.5394 36.7641 48.5509Z" fill="url(#paint5_linear_2173_7703)"/>
<path d="M66.4991 70.8541C63.45 70.8541 60.9782 67.6732 60.9782 63.7493C60.9782 59.8255 63.45 56.6445 66.4991 56.6445C69.5482 56.6445 72.02 59.8255 72.02 63.7493C72.02 67.6732 69.5482 70.8541 66.4991 70.8541Z" fill="url(#paint6_linear_2173_7703)"/>
<path d="M66.6948 68.2003C64.9387 68.2003 63.5151 66.2081 63.5151 63.7506C63.5151 61.293 64.9387 59.3008 66.6948 59.3008C68.4509 59.3008 69.8745 61.293 69.8745 63.7506C69.8745 66.2081 68.4509 68.2003 66.6948 68.2003Z" fill="url(#paint7_linear_2173_7703)"/>
<path d="M66.6966 66.3588C65.667 66.3588 64.8323 65.1907 64.8323 63.7497C64.8323 62.3088 65.667 61.1406 66.6966 61.1406C67.7263 61.1406 68.561 62.3088 68.561 63.7497C68.561 65.1907 67.7263 66.3588 66.6966 66.3588Z" fill="url(#paint8_linear_2173_7703)"/>
<path d="M33.4019 70.8541C30.3528 70.8541 27.881 67.6732 27.881 63.7493C27.881 59.8255 30.3528 56.6445 33.4019 56.6445C36.4511 56.6445 38.9229 59.8255 38.9229 63.7493C38.9229 67.6732 36.4511 70.8541 33.4019 70.8541Z" fill="url(#paint9_linear_2173_7703)"/>
<path d="M33.5991 68.2003C31.843 68.2003 30.4194 66.2081 30.4194 63.7506C30.4194 61.293 31.843 59.3008 33.5991 59.3008C35.3552 59.3008 36.7788 61.293 36.7788 63.7506C36.7788 66.2081 35.3552 68.2003 33.5991 68.2003Z" fill="url(#paint10_linear_2173_7703)"/>
<path d="M33.598 66.3588C32.5683 66.3588 31.7336 65.1907 31.7336 63.7497C31.7336 62.3088 32.5683 61.1406 33.598 61.1406C34.6277 61.1406 35.4624 62.3088 35.4624 63.7497C35.4624 65.1907 34.6277 66.3588 33.598 66.3588Z" fill="url(#paint11_linear_2173_7703)"/>
<path d="M25.7471 53.4637C25.7471 53.4637 16.7372 53.8868 11.4357 53.8266C6.13413 53.7664 5.11971 53.1328 5.11971 53.1328C5.11971 53.1328 4.06126 54.1198 4.11779 55.1729L4.19115 56.0016C4.19115 56.0016 4.96307 56.4599 6.4134 56.5399C7.19169 56.5829 7.85794 56.5271 8.33376 55.9098C8.5632 55.6121 9.27393 54.6768 9.27393 54.6768C9.27393 54.6768 11.7795 54.7946 15.1788 54.6371C15.1788 54.6371 16.1912 56.199 17.0491 56.6012C17.5578 56.8396 21.2224 56.7088 22.9275 56.4363C25.1421 56.0822 25.7471 53.4637 25.7471 53.4637Z" fill="#929292"/>
<path d="M52.9932 51.7383H50.4069V52.4857C50.4069 52.842 50.6962 53.1313 51.0525 53.1313H52.3475C52.7039 53.1313 52.9932 52.842 52.9932 52.4857V51.7383Z" fill="url(#paint12_linear_2173_7703)"/>
<path d="M52.835 51.7383H50.5661V52.081C50.5661 52.2311 50.6878 52.3528 50.8379 52.3528H52.5632C52.7132 52.3528 52.835 52.2311 52.835 52.081V51.7383Z" fill="url(#paint13_linear_2173_7703)"/>
<path d="M65.9263 51.7383H63.34V52.4857C63.34 52.842 63.6293 53.1313 63.9856 53.1313H65.2807C65.637 53.1313 65.9263 52.842 65.9263 52.4857V51.7383Z" fill="url(#paint14_linear_2173_7703)"/>
<path d="M65.7681 51.7383H63.4992V52.081C63.4992 52.2311 63.6209 52.3528 63.771 52.3528H65.4963C65.6463 52.3528 65.7681 52.2311 65.7681 52.081V51.7383Z" fill="url(#paint15_linear_2173_7703)"/>
<path d="M38.6951 49.6617H42.3294C43.0169 49.6617 43.5742 49.1043 43.5742 48.4168C43.5742 47.7292 43.0169 47.1719 42.3294 47.1719H41.1575C40.5447 47.1719 39.9539 47.4005 39.5008 47.8133L38.6951 48.5471V49.6617Z" fill="url(#paint16_linear_2173_7703)"/>
<path d="M17.8951 55.5399C20.4587 55.5399 23.4756 55.3115 23.6123 55.2899C23.8493 55.2528 24.0115 55.0304 23.9741 54.793C23.937 54.5561 23.7182 54.3938 23.4772 54.4311C23.4429 54.4365 20.0567 54.7222 17.5003 54.6661C17.2699 54.6655 17.0614 54.851 17.0562 55.0913C17.0511 55.3313 17.2412 55.5302 17.4813 55.5354C17.6173 55.5384 17.7556 55.5399 17.8951 55.5399Z" fill="url(#paint17_linear_2173_7703)"/>
<path d="M7.70226 55.4011C7.91877 55.4011 8.10595 55.2396 8.13293 55.0193C8.16226 54.7811 7.99269 54.5642 7.75455 54.535C7.73649 54.5329 5.79417 54.465 4.55277 53.832C4.39089 54.0464 4.22311 54.4034 4.18041 54.6296C5.65415 55.4035 7.56736 55.3879 7.64931 55.3979C7.66692 55.4 7.68465 55.4011 7.70226 55.4011Z" fill="url(#paint18_linear_2173_7703)"/>
<path d="M59.1903 30.7904C57.4562 29.7508 50.9857 36.893 50.7845 37.1152H47.5076L48.0172 34.931C48.0172 34.931 50.7662 26.8385 57.1436 27.4686C63.5208 28.0986 61.0027 35.0136 54.8268 37.1151H50.8045C56.727 35.1795 60.2127 31.4035 59.1903 30.7904Z" fill="url(#paint19_linear_2173_7703)"/>
<path d="M40.4732 26.8422C45.9585 24.6048 48.5889 37.1124 48.5889 37.1124H43.8302C43.8302 37.1124 41.5358 35.3673 39.9269 33.3848C38.3182 31.4023 37.7306 27.9609 40.4732 26.8422ZM47.5089 37.1124C47.5089 37.1124 41.7342 27.206 40.4682 28.0306C39.7017 28.5297 47.5089 37.1124 47.5089 37.1124Z" fill="url(#paint20_linear_2173_7703)"/>
<path d="M50.2865 37.1178C50.2865 37.1178 51.181 36.0292 50.9495 34.9385C50.7181 33.8478 48.8594 33.9506 47.7805 34.2266C48.0608 35.1855 48.3309 36.1643 48.5838 37.1178H50.2865Z" fill="url(#paint21_linear_2173_7703)"/>
<path d="M54.7402 65.9277H58.3496V55.5835C58.3496 52.8783 58.0684 50.1804 57.5107 47.5333L55.3124 37.1016H51.703L54.2528 49.2013C54.5769 50.7393 54.7402 52.3069 54.7402 53.8787V65.9277Z" fill="url(#paint22_linear_2173_7703)"/>
<g clip-path="url(#clip0_2173_7703)">
<path d="M16.8169 40.2773C25.6556 40.2773 32.8169 33.116 32.8169 24.2773C32.8169 15.4387 25.6556 8.27734 16.8169 8.27734C7.97823 8.27734 0.816895 15.4387 0.816895 24.2773C0.816895 33.116 7.97823 40.2773 16.8169 40.2773Z" fill="url(#paint23_linear_2173_7703)"/>
<path d="M14.5479 30.4673C14.2779 30.4673 14.0279 30.3573 13.8379 30.1673L9.37795 25.6673C8.98795 25.2773 8.98795 24.6373 9.37795 24.2573C9.76795 23.8773 10.4079 23.8673 10.7879 24.2573L14.4979 27.9973L21.9479 19.5073C22.3079 19.0873 22.9479 19.0473 23.3579 19.4173C23.7779 19.7773 23.8179 20.4173 23.4479 20.8273L15.2879 30.1273C15.1079 30.3373 14.8479 30.4573 14.5679 30.4673C14.5579 30.4673 14.5479 30.4673 14.5379 30.4673H14.5479Z" fill="white"/>
</g>
<defs>
<radialGradient id="paint0_radial_2173_7703" cx="0" cy="0" r="1" gradientUnits="userSpaceOnUse" gradientTransform="translate(40.0014 70.8762) rotate(180) scale(38.3544 1.98469)">
<stop/>
<stop offset="1" stop-color="#414042" stop-opacity="0"/>
</radialGradient>
<linearGradient id="paint1_linear_2173_7703" x1="28.1358" y1="43.0765" x2="41.5667" y2="56.632" gradientUnits="userSpaceOnUse">
<stop stop-color="#F0F1F1"/>
<stop offset="1" stop-color="#E5E6E7"/>
</linearGradient>
<linearGradient id="paint2_linear_2173_7703" x1="16.4825" y1="57.6366" x2="16.4825" y2="71.273" gradientUnits="userSpaceOnUse">
<stop stop-color="#414042"/>
<stop offset="1"/>
</linearGradient>
<linearGradient id="paint3_linear_2173_7703" x1="28.2185" y1="39.3948" x2="28.2901" y2="66.1134" gradientUnits="userSpaceOnUse">
<stop stop-color="#E7E8E9"/>
<stop offset="0.5074" stop-color="white"/>
<stop offset="0.5327" stop-color="#F5F5F5"/>
<stop offset="0.6118" stop-color="#DBDCDD"/>
<stop offset="0.6937" stop-color="#C9CACC"/>
<stop offset="0.7795" stop-color="#BEC0C2"/>
<stop offset="0.8755" stop-color="#BBBDBF"/>
<stop offset="1" stop-color="#818181"/>
</linearGradient>
<linearGradient id="paint4_linear_2173_7703" x1="48.8964" y1="51.4802" x2="49.2619" y2="65.8129" gradientUnits="userSpaceOnUse">
<stop stop-color="#E5E6E7"/>
<stop offset="0.297" stop-color="#A7A6A9"/>
<stop offset="0.7588" stop-color="#BBBDBF"/>
<stop offset="0.9982" stop-color="#818181"/>
</linearGradient>
<linearGradient id="paint5_linear_2173_7703" x1="24.192" y1="34.9399" x2="43.0092" y2="54.4578" gradientUnits="userSpaceOnUse">
<stop offset="0.1404" stop-color="#414042"/>
<stop offset="0.3375" stop-color="#6D6E71"/>
<stop offset="1"/>
</linearGradient>
<linearGradient id="paint6_linear_2173_7703" x1="66.4991" y1="23.5317" x2="66.4991" y2="23.5317" gradientUnits="userSpaceOnUse">
<stop stop-color="#414042"/>
<stop offset="1"/>
</linearGradient>
<linearGradient id="paint7_linear_2173_7703" x1="65.5602" y1="59.4309" x2="67.5932" y2="67.17" gradientUnits="userSpaceOnUse">
<stop stop-color="#606060"/>
<stop offset="1" stop-color="#E5E6E7"/>
</linearGradient>
<linearGradient id="paint8_linear_2173_7703" x1="66.0314" y1="61.2169" x2="67.2234" y2="65.7547" gradientUnits="userSpaceOnUse">
<stop stop-color="#606060"/>
<stop offset="1" stop-color="#E5E6E7"/>
</linearGradient>
<linearGradient id="paint9_linear_2173_7703" x1="33.4019" y1="23.5317" x2="33.4019" y2="23.5317" gradientUnits="userSpaceOnUse">
<stop stop-color="#414042"/>
<stop offset="1"/>
</linearGradient>
<linearGradient id="paint10_linear_2173_7703" x1="32.4645" y1="59.4309" x2="34.4973" y2="67.17" gradientUnits="userSpaceOnUse">
<stop stop-color="#606060"/>
<stop offset="1" stop-color="#E5E6E7"/>
</linearGradient>
<linearGradient id="paint11_linear_2173_7703" x1="32.9327" y1="61.2169" x2="34.1247" y2="65.7547" gradientUnits="userSpaceOnUse">
<stop stop-color="#606060"/>
<stop offset="1" stop-color="#E5E6E7"/>
</linearGradient>
<linearGradient id="paint12_linear_2173_7703" x1="51.7" y1="53.1791" x2="51.7" y2="51.922" gradientUnits="userSpaceOnUse">
<stop stop-color="#DCDEDF"/>
<stop offset="1" stop-color="#A6A8AB"/>
</linearGradient>
<linearGradient id="paint13_linear_2173_7703" x1="51.7005" y1="51.2269" x2="51.7005" y2="52.1974" gradientUnits="userSpaceOnUse">
<stop stop-color="#F0F1F1"/>
<stop offset="1" stop-color="#E5E6E7"/>
</linearGradient>
<linearGradient id="paint14_linear_2173_7703" x1="64.6331" y1="53.1791" x2="64.6331" y2="51.922" gradientUnits="userSpaceOnUse">
<stop stop-color="#DCDEDF"/>
<stop offset="1" stop-color="#A6A8AB"/>
</linearGradient>
<linearGradient id="paint15_linear_2173_7703" x1="64.6337" y1="51.2269" x2="64.6337" y2="52.1974" gradientUnits="userSpaceOnUse">
<stop stop-color="#F0F1F1"/>
<stop offset="1" stop-color="#E5E6E7"/>
</linearGradient>
<linearGradient id="paint16_linear_2173_7703" x1="44.2961" y1="48.6596" x2="38.0992" y2="48.2598" gradientUnits="userSpaceOnUse">
<stop stop-color="#F0F1F1"/>
<stop offset="1" stop-color="#E5E6E7"/>
</linearGradient>
<linearGradient id="paint17_linear_2173_7703" x1="23.9795" y1="54.9829" x2="17.0561" y2="54.9829" gradientUnits="userSpaceOnUse">
<stop offset="0.003" stop-color="#929292"/>
<stop offset="0.1097" stop-color="#A3A3A3"/>
<stop offset="0.3793" stop-color="#CBCBCB"/>
<stop offset="0.6267" stop-color="#E7E7E7"/>
<stop offset="0.8416" stop-color="#F8F8F8"/>
<stop offset="1" stop-color="white"/>
</linearGradient>
<linearGradient id="paint18_linear_2173_7703" x1="4.18643" y1="53.7198" x2="5.34155" y2="54.2723" gradientUnits="userSpaceOnUse">
<stop stop-color="#606060"/>
<stop offset="1" stop-color="#E5E6E7"/>
</linearGradient>
<linearGradient id="paint19_linear_2173_7703" x1="48.5367" y1="38.8303" x2="62.0516" y2="25.0778" gradientUnits="userSpaceOnUse">
<stop stop-color="#AA6FFF"/>
<stop offset="0.2574" stop-color="#B075FF"/>
<stop offset="0.6065" stop-color="#C186FF"/>
<stop offset="0.997" stop-color="#DDA2FF"/>
</linearGradient>
<linearGradient id="paint20_linear_2173_7703" x1="36.3904" y1="36.6607" x2="47.7718" y2="30.0858" gradientUnits="userSpaceOnUse">
<stop stop-color="#AA6FFF"/>
<stop offset="0.2574" stop-color="#B075FF"/>
<stop offset="0.6065" stop-color="#C186FF"/>
<stop offset="0.997" stop-color="#DDA2FF"/>
</linearGradient>
<linearGradient id="paint21_linear_2173_7703" x1="48.6883" y1="39.2564" x2="49.6168" y2="33.3747" gradientUnits="userSpaceOnUse">
<stop stop-color="#AA6FFF"/>
<stop offset="0.2574" stop-color="#B075FF"/>
<stop offset="0.6065" stop-color="#C186FF"/>
<stop offset="0.997" stop-color="#DDA2FF"/>
</linearGradient>
<linearGradient id="paint22_linear_2173_7703" x1="55.0264" y1="66.0722" x2="55.0264" y2="49.193" gradientUnits="userSpaceOnUse">
<stop offset="0.0006" stop-color="#AA6FFF"/>
<stop offset="0.2579" stop-color="#B075FF"/>
<stop offset="0.6068" stop-color="#C186FF"/>
<stop offset="0.997" stop-color="#DDA2FF"/>
</linearGradient>
<linearGradient id="paint23_linear_2173_7703" x1="16.8169" y1="39.966" x2="16.8169" y2="8.428" gradientUnits="userSpaceOnUse">
<stop stop-color="#60B447"/>
<stop offset="1" stop-color="#BCEA84"/>
</linearGradient>
<clipPath id="clip0_2173_7703">
<rect width="32" height="32" fill="white" transform="translate(0.816895 8.27734)"/>
</clipPath>
</defs>
</svg>
