<svg width="80" height="80" viewBox="0 0 80 80" fill="none" xmlns="http://www.w3.org/2000/svg">
<path opacity="0.3" d="M40.0152 75.9712C59.8985 75.9378 76.0152 73.1045 75.9985 69.6212C75.9985 66.1545 59.8652 63.3545 39.9819 63.3712C20.0985 63.4045 3.99854 66.2545 3.99854 69.7212C3.99854 73.2045 20.1319 76.0045 40.0152 75.9712Z" fill="url(#paint0_radial_2418_7520)"/>
<path d="M28.0483 5.66C20.3783 10.71 12.8283 12.31 8.5783 12.83C6.5483 13.08 5.0083 14.8 5.0083 16.85V35.32C5.0083 47.17 12.2283 57.8 23.2583 62.24L28.6783 64.42C29.1783 64.62 29.6983 64.7 30.2083 64.7H33.6583L37.1583 62.15C48.2083 57.6 55.4083 46.88 55.4083 35.03V16.54C55.4083 14.51 53.8883 12.81 51.8383 12.57C47.5883 12.1 41.4183 9.97 33.7383 5H30.2183C29.4683 5 28.6983 5.22 28.0483 5.65H28.0283L28.0483 5.66Z" fill="url(#paint1_linear_2418_7520)"/>
<path d="M31.5197 5.66002C23.8397 10.71 16.2997 12.31 12.0397 12.83C10.0097 13.08 8.46973 14.8 8.46973 16.85V35.32C8.46973 47.17 15.6897 57.8 26.7197 62.24L32.1397 64.42C33.1197 64.82 34.2397 64.82 35.2197 64.4L40.6397 62.17C51.6897 57.62 58.8897 46.9 58.8897 35.05V16.54C58.8897 14.51 57.3697 12.81 55.3197 12.57C51.0497 12.1 43.5197 10.57 35.8397 5.62002C34.5397 4.79002 32.8197 4.79002 31.5097 5.64002L31.5297 5.66002H31.5197Z" fill="url(#paint2_linear_2418_7520)"/>
<path d="M31.8193 9.79178C25.2193 14.1218 18.7493 15.4918 15.0993 15.9418C13.3493 16.1418 12.0493 17.6218 12.0493 19.3718V35.2218C12.0493 45.3918 18.2293 54.5218 27.7193 58.3218L32.3693 60.1918C33.2193 60.5418 34.1693 60.5218 34.9993 60.1918L39.6493 58.2718C49.1293 54.3518 55.3193 45.1518 55.3193 34.9918V19.1418C55.3193 17.3918 54.0193 15.9218 52.2693 15.7418C48.6193 15.3418 42.1393 14.0218 35.5493 9.77178C34.4293 9.04178 32.9693 9.05178 31.8293 9.79178H31.8093H31.8193Z" fill="url(#paint3_linear_2418_7520)"/>
<path d="M32.5793 20.2412C28.7293 22.7612 24.9593 23.5712 22.8293 23.8212C21.8093 23.9412 21.0493 24.8012 21.0493 25.8212V35.0512C21.0493 40.9812 24.6493 46.3012 30.1793 48.5212L32.8993 49.6012C33.3993 49.8012 33.9493 49.8012 34.4293 49.6012L37.1493 48.4812C42.6693 46.2012 46.2793 40.8312 46.2793 34.9112V25.6813C46.2793 24.6613 45.5293 23.8113 44.4993 23.7013C42.3693 23.4713 38.5993 22.7013 34.7493 20.2212C34.0993 19.8013 33.2293 19.8013 32.5793 20.2212V20.2412Z" fill="url(#paint4_linear_2418_7520)"/>
<path d="M55.7994 38.9883H51.3994V65.5583H55.7994V38.9883Z" fill="url(#paint5_linear_2418_7520)"/>
<path d="M74.1795 49.7623C74.1795 56.1323 59.3695 65.6223 59.3695 65.6223C59.3695 65.6223 60.7095 65.6223 58.3195 65.6223C49.5595 65.6223 42.4595 58.5223 42.4595 49.7623C42.4595 41.0023 49.5595 33.9023 58.3195 33.9023C60.1495 33.9023 59.7295 33.9023 59.7295 33.9023C59.7295 33.9023 74.1795 45.7623 74.1795 49.7623Z" fill="url(#paint6_linear_2418_7520)"/>
<path d="M59.7301 65.6223C68.4894 65.6223 75.5901 58.5216 75.5901 49.7623C75.5901 41.0031 68.4894 33.9023 59.7301 33.9023C50.9709 33.9023 43.8701 41.0031 43.8701 49.7623C43.8701 58.5216 50.9709 65.6223 59.7301 65.6223Z" fill="url(#paint7_radial_2418_7520)"/>
<path d="M55.9712 41C55.2681 40.9944 54.6888 41.5568 54.6832 42.2599C54.6776 42.9629 55.24 43.5366 55.9431 43.5478L58.5527 43.5759C59.9025 43.5872 61.0555 44.4196 61.5392 45.5951L55.9262 45.5332C55.2231 45.5276 54.6438 46.09 54.6382 46.7986C54.6326 47.5017 55.195 48.0754 55.8981 48.0866L61.5167 48.1485C61.0049 49.3127 59.835 50.117 58.4908 50.1001L56.6517 50.0776C55.9374 50.072 55.2906 50.4994 55.0207 51.1574C54.7507 51.8211 54.9082 52.5804 55.4256 53.0753L61.213 58.6433C61.7192 59.1326 62.5291 59.1158 63.0127 58.6096C63.502 58.0978 63.4852 57.2935 62.979 56.8042L58.6539 52.6366C61.3423 52.586 63.592 50.6963 64.1882 48.1653H64.7788C65.4818 48.1766 66.0611 47.6142 66.0667 46.9111C66.0723 46.2081 65.5099 45.6344 64.8069 45.6232H64.2163C64.0588 44.8976 63.772 44.2171 63.3783 43.6209L64.8181 43.6378C65.5268 43.6491 66.1061 43.0754 66.1061 42.3667C66.1061 41.6693 65.5436 41.1013 64.8462 41.0957L55.9712 41Z" fill="white"/>
<defs>
<radialGradient id="paint0_radial_2418_7520" cx="0" cy="0" r="1" gradientUnits="userSpaceOnUse" gradientTransform="translate(39.6106 70.3555) rotate(-0.33) scale(35.7 5.68333)">
<stop stop-color="#848484"/>
<stop offset="1" stop-color="#878787" stop-opacity="0"/>
</radialGradient>
<linearGradient id="paint1_linear_2418_7520" x1="30.2183" y1="65.18" x2="30.2183" y2="27.61" gradientUnits="userSpaceOnUse">
<stop/>
<stop offset="0.5" stop-color="#666666"/>
<stop offset="0.73" stop-color="#777777"/>
<stop offset="0.95" stop-color="#939393"/>
<stop offset="1" stop-color="#989898"/>
</linearGradient>
<linearGradient id="paint2_linear_2418_7520" x1="19.1197" y1="82.63" x2="49.3897" y2="-31.86" gradientUnits="userSpaceOnUse">
<stop stop-color="#939393"/>
<stop offset="0.1" stop-color="#A3A3A3"/>
<stop offset="0.38" stop-color="#CBCBCB"/>
<stop offset="0.62" stop-color="#E7E7E7"/>
<stop offset="0.84" stop-color="#F8F8F8"/>
<stop offset="1" stop-color="white"/>
</linearGradient>
<linearGradient id="paint3_linear_2418_7520" x1="-62.8607" y1="115.782" x2="55.4193" y2="13.2818" gradientUnits="userSpaceOnUse">
<stop stop-color="#939393"/>
<stop offset="0.1" stop-color="#A3A3A3"/>
<stop offset="0.38" stop-color="#CBCBCB"/>
<stop offset="0.62" stop-color="#E7E7E7"/>
<stop offset="0.84" stop-color="#F8F8F8"/>
<stop offset="1" stop-color="white"/>
</linearGradient>
<linearGradient id="paint4_linear_2418_7520" x1="3.58932" y1="92.3712" x2="53.9093" y2="-8.89875" gradientUnits="userSpaceOnUse">
<stop stop-color="#939393"/>
<stop offset="0.1" stop-color="#A3A3A3"/>
<stop offset="0.38" stop-color="#CBCBCB"/>
<stop offset="0.62" stop-color="#E7E7E7"/>
<stop offset="0.84" stop-color="#F8F8F8"/>
<stop offset="1" stop-color="white"/>
</linearGradient>
<linearGradient id="paint5_linear_2418_7520" x1="53.5994" y1="65.4583" x2="53.5994" y2="38.8883" gradientUnits="userSpaceOnUse">
<stop stop-opacity="0"/>
<stop offset="1"/>
</linearGradient>
<linearGradient id="paint6_linear_2418_7520" x1="49.9095" y1="62.0023" x2="79.6695" y2="13.5923" gradientUnits="userSpaceOnUse">
<stop stop-color="#7C47E1"/>
<stop offset="1" stop-color="#D0BDF4"/>
</linearGradient>
<radialGradient id="paint7_radial_2418_7520" cx="0" cy="0" r="1" gradientUnits="userSpaceOnUse" gradientTransform="translate(68.2201 36.4823) scale(50.17 50.17)">
<stop stop-color="#D0BDF4"/>
<stop offset="1" stop-color="#7C47E1"/>
</radialGradient>
</defs>
</svg>
