<svg width="56" height="56" viewBox="0 0 56 56" fill="none" xmlns="http://www.w3.org/2000/svg">
<path d="M18.3685 30.2754H8.6875V49.2874H18.3685V30.2754Z" fill="url(#paint0_linear_894_32582)"/>
<path d="M18.3755 36.3514L8.6875 43.2184V30.2754H18.3755V36.3514Z" fill="url(#paint1_linear_894_32582)"/>
<path d="M47.495 31.5566H18.375V49.2946H47.495V31.5566Z" fill="url(#paint2_linear_894_32582)"/>
<path d="M18.375 45.1226H33.859L47.488 31.5566H18.375V45.1226Z" fill="url(#paint3_linear_894_32582)"/>
<path d="M34.8468 16.6875L34.9588 31.5555H4.63477V30.7015L21.1058 16.6875H34.8468Z" fill="url(#paint4_linear_894_32582)"/>
<path d="M10.9625 47.2012H8.6875V49.1612H10.9625V47.2012Z" fill="#B5B5B5"/>
<path d="M38.0379 49.1602V49.6852V50.2452H4.17188V49.6852V49.1602H38.0379Z" fill="url(#paint5_linear_894_32582)"/>
<path d="M39.4108 50.2461V50.7711V51.3381H2.80078V50.7711V50.2461H39.4108Z" fill="url(#paint6_linear_894_32582)"/>
<path d="M18.375 30.7015L34.846 16.6875L51.548 30.8975V31.5555H18.375V30.7015Z" fill="url(#paint7_linear_894_32582)"/>
<path d="M49.7711 47.2012H47.4961V49.1612H49.7711V47.2012Z" fill="#CDCDCD"/>
<path d="M41.4059 47.2012H39.1309V49.1612H41.4059V47.2012Z" fill="#CDCDCD"/>
<path d="M33.0543 47.2012H30.7793V49.1612H33.0543V47.2012Z" fill="#CDCDCD"/>
<path d="M24.7047 47.2012H22.4297V49.1612H24.7047V47.2012Z" fill="#CDCDCD"/>
<path d="M22.4294 47.2012H19.8184V49.1612H22.4294V47.2012Z" fill="url(#paint8_linear_894_32582)"/>
<path d="M8.68717 47.2012H6.07617V49.1612H8.68717V47.2012Z" fill="url(#paint9_linear_894_32582)"/>
<path d="M30.7809 47.2012H28.1699V49.1612H30.7809V47.2012Z" fill="url(#paint10_linear_894_32582)"/>
<path d="M39.1383 47.2012H36.5273V49.1612H39.1383V47.2012Z" fill="url(#paint11_linear_894_32582)"/>
<path d="M47.5797 47.1797H44.9688V49.1397H47.5797V47.1797Z" fill="url(#paint12_linear_894_32582)"/>
<path d="M49.2539 31.5566H45.6699V47.2016H49.2539V31.5566Z" fill="url(#paint13_linear_894_32582)"/>
<path d="M40.9238 31.5566H37.3398V47.2016H40.9238V31.5566Z" fill="url(#paint14_linear_894_32582)"/>
<path d="M32.5723 31.5566H28.9883V47.2016H32.5723V31.5566Z" fill="url(#paint15_linear_894_32582)"/>
<path d="M24.2207 31.5566H20.6367V47.2016H24.2207V31.5566Z" fill="url(#paint16_linear_894_32582)"/>
<path d="M10.4805 31.5566H6.89648V47.2016H10.4805V31.5566Z" fill="url(#paint17_linear_894_32582)"/>
<path d="M51.7801 49.1602V49.6852V50.2452H17.9141V49.6852V49.1602H51.7801Z" fill="url(#paint18_linear_894_32582)"/>
<path d="M53.153 50.2461V50.7711V51.3381H16.543V50.7711V50.2461H53.153Z" fill="url(#paint19_linear_894_32582)"/>
<g clip-path="url(#clip0_894_32582)">
<path d="M51.0409 6.32565L51.7893 5.57725C52.0124 5.35412 51.8962 4.9683 51.5847 4.90322L48.0798 4.20131C47.8009 4.14553 47.5545 4.3919 47.6103 4.6708L48.3122 8.17572C48.3727 8.48717 48.7585 8.60338 48.9863 8.38025L49.7068 7.65975C51.594 9.83986 51.5057 13.1542 49.4325 15.2228C48.633 16.0223 47.6243 16.5522 46.5272 16.7567C46.0577 16.8451 45.7091 17.2402 45.7231 17.719C45.7417 18.2954 46.2762 18.7137 46.8433 18.6115C48.3215 18.3419 49.6835 17.6306 50.762 16.5522C53.5696 13.7446 53.6533 9.24486 51.0362 6.321H51.0409V6.32565Z" fill="url(#paint20_linear_894_32582)"/>
<path d="M41.2973 14.9224C39.41 12.7422 39.4937 9.42326 41.5669 7.3547C42.3711 6.55052 43.3937 6.01595 44.5 5.81607C44.9695 5.72775 45.3182 5.33263 45.3042 4.85849C45.2856 4.27744 44.7557 3.85443 44.1886 3.9567C42.6965 4.22166 41.3252 4.93752 40.2374 6.0206C37.4298 8.82826 37.3461 13.3326 39.9678 16.2565L39.2194 17.0049C38.9963 17.228 39.1125 17.6138 39.424 17.6789L42.9289 18.3808C43.2078 18.4366 43.4541 18.1902 43.3984 17.9113L42.6965 14.4064C42.636 14.0949 42.2502 13.9787 42.0224 14.2019L41.3066 14.9224H41.3019H41.2973Z" fill="url(#paint21_linear_894_32582)"/>
</g>
<path d="M35.3442 28.5897C36.8288 28.5897 38.0322 27.2107 38.0322 25.5097C38.0322 23.8087 36.8288 22.4297 35.3442 22.4297C33.8597 22.4297 32.6562 23.8087 32.6562 25.5097C32.6562 27.2107 33.8597 28.5897 35.3442 28.5897Z" fill="url(#paint22_linear_894_32582)"/>
<defs>
<linearGradient id="paint0_linear_894_32582" x1="15.0155" y1="28.6654" x2="10.5145" y2="62.3284" gradientUnits="userSpaceOnUse">
<stop stop-color="#666666"/>
<stop offset="1" stop-color="#FAFAFA"/>
</linearGradient>
<linearGradient id="paint1_linear_894_32582" x1="14.1335" y1="27.4054" x2="12.7125" y2="41.3844" gradientUnits="userSpaceOnUse">
<stop stop-color="#4D4D4D"/>
<stop offset="1" stop-color="#4D4D4D" stop-opacity="0"/>
</linearGradient>
<linearGradient id="paint2_linear_894_32582" x1="35.504" y1="35.5466" x2="19.075" y2="66.6546" gradientUnits="userSpaceOnUse">
<stop stop-color="#999999"/>
<stop offset="1" stop-color="#FAFAFA"/>
</linearGradient>
<linearGradient id="paint3_linear_894_32582" x1="33.019" y1="27.5316" x2="32.697" y2="42.1336" gradientUnits="userSpaceOnUse">
<stop stop-color="#616161"/>
<stop offset="1" stop-color="#616161" stop-opacity="0"/>
</linearGradient>
<linearGradient id="paint4_linear_894_32582" x1="-28.5732" y1="23.9745" x2="47.1318" y2="24.2055" gradientUnits="userSpaceOnUse">
<stop stop-color="#F1F1F1"/>
<stop offset="1" stop-color="#9B9B9B"/>
</linearGradient>
<linearGradient id="paint5_linear_894_32582" x1="1.40687" y1="49.7062" x2="35.2729" y2="49.7062" gradientUnits="userSpaceOnUse">
<stop stop-color="#8E8E8E"/>
<stop offset="0.1" stop-color="#9E9E9E"/>
<stop offset="0.38" stop-color="#C6C6C6"/>
<stop offset="0.62" stop-color="#E2E2E2"/>
<stop offset="0.84" stop-color="#F3F3F3"/>
<stop offset="1" stop-color="#FAFAFA"/>
</linearGradient>
<linearGradient id="paint6_linear_894_32582" x1="2.80078" y1="50.7921" x2="39.4108" y2="50.7921" gradientUnits="userSpaceOnUse">
<stop stop-color="#8E8E8E"/>
<stop offset="0.1" stop-color="#9E9E9E"/>
<stop offset="0.38" stop-color="#C6C6C6"/>
<stop offset="0.62" stop-color="#E2E2E2"/>
<stop offset="0.84" stop-color="#F3F3F3"/>
<stop offset="1" stop-color="#FAFAFA"/>
</linearGradient>
<linearGradient id="paint7_linear_894_32582" x1="-8.295" y1="23.9675" x2="48.769" y2="24.2195" gradientUnits="userSpaceOnUse">
<stop stop-color="#9B9B9B"/>
<stop offset="1" stop-color="#F1F1F1"/>
</linearGradient>
<linearGradient id="paint8_linear_894_32582" x1="18.7894" y1="48.1812" x2="27.9314" y2="48.1812" gradientUnits="userSpaceOnUse">
<stop stop-color="#9B9B9B"/>
<stop offset="1" stop-color="#F1F1F1"/>
</linearGradient>
<linearGradient id="paint9_linear_894_32582" x1="5.05417" y1="48.1812" x2="14.1962" y2="48.1812" gradientUnits="userSpaceOnUse">
<stop stop-color="#9B9B9B"/>
<stop offset="1" stop-color="#F1F1F1"/>
</linearGradient>
<linearGradient id="paint10_linear_894_32582" x1="27.1479" y1="48.1812" x2="36.2899" y2="48.1812" gradientUnits="userSpaceOnUse">
<stop stop-color="#9B9B9B"/>
<stop offset="1" stop-color="#F1F1F1"/>
</linearGradient>
<linearGradient id="paint11_linear_894_32582" x1="35.4983" y1="48.1812" x2="44.6403" y2="48.1812" gradientUnits="userSpaceOnUse">
<stop stop-color="#9B9B9B"/>
<stop offset="1" stop-color="#F1F1F1"/>
</linearGradient>
<linearGradient id="paint12_linear_894_32582" x1="43.9398" y1="48.1597" x2="53.0817" y2="48.1597" gradientUnits="userSpaceOnUse">
<stop stop-color="#9B9B9B"/>
<stop offset="1" stop-color="#F1F1F1"/>
</linearGradient>
<linearGradient id="paint13_linear_894_32582" x1="45.7469" y1="39.3756" x2="49.2049" y2="39.3756" gradientUnits="userSpaceOnUse">
<stop stop-color="#C7C7C7"/>
<stop offset="1" stop-color="#F1F1F1"/>
</linearGradient>
<linearGradient id="paint14_linear_894_32582" x1="37.2348" y1="4.90064" x2="40.7488" y2="4.90064" gradientUnits="userSpaceOnUse">
<stop stop-color="#C7C7C7"/>
<stop offset="1" stop-color="#F1F1F1"/>
</linearGradient>
<linearGradient id="paint15_linear_894_32582" x1="29.0233" y1="4.90064" x2="32.9013" y2="4.90064" gradientUnits="userSpaceOnUse">
<stop stop-color="#C7C7C7"/>
<stop offset="1" stop-color="#F1F1F1"/>
</linearGradient>
<linearGradient id="paint16_linear_894_32582" x1="20.5597" y1="4.90064" x2="23.7587" y2="4.90064" gradientUnits="userSpaceOnUse">
<stop stop-color="#C7C7C7"/>
<stop offset="1" stop-color="#F1F1F1"/>
</linearGradient>
<linearGradient id="paint17_linear_894_32582" x1="6.89648" y1="4.90064" x2="10.4805" y2="4.90064" gradientUnits="userSpaceOnUse">
<stop stop-color="#C7C7C7"/>
<stop offset="1" stop-color="#F1F1F1"/>
</linearGradient>
<linearGradient id="paint18_linear_894_32582" x1="2.62606" y1="49.7062" x2="43.9471" y2="49.7062" gradientUnits="userSpaceOnUse">
<stop stop-color="#9B9B9B"/>
<stop offset="1" stop-color="#F1F1F1"/>
</linearGradient>
<linearGradient id="paint19_linear_894_32582" x1="9.50797" y1="51.0231" x2="50.829" y2="50.6451" gradientUnits="userSpaceOnUse">
<stop stop-color="#9B9B9B"/>
<stop offset="1" stop-color="#F1F1F1"/>
</linearGradient>
<linearGradient id="paint20_linear_894_32582" x1="49.3302" y1="18.5371" x2="49.3302" y2="4.72193" gradientUnits="userSpaceOnUse">
<stop stop-color="#A96FFF"/>
<stop offset="1" stop-color="#DCA1FF"/>
</linearGradient>
<linearGradient id="paint21_linear_894_32582" x1="41.6831" y1="18.5295" x2="41.6831" y2="4.70974" gradientUnits="userSpaceOnUse">
<stop stop-color="#A96FFF"/>
<stop offset="1" stop-color="#DCA1FF"/>
</linearGradient>
<linearGradient id="paint22_linear_894_32582" x1="33.5593" y1="23.1927" x2="42.9392" y2="35.3727" gradientUnits="userSpaceOnUse">
<stop stop-color="#FAFAFA"/>
<stop offset="1" stop-color="#D6D6D6"/>
</linearGradient>
<clipPath id="clip0_894_32582">
<rect width="14.875" height="14.875" fill="white" transform="translate(38.0625 3.9375)"/>
</clipPath>
</defs>
</svg>
