<svg width="80" height="80" viewBox="0 0 80 80" fill="none" xmlns="http://www.w3.org/2000/svg">
<path opacity="0.2" d="M42.248 74.502C56.3851 74.502 67.8455 73.1829 67.8455 71.5557C67.8455 69.9285 56.3851 68.6094 42.248 68.6094C28.1108 68.6094 16.6504 69.9285 16.6504 71.5557C16.6504 73.1829 28.1108 74.502 42.248 74.502Z" fill="url(#paint0_radial_2177_7758)"/>
<path d="M49.9918 26.6602L25.9458 26.7046V32.1512H34.1379C36.9696 32.1512 39.4304 33.8857 40.4857 36.3752H25.9693V41.8427H40.4857C39.4539 44.2878 36.9931 46.0432 34.1379 46.0432H27.7692L25.9458 50.7558L42.0635 66.048H46.1047L45.7285 62.093L34.5506 51.4689C40.2167 51.2678 44.8926 47.2005 46.0786 41.8009H50.0101V36.3543H46.0786C45.7494 34.8209 45.1121 33.3972 44.2552 32.1303H50.0101V26.6837L49.9892 26.6602H49.9918Z" fill="url(#paint1_linear_2177_7758)"/>
<path d="M54.0338 26.6602L29.9878 26.7046V32.1512H38.1799C41.0116 32.1512 43.4723 33.8857 44.5277 36.3752H30.0113V41.8427H44.5277C43.4959 44.2878 41.0351 46.0432 38.1799 46.0432H31.8112L29.9878 50.7558L46.1055 66.048L49.7732 62.093L38.5952 51.4689C44.2613 51.2678 48.9372 47.2005 50.1232 41.8009H54.0547V36.3543H50.1232C49.7941 34.8209 49.1567 33.3972 48.2998 32.1303H54.0547V26.6837L54.0338 26.6602Z" fill="#CECECE"/>
<path d="M40.0055 9.5C23.0074 9.5 9.18848 23.3189 9.18848 40.317C9.18848 48.5979 12.4329 56.3642 18.3027 62.1896L20.7791 57.6285C16.6439 53.0388 14.1204 46.9678 14.1204 40.2987C14.1204 26.0043 25.7111 14.4137 40.0055 14.4137C54.2998 14.4137 65.8905 26.0043 65.8905 40.2987C65.8905 46.7954 63.4898 52.7331 59.5348 57.2759L63.2625 60.5203C68.1292 54.9248 70.812 47.7437 70.812 40.317C70.8199 23.3189 57.0009 9.5 40.0055 9.5Z" fill="url(#paint2_linear_2177_7758)"/>
<defs>
<radialGradient id="paint0_radial_2177_7758" cx="0" cy="0" r="1" gradientUnits="userSpaceOnUse" gradientTransform="translate(42.2375 71.558) scale(25.3057 2.98085)">
<stop stop-opacity="0.7"/>
<stop offset="1" stop-color="#414042" stop-opacity="0"/>
</radialGradient>
<linearGradient id="paint1_linear_2177_7758" x1="12.362" y1="24.8655" x2="61.5302" y2="56.2494" gradientUnits="userSpaceOnUse">
<stop stop-color="white"/>
<stop offset="1"/>
</linearGradient>
<linearGradient id="paint2_linear_2177_7758" x1="27.0293" y1="90.8576" x2="28.6896" y2="6.94636" gradientUnits="userSpaceOnUse">
<stop stop-color="#7C47E1"/>
<stop offset="1" stop-color="#D0BDF4"/>
</linearGradient>
</defs>
</svg>
