<svg width="80" height="80" viewBox="0 0 80 80" fill="none" xmlns="http://www.w3.org/2000/svg">
<path d="M55.6197 6H9.92392C7.19352 6 5 9.05252 5 12.8107H14.8325C14.8325 12.8107 14.8325 12.9027 14.8325 12.9487V66.6363C14.8325 67.9401 15.4921 69.1519 16.5812 69.8575L21.1523 72.818C22.4255 73.6463 24.0514 73.6463 25.3246 72.818L29.5736 70.0723C30.8467 69.244 32.4727 69.244 33.7459 70.0723L37.9949 72.818C39.268 73.6463 40.894 73.6463 42.1671 72.818L46.4161 70.0723C47.6893 69.244 49.3153 69.244 50.5884 70.0723L54.8374 72.818C56.1106 73.6463 57.7365 73.6463 59.0097 72.818L63.5808 69.8575C64.6699 69.1519 65.3295 67.9401 65.3295 66.6363V15.5104C65.3295 10.2643 60.9885 6 55.6504 6H55.6197Z" fill="url(#paint0_linear_4274_45)"/>
<path d="M65.851 15.5104V66.6516C65.851 67.9555 65.1914 69.1673 64.1023 69.8729L59.5312 72.8334C58.258 73.6617 56.6321 73.6617 55.3589 72.8334L51.1099 70.0876C49.8368 69.2593 48.2108 69.2593 46.9376 70.0876L42.6887 72.8334C41.4155 73.6617 39.7895 73.6617 38.5164 72.8334L34.2674 70.0876C32.9942 69.2593 31.3682 69.2593 30.0951 70.0876L25.8461 72.8334C24.5729 73.6617 22.947 73.6617 21.6738 72.8334L17.1027 69.8729C16.0136 69.1673 15.354 67.9555 15.354 66.6516V12.964C15.3847 9.11388 13.4979 6 9.58643 6H56.1719C61.51 6 65.851 10.2643 65.851 15.5104Z" fill="url(#paint1_linear_4274_45)"/>
<path d="M10.1847 6.59814H9.66315C7.08615 6.59814 5 9.3899 5 12.8106H14.8478C14.8478 9.3899 12.7617 6.59814 10.1847 6.59814Z" fill="url(#paint2_linear_4274_45)"/>
<path d="M55.1285 18.8236H25.539C24.7414 18.8236 24.0818 18.1794 24.0818 17.3664C24.0818 16.5534 24.726 15.9092 25.539 15.9092H55.1285C55.9262 15.9092 56.5858 16.5534 56.5858 17.3664C56.5858 18.1794 55.9415 18.8236 55.1285 18.8236Z" fill="#C5C5C5"/>
<path d="M55.1285 31.862H25.539C24.7414 31.862 24.0818 31.2177 24.0818 30.4047C24.0818 29.5918 24.726 28.9475 25.539 28.9475H55.1285C55.9262 28.9475 56.5858 29.5918 56.5858 30.4047C56.5858 31.2177 55.9415 31.862 55.1285 31.862Z" fill="#C5C5C5"/>
<path d="M61.6356 62.3793L64.0439 63.3303C65.1483 63.7598 66.4215 63.3303 66.9737 62.3026L68.1855 60.0477C68.4616 59.5261 68.9525 59.1273 69.5047 58.9433L71.959 58.161C73.0941 57.8081 73.7537 56.673 73.5083 55.5379L72.9561 53.0683C72.818 52.5007 72.9561 51.8718 73.2628 51.381L74.6434 49.2335C75.2723 48.2518 75.0575 46.9633 74.0912 46.227L72.051 44.6777C71.5755 44.3249 71.2534 43.788 71.1614 43.1898L70.8085 40.6741C70.6398 39.5084 69.6274 38.6647 68.431 38.7261L65.8386 38.8334C65.225 38.8334 64.6575 38.6494 64.2126 38.2352L62.3106 36.5325C61.4209 35.7502 60.071 35.7502 59.212 36.5325L57.31 38.2352C56.8651 38.6494 56.2669 38.8334 55.684 38.8334L53.0916 38.7261C51.9105 38.6647 50.8828 39.539 50.7141 40.6741L50.3613 43.1898C50.2846 43.788 49.9778 44.2942 49.4716 44.6777L47.4314 46.227C46.4957 46.9326 46.2657 48.2364 46.8792 49.2335L48.2598 51.381C48.5972 51.9025 48.7046 52.4854 48.5666 53.0683L48.0143 55.5379C47.7689 56.673 48.4285 57.8081 49.5636 58.161L52.0179 58.9433C52.6008 59.1273 53.061 59.5108 53.3371 60.0477L54.5489 62.3026C55.1011 63.3303 56.3743 63.7905 57.4787 63.3303L59.887 62.3793C60.4392 62.1645 61.0681 62.1645 61.6203 62.3793H61.651H61.6356Z" fill="url(#paint3_linear_4274_45)"/>
<path d="M34.9299 40.7756H24.3198V43.1977H27.9304C29.1815 43.1977 30.2583 43.9516 30.7334 45.0584H24.3357V47.4645H30.7334C30.2741 48.5553 29.1973 49.3252 27.9463 49.3252H25.1433L24.3357 51.4105L31.446 58.1635L33.0613 56.4151L28.1205 51.7313C30.6225 51.6511 32.6812 49.8385 33.2038 47.4645H34.9457V45.0584H33.2038C33.0454 44.3847 32.7762 43.7431 32.3962 43.1977H34.9299V40.7917V40.7756Z" fill="#BFBFBF"/>
<path d="M59.7028 54.0961C59.5187 54.0194 59.35 53.912 59.2119 53.774L55.9907 50.384C55.4845 49.8471 55.5152 49.0188 56.0674 48.5279C56.6196 48.0371 57.4633 48.0677 57.9695 48.5893L60.1783 50.9209L64.9028 45.7055C65.3937 45.1533 66.2527 45.1073 66.8049 45.5981C67.3571 46.0736 67.4185 46.9173 66.9276 47.4542L61.2214 53.7586C60.976 54.0347 60.6078 54.2035 60.2243 54.2035C60.0403 54.2035 59.8715 54.1728 59.7028 54.1114V54.0961Z" fill="white"/>
<defs>
<linearGradient id="paint0_linear_4274_45" x1="36.2922" y1="118.928" x2="34.8196" y2="-15.8892" gradientUnits="userSpaceOnUse">
<stop stop-color="white"/>
<stop offset="0.68" stop-color="#CECECE"/>
<stop offset="1" stop-color="#818181"/>
</linearGradient>
<linearGradient id="paint1_linear_4274_45" x1="38.0102" y1="6.58289" x2="37.3659" y2="72.3425" gradientUnits="userSpaceOnUse">
<stop stop-color="#EBEBEB"/>
<stop offset="0.11" stop-color="white"/>
<stop offset="1" stop-color="#CCCCCC"/>
</linearGradient>
<linearGradient id="paint2_linear_4274_45" x1="9.92392" y1="12.9946" x2="9.92392" y2="-0.227847" gradientUnits="userSpaceOnUse">
<stop stop-color="#525252"/>
<stop offset="1" stop-color="#A2A2A2"/>
</linearGradient>
<linearGradient id="paint3_linear_4274_45" x1="60.5466" y1="66.5822" x2="60.9147" y2="35.5355" gradientUnits="userSpaceOnUse">
<stop stop-color="#7C47E1"/>
<stop offset="1" stop-color="#D0BDF4"/>
</linearGradient>
</defs>
</svg>
