<svg width="32" height="32" viewBox="0 0 32 32" fill="none" xmlns="http://www.w3.org/2000/svg">
<path d="M24.8901 9.5V13.5385C24.8901 13.8496 24.7449 14.1163 24.4545 14.3C20.8041 16.617 18.0367 17.5889 17.0708 17.8615C15.7375 18.2348 15.0293 18.1963 14.9138 18.1874C12.4782 18.0156 8.37451 14.7711 8.37451 14.7711C8.37451 14.7711 11.7227 15.5622 19.459 11.9978C20.9108 11.3281 22.5286 10.6081 24.4101 9.7637C24.4101 9.7637 24.8219 9.59185 24.8901 9.5Z" fill="#4E29BB"/>
<path d="M24.6767 9.38633C24.7241 9.3567 24.7864 9.31818 24.8071 9.24114C24.8249 9.17299 24.8189 9.0841 24.7775 9.02484C24.7064 8.91225 24.5878 8.83522 24.4545 8.75225C20.8041 6.43522 18.0367 5.4604 17.0708 5.19077C15.7375 4.81744 15.0293 4.85596 14.9138 4.86485C12.4782 5.0367 8.37451 8.28114 8.37451 8.28114C8.37451 8.28114 11.7227 7.49003 19.459 11.0545C19.7078 11.17 19.9627 11.2856 20.2204 11.4041L24.4456 9.50781C24.4456 9.50781 24.5997 9.43373 24.6738 9.38633H24.6767Z" fill="#926FF3"/>
<path d="M12.295 11.5241C12.301 10.6619 12.4106 9.79965 12.615 8.94928L12.6417 8.84262C11.1188 8.49595 9.99579 8.42188 9.32023 8.42188C8.7632 8.42188 8.4669 8.47225 8.36616 8.49299C8.18542 8.5315 8.05505 8.67076 7.96616 8.78928C7.42097 9.48854 7.10986 10.4871 7.10986 11.5241C7.10986 12.5641 7.42097 13.5597 7.96616 14.2589C8.05801 14.3774 8.18542 14.5167 8.36616 14.5552C8.4669 14.5759 8.7632 14.6263 9.32023 14.6263C9.99579 14.6263 11.1188 14.5522 12.6417 14.2056L12.615 14.0989C12.4106 13.2456 12.298 12.3863 12.295 11.5241Z" fill="#B59CF5"/>
<path d="M5.4665 20.3832H7.22354L10.0235 27.0499H8.07095L7.59095 25.8677H5.05465L4.58354 27.0499H2.6665L5.4665 20.3832ZM7.06058 24.4395L6.32872 22.5581L5.58798 24.4395H7.06354H7.06058Z" fill="#2C2067"/>
<path d="M9.58816 23.7378V23.72C9.58816 21.803 11.0637 20.3008 13.0548 20.3008C14.3971 20.3008 15.2622 20.8637 15.843 21.6726L14.4711 22.7334C14.0948 22.2623 13.6622 21.963 13.0341 21.963C12.1126 21.963 11.4667 22.7423 11.4667 23.6993V23.7171C11.4667 24.7037 12.1156 25.4741 13.0341 25.4741C13.7185 25.4741 14.1245 25.1541 14.5185 24.6771L15.8904 25.6549C15.2711 26.5082 14.4356 27.1393 12.9778 27.1393C11.0993 27.1393 9.58816 25.7023 9.58816 23.7378Z" fill="#2C2067"/>
<path d="M16.4621 20.3832H18.2843V23.0884L20.548 20.3832H22.708L20.2191 23.2514L22.7939 27.0499H20.6043L18.951 24.5729L18.2843 25.3255V27.0499H16.4621V20.3832Z" fill="#2C2067"/>
<path d="M22.2515 23.7378V23.72C22.2515 21.8326 23.7744 20.3008 25.8011 20.3008C27.8278 20.3008 29.3329 21.8119 29.3329 23.6993V23.7171C29.3329 25.6045 27.81 27.1363 25.7833 27.1363C23.7566 27.1363 22.2515 25.6252 22.2515 23.7349V23.7378ZM27.4722 23.7378V23.72C27.4722 22.7719 26.7878 21.9452 25.7804 21.9452C24.7729 21.9452 24.1181 22.7541 24.1181 23.7023V23.72C24.1181 24.6682 24.8026 25.4949 25.7981 25.4949C26.7937 25.4949 27.4692 24.686 27.4692 23.7378H27.4722Z" fill="#2C2067"/>
</svg>
