<svg width="120" height="240" viewBox="0 0 120 240" fill="none" xmlns="http://www.w3.org/2000/svg">
<path d="M86.3963 12.8313C86.3031 12.2869 85.7863 11.9212 85.2419 12.0143L76.3709 13.5328C75.8266 13.626 75.4608 14.1428 75.554 14.6872C75.6472 15.2315 76.164 15.5973 76.7084 15.5041L84.5937 14.1544L85.9434 22.0397C86.0366 22.5841 86.5534 22.9498 87.0978 22.8566C87.6422 22.7635 88.0079 22.2466 87.9148 21.7023L86.3963 12.8313ZM49.9107 226.5L50.8372 226.124C34.1579 185.048 31.5573 148.125 38.827 113.392C46.1007 78.6398 63.2692 46.018 86.2269 13.5777L85.4106 13L84.5944 12.4223C61.5521 44.982 44.2206 77.8602 36.8694 112.983C29.514 148.125 32.1634 185.452 48.9842 226.876L49.9107 226.5Z" fill="white"/>
</svg>
