<svg width="80" height="80" viewBox="0 0 80 80" fill="none" xmlns="http://www.w3.org/2000/svg">
<g clip-path="url(#clip0_2594_71798)">
<path d="M16.8164 40.2773C25.6551 40.2773 32.8164 33.116 32.8164 24.2773C32.8164 15.4387 25.6551 8.27734 16.8164 8.27734C7.97774 8.27734 0.816406 15.4387 0.816406 24.2773C0.816406 33.116 7.97774 40.2773 16.8164 40.2773Z" fill="url(#paint0_linear_2594_71798)"/>
<path d="M14.5475 30.4673C14.2775 30.4673 14.0275 30.3573 13.8375 30.1673L9.37746 25.6673C8.98746 25.2773 8.98746 24.6373 9.37746 24.2573C9.76746 23.8773 10.4075 23.8673 10.7875 24.2573L14.4975 27.9973L21.9475 19.5073C22.3075 19.0873 22.9475 19.0473 23.3575 19.4173C23.7775 19.7773 23.8175 20.4173 23.4475 20.8273L15.2875 30.1273C15.1075 30.3373 14.8475 30.4573 14.5675 30.4673C14.5575 30.4673 14.5475 30.4673 14.5375 30.4673H14.5475Z" fill="white"/>
</g>
<path d="M41.4287 70.8248C20.9887 70.8248 4.42871 69.8448 4.42871 68.6448C4.42871 67.4448 20.9887 66.4648 41.4287 66.4648C61.8687 66.4648 78.4287 67.4448 78.4287 68.6448C78.4287 69.8448 61.8687 70.8248 41.4287 70.8248Z" fill="url(#paint1_radial_2594_71798)"/>
<path d="M19.8181 46.736C19.8181 46.736 13.0881 47.986 8.19807 50.096C6.55807 50.806 5.46807 52.456 5.54807 53.296L6.11807 60.456C6.30807 62.446 7.98807 63.966 9.98807 63.966L74.5481 61.926C76.5881 60.786 77.3581 58.626 77.3581 56.306L75.3081 49.966C75.3081 47.756 74.4681 45.646 72.9681 44.026L68.3181 38.876C68.0881 38.626 68.0181 38.266 68.1481 37.936C68.3381 37.456 68.5481 36.796 68.2781 36.646C66.8781 35.896 64.6081 35.946 62.9781 35.946H40.4481C37.5481 35.946 35.7981 35.966 33.6581 37.156C30.4681 38.946 23.9881 42.836 19.7981 46.746H19.8181H19.8081L19.8181 46.736Z" fill="url(#paint2_linear_2594_71798)"/>
<path d="M8.64941 61.8195C8.64941 65.7195 11.0994 68.8595 14.1394 68.8595H17.8394V54.7695H14.1394C11.1194 54.7695 8.64941 57.9295 8.64941 61.8095V61.8195Z" fill="black"/>
<path d="M17.8484 68.8613C14.8284 68.8613 12.3584 65.7013 12.3584 61.8213C12.3584 57.9413 14.8084 54.7812 17.8484 54.7812C20.8884 54.7812 23.3384 57.9413 23.3384 61.8213C23.3384 65.7013 20.8884 68.8613 17.8484 68.8613Z" fill="url(#paint3_linear_2594_71798)"/>
<path d="M25.4678 61.8195C25.4678 65.7195 27.9178 68.8595 30.9578 68.8595H34.6578V54.7695H30.9578C27.9378 54.7695 25.4678 57.9295 25.4678 61.8095V61.8195Z" fill="black"/>
<path d="M60.1396 61.8195C60.1396 65.7195 62.5897 68.8595 65.6297 68.8595H69.3297V54.7695H65.6297C62.6097 54.7695 60.1396 57.9295 60.1396 61.8095V61.8195Z" fill="black"/>
<path d="M19.8196 46.7367C23.9596 42.8467 30.3896 39.0067 33.7196 37.1167C36.0796 35.8567 38.4796 35.9467 41.3696 35.9467H54.0596C52.3296 35.9467 49.0196 35.9867 47.7696 36.8867L39.9496 46.7467C39.9496 46.7467 30.5796 49.0067 25.5396 52.0967C24.6196 52.6567 24.2296 53.3267 24.1896 54.3467L24.7896 62.1367C24.7896 62.1367 24.7196 63.9767 26.7996 63.9767H10.0196C8.01963 63.9767 6.34963 62.4567 6.14963 60.4667C6.14963 60.4667 5.64963 54.3267 5.57963 53.3067C5.50963 52.2967 6.92963 50.5767 8.95963 49.7967C14.0296 47.8667 19.8396 46.7267 19.8396 46.7267H19.8196V46.7367Z" fill="url(#paint4_linear_2594_71798)"/>
<path d="M68.6293 43.5972C68.6293 43.5972 66.1193 39.8872 65.2593 39.0272C64.3893 38.1672 63.0093 37.5572 61.2093 37.3472C57.0393 36.8672 34.8293 36.8672 34.8293 36.8672C34.4793 36.8672 34.1293 36.9272 33.8193 37.0772C30.5693 38.5772 19.8193 46.7272 19.8193 46.7272H55.2893L67.6793 45.7972C68.7793 45.7272 69.3293 44.4472 68.6393 43.5872H68.6293V43.5972Z" fill="black"/>
<path d="M77.3689 52.1967C77.3689 49.2767 75.0689 47.8867 75.0689 47.8867L70.6089 49.1267L42.2889 49.8967C42.2889 49.8967 32.5989 49.9967 25.9889 51.8967C24.9089 52.2167 24.1689 53.2167 24.1689 54.3467L24.7889 62.4467C24.8589 63.3167 25.5889 63.9667 26.4589 63.9667L65.0989 63.4967L74.5589 61.9167C76.5989 60.7767 77.3689 60.4567 77.3689 58.1167V52.1867V52.1967Z" fill="url(#paint5_linear_2594_71798)"/>
<path d="M63.8892 61.0669C63.8892 61.0669 63.5392 63.4369 61.4092 63.5369L61.7092 64.2669L64.0092 63.5069L64.2392 61.1769L63.8792 61.0469H63.8892V61.0669Z" fill="black"/>
<path d="M38.0093 46.7389H19.8193C19.8193 46.7389 29.2293 38.9189 33.8693 37.0689C34.2293 36.8889 34.7193 36.8789 35.1193 36.8789C39.4793 36.8789 43.6693 36.9089 47.6793 36.9489C44.0993 38.7889 40.8093 42.7589 37.9993 46.7389H38.0093Z" fill="url(#paint6_linear_2594_71798)"/>
<path d="M69.3386 68.8613C66.3186 68.8613 63.8486 65.7013 63.8486 61.8213C63.8486 57.9413 66.2986 54.7812 69.3386 54.7812C72.3786 54.7812 74.8286 57.9413 74.8286 61.8213C74.8286 65.7013 72.3786 68.8613 69.3386 68.8613Z" fill="url(#paint7_linear_2594_71798)"/>
<path d="M69.4696 66.2189C67.7296 66.2189 66.3096 64.2389 66.3096 61.7989C66.3096 59.3589 67.7296 57.3789 69.4696 57.3789C71.2096 57.3789 72.6296 59.3589 72.6296 61.7989C72.6296 64.2389 71.2096 66.2189 69.4696 66.2189Z" fill="url(#paint8_linear_2594_71798)"/>
<path d="M69.4779 64.4066C68.4479 64.4066 67.6279 63.2466 67.6279 61.8166C67.6279 60.3866 68.4479 59.2266 69.4779 59.2266C70.5079 59.2266 71.3279 60.3866 71.3279 61.8166C71.3279 63.2466 70.5079 64.4066 69.4779 64.4066Z" fill="url(#paint9_linear_2594_71798)"/>
<path d="M34.6589 68.8613C31.6389 68.8613 29.1689 65.7013 29.1689 61.8213C29.1689 57.9413 31.6189 54.7812 34.6589 54.7812C37.6989 54.7812 40.1489 57.9413 40.1489 61.8213C40.1489 65.7013 37.6989 68.8613 34.6589 68.8613Z" fill="url(#paint10_linear_2594_71798)"/>
<path d="M34.8485 66.2189C33.1085 66.2189 31.6885 64.2389 31.6885 61.7989C31.6885 59.3589 33.1085 57.3789 34.8485 57.3789C36.5885 57.3789 38.0085 59.3589 38.0085 61.7989C38.0085 64.2389 36.5885 66.2189 34.8485 66.2189Z" fill="url(#paint11_linear_2594_71798)"/>
<path d="M34.849 64.4066C33.819 64.4066 32.999 63.2466 32.999 61.8166C32.999 60.3866 33.819 59.2266 34.849 59.2266C35.879 59.2266 36.699 60.3866 36.699 61.8166C36.699 63.2466 35.879 64.4066 34.849 64.4066Z" fill="url(#paint12_linear_2594_71798)"/>
<path d="M27.0492 51.6152C27.0492 51.6152 18.0992 52.0352 12.8192 51.9752C7.53922 51.9152 6.53922 51.2852 6.53922 51.2852C6.53922 51.2852 5.47922 52.2652 5.54922 53.3052L5.61922 54.1252C5.61922 54.1252 6.38922 54.5752 7.82922 54.6652C8.59922 54.7052 9.26922 54.6552 9.72922 54.0452C9.95922 53.7452 10.6592 52.8152 10.6592 52.8152C10.6592 52.8152 13.1392 52.9352 16.5392 52.7752C16.5392 52.7752 17.5392 54.3152 18.3892 54.7252C18.8992 54.9552 22.5292 54.8352 24.2392 54.5652C26.4392 54.2152 27.0392 51.6152 27.0392 51.6152H27.0492Z" fill="#939393"/>
<path d="M53.6491 49.6272L51.0791 49.6672V50.4072C51.0991 50.7572 51.3891 51.0372 51.7491 51.0372L53.0391 51.0172C53.3991 51.0172 53.6791 50.7172 53.6691 50.3572V49.6172H53.6491V49.6272Z" fill="url(#paint13_linear_2594_71798)"/>
<path d="M53.4893 49.6289L51.2393 49.6689V50.0089C51.2393 50.1589 51.3793 50.2789 51.5293 50.2789L53.2393 50.2489C53.3893 50.2489 53.5093 50.1289 53.5093 49.9789V49.6389H53.4893V49.6289Z" fill="url(#paint14_linear_2594_71798)"/>
<path d="M67.4792 49.217L64.9092 49.287L64.9292 50.027C64.9292 50.377 65.2392 50.657 65.5992 50.647L66.8892 50.617C67.2392 50.617 67.5192 50.307 67.5092 49.947L67.4892 49.207H67.4792V49.217Z" fill="url(#paint15_linear_2594_71798)"/>
<path d="M67.3193 49.217L65.0693 49.277V49.617C65.0793 49.767 65.2093 49.887 65.3693 49.877L67.0793 49.837C67.2293 49.837 67.3493 49.707 67.3393 49.547V49.207H67.3193V49.217Z" fill="url(#paint16_linear_2594_71798)"/>
<path d="M41.349 47.5461H45.029C45.719 47.5461 46.299 46.9261 46.299 46.1461C46.299 45.3661 45.739 44.7461 45.029 44.7461H43.849C43.229 44.7461 42.629 45.0061 42.169 45.4661L40.249 47.5361H41.359L41.349 47.5461Z" fill="url(#paint17_linear_2594_71798)"/>
<path d="M19.2487 53.6762C21.7987 53.6762 24.7987 53.4462 24.9387 53.4362C25.1687 53.3962 25.3387 53.1762 25.2987 52.9362C25.2587 52.7062 25.0487 52.5362 24.8087 52.5762C24.7787 52.5762 21.4187 52.8662 18.8687 52.8062C18.6387 52.8062 18.4387 52.9962 18.4287 53.2262C18.4287 53.4562 18.6187 53.6562 18.8487 53.6662H19.2587H19.2487V53.6762Z" fill="url(#paint18_linear_2594_71798)"/>
<path d="M9.1184 53.5287C9.3284 53.5287 9.5184 53.3688 9.5384 53.1488C9.5684 52.9188 9.3984 52.6987 9.1584 52.6687C9.1384 52.6687 7.2084 52.6088 5.9784 51.9688C5.8184 52.1788 5.6484 52.5287 5.6084 52.7587C7.0684 53.5287 8.9684 53.5087 9.0584 53.5187H9.1184V53.5287Z" fill="url(#paint19_linear_2594_71798)"/>
<path d="M36.7382 50.7188H37.3782C37.5882 50.7188 37.7482 50.8887 37.7482 51.0987C37.7482 51.3087 37.5782 51.4787 37.3782 51.4787H36.7382C36.5282 51.4787 36.3682 51.3087 36.3682 51.0987C36.3682 50.8887 36.5382 50.7188 36.7382 50.7188Z" fill="url(#paint20_linear_2594_71798)"/>
<path d="M54.958 63.6366C54.958 63.6366 56.198 63.0466 56.198 60.6666V50.8866C56.198 50.2666 56.118 49.6266 55.938 49.0266L55.268 46.7266" stroke="url(#paint21_linear_2594_71798)" stroke-width="0.2" stroke-miterlimit="10"/>
<path d="M73.7791 45.0166C73.7791 45.0166 66.5591 44.2366 74.3091 47.5766L75.0591 47.8866C75.0591 47.8866 74.5791 46.0266 73.7791 45.0266V45.0166Z" fill="url(#paint22_linear_2594_71798)"/>
<defs>
<linearGradient id="paint0_linear_2594_71798" x1="16.8164" y1="39.966" x2="16.8164" y2="8.428" gradientUnits="userSpaceOnUse">
<stop stop-color="#60B447"/>
<stop offset="1" stop-color="#BCEA84"/>
</linearGradient>
<radialGradient id="paint1_radial_2594_71798" cx="0" cy="0" r="1" gradientUnits="userSpaceOnUse" gradientTransform="translate(44.9287 68.9946) rotate(-180) scale(32 2.78261)">
<stop/>
<stop offset="1" stop-opacity="0"/>
</radialGradient>
<linearGradient id="paint2_linear_2594_71798" x1="29.4081" y1="41.276" x2="42.6681" y2="54.686" gradientUnits="userSpaceOnUse">
<stop stop-color="#F1F2F2"/>
<stop offset="1" stop-color="#E6E7E8"/>
</linearGradient>
<linearGradient id="paint3_linear_2594_71798" x1="17.8484" y1="55.7513" x2="17.8484" y2="69.2813" gradientUnits="userSpaceOnUse">
<stop stop-color="#414042"/>
<stop offset="1"/>
</linearGradient>
<linearGradient id="paint4_linear_2594_71798" x1="29.8096" y1="38.1767" x2="29.8796" y2="64.1467" gradientUnits="userSpaceOnUse">
<stop stop-color="#E8E9EA"/>
<stop offset="0.51" stop-color="white"/>
<stop offset="0.53" stop-color="#F6F6F6"/>
<stop offset="0.61" stop-color="#DCDDDE"/>
<stop offset="0.69" stop-color="#CACBCD"/>
<stop offset="0.78" stop-color="#BFC1C3"/>
<stop offset="0.88" stop-color="#BCBEC0"/>
<stop offset="1" stop-color="#828282"/>
</linearGradient>
<linearGradient id="paint5_linear_2594_71798" x1="50.6489" y1="48.4667" x2="51.0289" y2="63.1567" gradientUnits="userSpaceOnUse">
<stop stop-color="#E6E7E8"/>
<stop offset="0.3" stop-color="#A8A7AA"/>
<stop offset="0.76" stop-color="#BCBEC0"/>
<stop offset="1" stop-color="#828282"/>
</linearGradient>
<linearGradient id="paint6_linear_2594_71798" x1="25.5093" y1="33.2689" x2="44.1493" y2="52.6589" gradientUnits="userSpaceOnUse">
<stop offset="0.14" stop-color="#414042"/>
<stop offset="0.34" stop-color="#6D6E71"/>
<stop offset="1"/>
</linearGradient>
<linearGradient id="paint7_linear_2594_71798" x1="63.8486" y1="61.8313" x2="74.8286" y2="61.8313" gradientUnits="userSpaceOnUse">
<stop stop-color="#414042"/>
<stop offset="1"/>
</linearGradient>
<linearGradient id="paint8_linear_2594_71798" x1="69.4696" y1="56.9489" x2="69.4696" y2="66.4289" gradientUnits="userSpaceOnUse">
<stop stop-color="#606060"/>
<stop offset="1" stop-color="#E6E7E8"/>
</linearGradient>
<linearGradient id="paint9_linear_2594_71798" x1="69.4279" y1="59.2966" x2="69.5879" y2="67.4966" gradientUnits="userSpaceOnUse">
<stop stop-color="#606060"/>
<stop offset="1" stop-color="#E6E7E8"/>
</linearGradient>
<linearGradient id="paint10_linear_2594_71798" x1="29.1789" y1="61.8313" x2="40.1489" y2="61.8313" gradientUnits="userSpaceOnUse">
<stop stop-color="#414042"/>
<stop offset="1"/>
</linearGradient>
<linearGradient id="paint11_linear_2594_71798" x1="38.0285" y1="61.7989" x2="31.6985" y2="61.7989" gradientUnits="userSpaceOnUse">
<stop stop-color="#606060"/>
<stop offset="1" stop-color="#E6E7E8"/>
</linearGradient>
<linearGradient id="paint12_linear_2594_71798" x1="34.799" y1="59.2966" x2="34.969" y2="67.4966" gradientUnits="userSpaceOnUse">
<stop stop-color="#606060"/>
<stop offset="1" stop-color="#E6E7E8"/>
</linearGradient>
<linearGradient id="paint13_linear_2594_71798" x1="52.3691" y1="49.7472" x2="52.3991" y2="51.0272" gradientUnits="userSpaceOnUse">
<stop stop-color="#DDDFE0"/>
<stop offset="1" stop-color="#A7A9AC"/>
</linearGradient>
<linearGradient id="paint14_linear_2594_71798" x1="54.7893" y1="50.0689" x2="51.8893" y2="49.9389" gradientUnits="userSpaceOnUse">
<stop stop-color="#DBDCDD"/>
<stop offset="1" stop-color="#E6E7E8"/>
</linearGradient>
<linearGradient id="paint15_linear_2594_71798" x1="68.5792" y1="49.887" x2="65.9992" y2="49.957" gradientUnits="userSpaceOnUse">
<stop stop-color="#DDDFE0"/>
<stop offset="1" stop-color="#A7A9AC"/>
</linearGradient>
<linearGradient id="paint16_linear_2594_71798" x1="68.7393" y1="49.637" x2="65.8393" y2="49.537" gradientUnits="userSpaceOnUse">
<stop stop-color="#DBDCDD"/>
<stop offset="1" stop-color="#E6E7E8"/>
</linearGradient>
<linearGradient id="paint17_linear_2594_71798" x1="47.179" y1="46.4561" x2="39.599" y2="45.9561" gradientUnits="userSpaceOnUse">
<stop stop-color="#DBDCDD"/>
<stop offset="1" stop-color="#E6E7E8"/>
</linearGradient>
<linearGradient id="paint18_linear_2594_71798" x1="25.3087" y1="53.1262" x2="18.4287" y2="53.1262" gradientUnits="userSpaceOnUse">
<stop stop-color="#939393"/>
<stop offset="0.1" stop-color="#A3A3A3"/>
<stop offset="0.38" stop-color="#CBCBCB"/>
<stop offset="0.62" stop-color="#E7E7E7"/>
<stop offset="0.84" stop-color="#F8F8F8"/>
<stop offset="1" stop-color="white"/>
</linearGradient>
<linearGradient id="paint19_linear_2594_71798" x1="5.6184" y1="51.8688" x2="6.7784" y2="52.4188" gradientUnits="userSpaceOnUse">
<stop stop-color="#606060"/>
<stop offset="1" stop-color="#E6E7E8"/>
</linearGradient>
<linearGradient id="paint20_linear_2594_71798" x1="37.0582" y1="51.5087" x2="37.0582" y2="50.7487" gradientUnits="userSpaceOnUse">
<stop stop-color="#FB7674"/>
<stop offset="0.03" stop-color="#FA7976"/>
<stop offset="0.33" stop-color="#F98989"/>
<stop offset="0.65" stop-color="#F89395"/>
<stop offset="1" stop-color="#F79899"/>
</linearGradient>
<linearGradient id="paint21_linear_2594_71798" x1="55.608" y1="63.7266" x2="55.608" y2="46.6966" gradientUnits="userSpaceOnUse">
<stop stop-color="#606060"/>
<stop offset="1" stop-color="#E6E7E8"/>
</linearGradient>
<linearGradient id="paint22_linear_2594_71798" x1="72.6291" y1="46.8466" x2="73.2391" y2="46.2466" gradientUnits="userSpaceOnUse">
<stop stop-color="#FB7674"/>
<stop offset="0.03" stop-color="#FA7976"/>
<stop offset="0.33" stop-color="#F98989"/>
<stop offset="0.65" stop-color="#F89395"/>
<stop offset="1" stop-color="#F79899"/>
</linearGradient>
<clipPath id="clip0_2594_71798">
<rect width="32" height="32" fill="white" transform="translate(0.816406 8.27734)"/>
</clipPath>
</defs>
</svg>
