<svg width="80" height="80" viewBox="0 0 80 80" fill="none" xmlns="http://www.w3.org/2000/svg">
<path d="M2.25 70.895C2.25 72.084 21.2986 73.0479 44.7962 73.0479C68.2937 73.0479 79.75 72.084 79.75 70.895C79.75 69.706 68.2937 68.7422 44.7962 68.7422C21.2986 68.7422 2.25 69.706 2.25 70.895Z" fill="url(#paint0_radial_2711_24646)"/>
<path d="M19.4718 48.5504C19.4718 48.5504 12.7046 49.808 7.78403 51.9421C6.13693 52.6566 5.03321 54.32 5.11638 55.173L5.69344 62.3935C5.88887 64.3976 7.57344 65.9259 9.58688 65.9259H72.7528C74.8086 64.7755 76.082 62.6037 76.082 60.2479V51.737C76.082 49.1697 75.4082 47.5373 74.7523 46.7614L70.3382 40.6868C68.9236 38.4613 66.4695 37.1133 63.8324 37.1133H39.6939C36.7821 37.1133 33.8918 37.0815 31.1099 38.8789C27.893 40.6811 23.6883 44.6031 19.4718 48.5504Z" fill="url(#paint1_linear_2711_24646)"/>
<path d="M8.22928 63.7494C8.22928 67.6733 10.7011 70.8542 13.7502 70.8542H17.4814V56.6445H13.7502C10.7011 56.6445 8.22928 59.8256 8.22928 63.7494Z" fill="black"/>
<path d="M17.482 70.8541C14.4329 70.8541 11.9611 67.6732 11.9611 63.7493C11.9611 59.8255 14.4329 56.6445 17.482 56.6445C20.5311 56.6445 23.0029 59.8255 23.0029 63.7493C23.0029 67.6732 20.5311 70.8541 17.482 70.8541Z" fill="url(#paint2_linear_2711_24646)"/>
<path d="M25.1502 63.7494C25.1502 67.6733 27.622 70.8542 30.6711 70.8542H34.4023V56.6445H30.6711C27.622 56.6445 25.1502 59.8256 25.1502 63.7494Z" fill="black"/>
<path d="M58.2478 63.7494C58.2478 67.6733 60.7196 70.8542 63.7688 70.8542H67.5V56.6445H63.7688C60.7196 56.6445 58.2478 59.8256 58.2478 63.7494Z" fill="black"/>
<path d="M19.4752 48.5523C23.6497 44.633 27.806 40.758 31.1549 38.846C34.5454 36.833 37.6887 37.1151 40.6005 37.1151H53.3574C51.6141 37.1151 48.8327 37.7017 47.5707 38.6068L39.6974 48.5523C39.6974 48.5523 30.2764 50.8306 25.2031 53.9477C24.2731 54.5191 23.8783 55.1816 23.8427 56.2213L24.4452 64.0798C24.4452 64.0798 24.3755 65.9277 26.4707 65.9277H9.59037C7.57692 65.9277 5.89236 64.3994 5.69692 62.3954C5.69692 62.3954 5.19857 56.1994 5.11986 55.1749C5.04115 54.1504 6.47967 52.4262 8.53124 51.6416C13.6308 49.6917 19.4752 48.5523 19.4752 48.5523Z" fill="url(#paint3_linear_2711_24646)"/>
<path d="M31.2906 38.7913C27.7156 40.5523 19.4754 48.5509 19.4754 48.5509H70.2347C71.4387 48.5509 72.1871 47.2425 71.5766 46.2046L68.6274 41.1906C67.6853 39.5889 65.9659 38.6055 64.1077 38.6055H32.547C32.1369 38.6055 31.6585 38.6102 31.2906 38.7913Z" fill="black"/>
<path d="M76.082 51.7383H42.0677C42.0677 51.7383 32.309 51.8325 25.6742 53.7532C24.5814 54.0696 23.8392 55.0831 23.8392 56.2208L24.4706 64.3928C24.5505 65.2621 25.2796 65.9273 26.1524 65.9273H72.7528C74.8086 64.7769 76.082 62.6051 76.082 60.2492V51.7383Z" fill="url(#paint4_linear_2711_24646)"/>
<path d="M37.7641 48.5509H19.472C19.472 48.5509 27.3951 40.706 31.2251 38.8012C31.5923 38.6186 32.1549 38.6055 32.565 38.6055H47.5674C43.9615 40.4523 40.5972 44.5394 37.7641 48.5509Z" fill="url(#paint5_linear_2711_24646)"/>
<path d="M67.4996 70.8541C64.4505 70.8541 61.9787 67.6732 61.9787 63.7493C61.9787 59.8255 64.4505 56.6445 67.4996 56.6445C70.5487 56.6445 73.0205 59.8255 73.0205 63.7493C73.0205 67.6732 70.5487 70.8541 67.4996 70.8541Z" fill="url(#paint6_linear_2711_24646)"/>
<path d="M67.6943 68.2003C65.9382 68.2003 64.5146 66.2081 64.5146 63.7506C64.5146 61.293 65.9382 59.3008 67.6943 59.3008C69.4504 59.3008 70.874 61.293 70.874 63.7506C70.874 66.2081 69.4504 68.2003 67.6943 68.2003Z" fill="url(#paint7_linear_2711_24646)"/>
<path d="M67.6962 66.3588C66.6665 66.3588 65.8318 65.1907 65.8318 63.7497C65.8318 62.3088 66.6665 61.1406 67.6962 61.1406C68.7258 61.1406 69.5605 62.3088 69.5605 63.7497C69.5605 65.1907 68.7258 66.3588 67.6962 66.3588Z" fill="url(#paint8_linear_2711_24646)"/>
<path d="M34.4019 70.8541C31.3528 70.8541 28.881 67.6732 28.881 63.7493C28.881 59.8255 31.3528 56.6445 34.4019 56.6445C37.4511 56.6445 39.9229 59.8255 39.9229 63.7493C39.9229 67.6732 37.4511 70.8541 34.4019 70.8541Z" fill="url(#paint9_linear_2711_24646)"/>
<path d="M34.5986 68.2003C32.8425 68.2003 31.4189 66.2081 31.4189 63.7506C31.4189 61.293 32.8425 59.3008 34.5986 59.3008C36.3547 59.3008 37.7783 61.293 37.7783 63.7506C37.7783 66.2081 36.3547 68.2003 34.5986 68.2003Z" fill="url(#paint10_linear_2711_24646)"/>
<path d="M34.5985 66.3588C33.5688 66.3588 32.7341 65.1907 32.7341 63.7497C32.7341 62.3088 33.5688 61.1406 34.5985 61.1406C35.6282 61.1406 36.4629 62.3088 36.4629 63.7497C36.4629 65.1907 35.6282 66.3588 34.5985 66.3588Z" fill="url(#paint11_linear_2711_24646)"/>
<path d="M26.7471 53.4637C26.7471 53.4637 17.7372 53.8868 12.4357 53.8266C7.13413 53.7664 6.11971 53.1328 6.11971 53.1328C6.11971 53.1328 5.06126 54.1198 5.11779 55.1729L5.19115 56.0016C5.19115 56.0016 5.96307 56.4599 7.4134 56.5399C8.19169 56.5829 8.85794 56.5271 9.33376 55.9098C9.5632 55.6121 10.2739 54.6768 10.2739 54.6768C10.2739 54.6768 12.7795 54.7946 16.1788 54.6371C16.1788 54.6371 17.1912 56.199 18.0491 56.6012C18.5578 56.8396 22.2224 56.7088 23.9275 56.4363C26.1421 56.0822 26.7471 53.4637 26.7471 53.4637Z" fill="#929292"/>
<path d="M53.9932 51.7383H51.4069V52.4857C51.4069 52.842 51.6962 53.1313 52.0525 53.1313H53.3475C53.7039 53.1313 53.9932 52.842 53.9932 52.4857V51.7383Z" fill="url(#paint12_linear_2711_24646)"/>
<path d="M53.835 51.7383H51.5661V52.081C51.5661 52.2311 51.6878 52.3528 51.8379 52.3528H53.5632C53.7132 52.3528 53.835 52.2311 53.835 52.081V51.7383Z" fill="url(#paint13_linear_2711_24646)"/>
<path d="M66.9268 51.7383H64.3405V52.4857C64.3405 52.842 64.6298 53.1313 64.9861 53.1313H66.2811C66.6375 53.1313 66.9268 52.842 66.9268 52.4857V51.7383Z" fill="url(#paint14_linear_2711_24646)"/>
<path d="M66.7676 51.7383H64.4987V52.081C64.4987 52.2311 64.6205 52.3528 64.7705 52.3528H66.4958C66.6458 52.3528 66.7676 52.2311 66.7676 52.081V51.7383Z" fill="url(#paint15_linear_2711_24646)"/>
<path d="M39.6951 49.6617H43.3294C44.0169 49.6617 44.5742 49.1043 44.5742 48.4168C44.5742 47.7292 44.0169 47.1719 43.3294 47.1719H42.1575C41.5447 47.1719 40.9539 47.4005 40.5008 47.8133L39.6951 48.5471V49.6617Z" fill="url(#paint16_linear_2711_24646)"/>
<path d="M18.8951 55.5399C21.4587 55.5399 24.4756 55.3115 24.6123 55.2899C24.8493 55.2528 25.0115 55.0304 24.9741 54.793C24.937 54.5561 24.7182 54.3938 24.4772 54.4311C24.4429 54.4365 21.0567 54.7222 18.5003 54.6661C18.2699 54.6655 18.0614 54.851 18.0562 55.0913C18.0511 55.3313 18.2412 55.5302 18.4813 55.5354C18.6173 55.5384 18.7556 55.5399 18.8951 55.5399Z" fill="url(#paint17_linear_2711_24646)"/>
<path d="M8.70177 55.4011C8.91828 55.4011 9.10547 55.2396 9.13245 55.0193C9.16177 54.7811 8.9922 54.5642 8.75406 54.535C8.736 54.5329 6.79369 54.465 5.55228 53.832C5.3904 54.0464 5.22262 54.4034 5.17992 54.6296C6.65366 55.4035 8.56687 55.3879 8.64882 55.3979C8.66643 55.4 8.68416 55.4011 8.70177 55.4011Z" fill="url(#paint18_linear_2711_24646)"/>
<path d="M60.1907 30.7904C58.4567 29.7508 51.9862 36.893 51.785 37.1152H48.5081L49.0177 34.931C49.0177 34.931 51.7667 26.8385 58.1441 27.4686C64.5213 28.0986 62.0032 35.0136 55.8273 37.1151H51.805C57.7275 35.1795 61.2132 31.4035 60.1907 30.7904Z" fill="url(#paint19_linear_2711_24646)"/>
<path d="M41.4732 26.8422C46.9585 24.6048 49.5889 37.1124 49.5889 37.1124H44.8302C44.8302 37.1124 42.5358 35.3673 40.9269 33.3848C39.3182 31.4023 38.7306 27.9609 41.4732 26.8422ZM48.5089 37.1124C48.5089 37.1124 42.7342 27.206 41.4682 28.0306C40.7017 28.5297 48.5089 37.1124 48.5089 37.1124Z" fill="url(#paint20_linear_2711_24646)"/>
<path d="M51.286 37.1178C51.286 37.1178 52.1805 36.0292 51.9491 34.9385C51.7176 33.8478 49.8589 33.9506 48.78 34.2266C49.0603 35.1855 49.3305 36.1643 49.5833 37.1178H51.286Z" fill="url(#paint21_linear_2711_24646)"/>
<path d="M55.7402 65.9277H59.3496V55.5835C59.3496 52.8783 59.0684 50.1804 58.5107 47.5333L56.3124 37.1016H52.703L55.2528 49.2013C55.5769 50.7393 55.7402 52.3069 55.7402 53.8787V65.9277Z" fill="url(#paint22_linear_2711_24646)"/>
<g clip-path="url(#clip0_2711_24646)">
<path d="M21 40C29.8366 40 37 32.8366 37 24C37 15.1634 29.8366 8 21 8C12.1634 8 5 15.1634 5 24C5 32.8366 12.1634 40 21 40Z" fill="url(#paint23_linear_2711_24646)"/>
<path d="M25.4996 29.5003C25.2396 29.5003 24.9896 29.4003 24.7896 29.2103L15.7896 20.2103C15.3996 19.8203 15.3996 19.1903 15.7896 18.8003C16.1796 18.4103 16.8096 18.4103 17.1996 18.8003L26.1996 27.8003C26.5896 28.1903 26.5896 28.8203 26.1996 29.2103C25.9996 29.4103 25.7496 29.5003 25.4896 29.5003H25.4996Z" fill="white"/>
<path d="M16.4996 29.5003C16.2396 29.5003 15.9896 29.4003 15.7896 29.2103C15.3996 28.8203 15.3996 28.1903 15.7896 27.8003L24.7896 18.8003C25.1796 18.4103 25.8096 18.4103 26.1996 18.8003C26.5896 19.1903 26.5896 19.8203 26.1996 20.2103L17.1996 29.2103C16.9996 29.4103 16.7496 29.5003 16.4896 29.5003H16.4996Z" fill="white"/>
</g>
<defs>
<radialGradient id="paint0_radial_2711_24646" cx="0" cy="0" r="1" gradientUnits="userSpaceOnUse" gradientTransform="translate(41.0014 70.8762) rotate(180) scale(38.3544 1.98469)">
<stop/>
<stop offset="1" stop-color="#414042" stop-opacity="0"/>
</radialGradient>
<linearGradient id="paint1_linear_2711_24646" x1="29.1363" y1="43.0765" x2="42.5672" y2="56.632" gradientUnits="userSpaceOnUse">
<stop stop-color="#F0F1F1"/>
<stop offset="1" stop-color="#E5E6E7"/>
</linearGradient>
<linearGradient id="paint2_linear_2711_24646" x1="17.482" y1="57.6366" x2="17.482" y2="71.273" gradientUnits="userSpaceOnUse">
<stop stop-color="#414042"/>
<stop offset="1"/>
</linearGradient>
<linearGradient id="paint3_linear_2711_24646" x1="29.219" y1="39.3948" x2="29.2906" y2="66.1134" gradientUnits="userSpaceOnUse">
<stop stop-color="#E7E8E9"/>
<stop offset="0.5074" stop-color="white"/>
<stop offset="0.5327" stop-color="#F5F5F5"/>
<stop offset="0.6118" stop-color="#DBDCDD"/>
<stop offset="0.6937" stop-color="#C9CACC"/>
<stop offset="0.7795" stop-color="#BEC0C2"/>
<stop offset="0.8755" stop-color="#BBBDBF"/>
<stop offset="1" stop-color="#818181"/>
</linearGradient>
<linearGradient id="paint4_linear_2711_24646" x1="49.8968" y1="51.4802" x2="50.2624" y2="65.8129" gradientUnits="userSpaceOnUse">
<stop stop-color="#E5E6E7"/>
<stop offset="0.297" stop-color="#A7A6A9"/>
<stop offset="0.7588" stop-color="#BBBDBF"/>
<stop offset="0.9982" stop-color="#818181"/>
</linearGradient>
<linearGradient id="paint5_linear_2711_24646" x1="25.192" y1="34.9399" x2="44.0092" y2="54.4578" gradientUnits="userSpaceOnUse">
<stop offset="0.1404" stop-color="#414042"/>
<stop offset="0.3375" stop-color="#6D6E71"/>
<stop offset="1"/>
</linearGradient>
<linearGradient id="paint6_linear_2711_24646" x1="67.4996" y1="23.5317" x2="67.4996" y2="23.5317" gradientUnits="userSpaceOnUse">
<stop stop-color="#414042"/>
<stop offset="1"/>
</linearGradient>
<linearGradient id="paint7_linear_2711_24646" x1="66.5597" y1="59.4309" x2="68.5927" y2="67.17" gradientUnits="userSpaceOnUse">
<stop stop-color="#606060"/>
<stop offset="1" stop-color="#E5E6E7"/>
</linearGradient>
<linearGradient id="paint8_linear_2711_24646" x1="67.0309" y1="61.2169" x2="68.2229" y2="65.7547" gradientUnits="userSpaceOnUse">
<stop stop-color="#606060"/>
<stop offset="1" stop-color="#E5E6E7"/>
</linearGradient>
<linearGradient id="paint9_linear_2711_24646" x1="34.4019" y1="23.5317" x2="34.4019" y2="23.5317" gradientUnits="userSpaceOnUse">
<stop stop-color="#414042"/>
<stop offset="1"/>
</linearGradient>
<linearGradient id="paint10_linear_2711_24646" x1="33.464" y1="59.4309" x2="35.4969" y2="67.17" gradientUnits="userSpaceOnUse">
<stop stop-color="#606060"/>
<stop offset="1" stop-color="#E5E6E7"/>
</linearGradient>
<linearGradient id="paint11_linear_2711_24646" x1="33.9331" y1="61.2169" x2="35.1252" y2="65.7547" gradientUnits="userSpaceOnUse">
<stop stop-color="#606060"/>
<stop offset="1" stop-color="#E5E6E7"/>
</linearGradient>
<linearGradient id="paint12_linear_2711_24646" x1="52.7" y1="53.1791" x2="52.7" y2="51.922" gradientUnits="userSpaceOnUse">
<stop stop-color="#DCDEDF"/>
<stop offset="1" stop-color="#A6A8AB"/>
</linearGradient>
<linearGradient id="paint13_linear_2711_24646" x1="52.7005" y1="51.2269" x2="52.7005" y2="52.1974" gradientUnits="userSpaceOnUse">
<stop stop-color="#F0F1F1"/>
<stop offset="1" stop-color="#E5E6E7"/>
</linearGradient>
<linearGradient id="paint14_linear_2711_24646" x1="65.6336" y1="53.1791" x2="65.6336" y2="51.922" gradientUnits="userSpaceOnUse">
<stop stop-color="#DCDEDF"/>
<stop offset="1" stop-color="#A6A8AB"/>
</linearGradient>
<linearGradient id="paint15_linear_2711_24646" x1="65.6332" y1="51.2269" x2="65.6332" y2="52.1974" gradientUnits="userSpaceOnUse">
<stop stop-color="#F0F1F1"/>
<stop offset="1" stop-color="#E5E6E7"/>
</linearGradient>
<linearGradient id="paint16_linear_2711_24646" x1="45.2961" y1="48.6596" x2="39.0992" y2="48.2598" gradientUnits="userSpaceOnUse">
<stop stop-color="#F0F1F1"/>
<stop offset="1" stop-color="#E5E6E7"/>
</linearGradient>
<linearGradient id="paint17_linear_2711_24646" x1="24.9795" y1="54.9829" x2="18.0561" y2="54.9829" gradientUnits="userSpaceOnUse">
<stop offset="0.003" stop-color="#929292"/>
<stop offset="0.1097" stop-color="#A3A3A3"/>
<stop offset="0.3793" stop-color="#CBCBCB"/>
<stop offset="0.6267" stop-color="#E7E7E7"/>
<stop offset="0.8416" stop-color="#F8F8F8"/>
<stop offset="1" stop-color="white"/>
</linearGradient>
<linearGradient id="paint18_linear_2711_24646" x1="5.18594" y1="53.7198" x2="6.34106" y2="54.2723" gradientUnits="userSpaceOnUse">
<stop stop-color="#606060"/>
<stop offset="1" stop-color="#E5E6E7"/>
</linearGradient>
<linearGradient id="paint19_linear_2711_24646" x1="49.5372" y1="38.8303" x2="63.0521" y2="25.0778" gradientUnits="userSpaceOnUse">
<stop stop-color="#AA6FFF"/>
<stop offset="0.2574" stop-color="#B075FF"/>
<stop offset="0.6065" stop-color="#C186FF"/>
<stop offset="0.997" stop-color="#DDA2FF"/>
</linearGradient>
<linearGradient id="paint20_linear_2711_24646" x1="37.3904" y1="36.6607" x2="48.7718" y2="30.0858" gradientUnits="userSpaceOnUse">
<stop stop-color="#AA6FFF"/>
<stop offset="0.2574" stop-color="#B075FF"/>
<stop offset="0.6065" stop-color="#C186FF"/>
<stop offset="0.997" stop-color="#DDA2FF"/>
</linearGradient>
<linearGradient id="paint21_linear_2711_24646" x1="49.6878" y1="39.2564" x2="50.6163" y2="33.3747" gradientUnits="userSpaceOnUse">
<stop stop-color="#AA6FFF"/>
<stop offset="0.2574" stop-color="#B075FF"/>
<stop offset="0.6065" stop-color="#C186FF"/>
<stop offset="0.997" stop-color="#DDA2FF"/>
</linearGradient>
<linearGradient id="paint22_linear_2711_24646" x1="56.0264" y1="66.0722" x2="56.0264" y2="49.193" gradientUnits="userSpaceOnUse">
<stop offset="0.0006" stop-color="#AA6FFF"/>
<stop offset="0.2579" stop-color="#B075FF"/>
<stop offset="0.6068" stop-color="#C186FF"/>
<stop offset="0.997" stop-color="#DDA2FF"/>
</linearGradient>
<linearGradient id="paint23_linear_2711_24646" x1="21" y1="8.25" x2="21" y2="39.26" gradientUnits="userSpaceOnUse">
<stop stop-color="#FFA1A5"/>
<stop offset="1" stop-color="#FB7B7A"/>
</linearGradient>
<clipPath id="clip0_2711_24646">
<rect width="32" height="32" fill="white" transform="translate(5 8)"/>
</clipPath>
</defs>
</svg>
