<svg width="24" height="24" viewBox="0 0 24 24" fill="none" xmlns="http://www.w3.org/2000/svg">
<path d="M18.9999 6.66667H15.9999L15.3239 4.86533C15.1293 4.34533 14.6319 4 14.0759 4H9.92392C9.36792 4 8.87058 4.34533 8.67592 4.86533L7.99992 6.66667H4.99992C3.52659 6.66667 2.33325 7.86 2.33325 9.33333V18C2.33325 19.4733 3.52659 20.6667 4.99992 20.6667H18.9999C20.4733 20.6667 21.6666 19.4733 21.6666 18V9.33333C21.6666 7.86 20.4733 6.66667 18.9999 6.66667Z" stroke="#141414" stroke-width="1.5" stroke-linecap="round" stroke-linejoin="round"/>
<path d="M11.9999 17.3333C14.025 17.3333 15.6666 15.6917 15.6666 13.6667C15.6666 11.6416 14.025 10 11.9999 10C9.97487 10 8.33325 11.6416 8.33325 13.6667C8.33325 15.6917 9.97487 17.3333 11.9999 17.3333Z" stroke="#141414" stroke-width="1.5" stroke-linecap="round" stroke-linejoin="round"/>
<path d="M5.6665 11C6.21879 11 6.6665 10.5523 6.6665 10C6.6665 9.44772 6.21879 9 5.6665 9C5.11422 9 4.6665 9.44772 4.6665 10C4.6665 10.5523 5.11422 11 5.6665 11Z" fill="#141414"/>
</svg>
