<svg width="280" height="80" viewBox="0 0 280 80" fill="none" xmlns="http://www.w3.org/2000/svg">
<path d="M139 59.4248C153.956 59.4248 168.007 60.1553 178.58 61.4806C194.31 63.4515 194.767 65.7621 194.767 66.017C194.767 66.2718 194.31 68.5825 178.58 70.5534C168.007 71.8786 153.956 72.6092 139 72.6092C124.044 72.6092 109.993 71.8786 99.4196 70.5534C83.69 68.5825 83.2331 66.2718 83.2331 66.017C83.2331 65.7621 83.69 63.4515 99.4196 61.4806C109.993 60.1553 124.044 59.4248 139 59.4248ZM139 59C108.072 59 83 62.1432 83 66C83 69.8568 108.072 73 139 73C169.928 73 195 69.8568 195 66C195 62.1432 169.928 59 139 59Z" fill="#B8B8B8"/>
<path d="M169.638 22.4908C169.638 28.6436 155.333 37.8098 155.333 37.8098C155.333 37.8098 156.627 37.8098 154.319 37.8098C145.858 37.8098 139 30.952 139 22.4908C139 14.0297 145.858 7.17188 154.319 7.17188C156.087 7.17188 155.681 7.17188 155.681 7.17188C155.681 7.17188 169.638 18.6273 169.638 22.4908Z" fill="url(#paint0_linear_2520_28475)"/>
<path d="M155.681 37.8098C164.142 37.8098 171 30.9513 171 22.4908C171 14.0304 164.142 7.17188 155.681 7.17188C147.221 7.17188 140.362 14.0304 140.362 22.4908C140.362 30.9513 147.221 37.8098 155.681 37.8098Z" fill="url(#paint1_radial_2520_28475)"/>
<path d="M153.043 28.3817L146.452 22.6758C146.215 22.47 146.215 22.152 146.452 21.9462L148.261 20.3934C148.498 20.1876 148.864 20.1876 149.101 20.3934L153.474 24.1724L162.261 16.5957C162.498 16.39 162.864 16.39 163.101 16.5957L164.911 18.1485C165.147 18.3543 165.147 18.6723 164.911 18.8781L153.904 28.3817C153.667 28.5874 153.301 28.5874 153.064 28.3817H153.043Z" fill="#8C6FD1"/>
<path d="M152.559 28.3817L146.439 22.6758C146.219 22.47 146.219 22.152 146.439 21.9462L148.119 20.3934C148.339 20.1876 148.679 20.1876 148.899 20.3934L152.959 24.1724L161.119 16.5957C161.339 16.39 161.679 16.39 161.899 16.5957L163.579 18.1485C163.799 18.3543 163.799 18.6723 163.579 18.8781L153.359 28.3817C153.139 28.5874 152.799 28.5874 152.579 28.3817H152.559Z" fill="white"/>
<path d="M141 68.4584C167.505 68.4584 189 67.2337 189 65.7155C189 64.1974 167.505 62.9727 141 62.9727C114.495 62.9727 93 64.1974 93 65.7155C93 67.2337 114.495 68.4584 141 68.4584Z" fill="url(#paint2_radial_2520_28475)"/>
<path d="M163.66 41.2735C163.66 41.2735 171.085 42.649 176.47 44.9804C178.277 45.7614 179.478 47.5799 179.396 48.5124L178.767 56.404C178.557 58.5955 176.704 60.2741 174.5 60.2741L103.313 58.0243C101.063 56.7654 100.212 54.3874 100.212 51.8229L102.473 44.8289C102.473 42.3926 103.394 40.0612 105.049 38.2778L110.178 32.6009C110.435 32.3211 110.505 31.9248 110.365 31.5635C110.155 31.0389 109.922 30.3045 110.225 30.1413C111.764 29.3137 114.27 29.372 116.065 29.372H140.906C144.1 29.372 146.035 29.3953 148.389 30.7009C151.91 32.6708 156.6 39.5708 163.671 41.2735H163.648H163.66Z" fill="url(#paint3_linear_2520_28475)"/>
<path d="M175.981 57.9079C175.981 62.2092 173.277 65.6713 169.931 65.6713H165.852V50.1328H169.931C173.265 50.1328 175.981 53.6182 175.981 57.8962V57.9079Z" fill="black"/>
<path d="M165.84 65.6713C169.174 65.6713 171.89 62.186 171.89 57.9079C171.89 53.6299 169.185 50.1445 165.84 50.1445C162.494 50.1445 159.79 53.6299 159.79 57.9079C159.79 62.186 162.494 65.6713 165.84 65.6713Z" fill="url(#paint4_linear_2520_28475)"/>
<path d="M157.435 57.9079C157.435 62.2092 154.731 65.6713 151.386 65.6713H147.306V50.1328H151.386C154.719 50.1328 157.435 53.6182 157.435 57.8962V57.9079Z" fill="black"/>
<path d="M119.201 57.9079C119.201 62.2092 116.497 65.6713 113.151 65.6713H109.071V50.1328H113.151C116.485 50.1328 119.201 53.6182 119.201 57.8962V57.9079Z" fill="black"/>
<path d="M163.66 41.274C156 38.3711 152.003 32.7529 148.331 30.6663C145.731 29.2791 143.085 29.3724 139.891 29.3724H125.903C127.815 29.3724 131.464 29.419 132.839 30.4099L141.465 41.2856C141.465 41.2856 151.793 43.7802 157.353 47.1839C158.367 47.8017 158.799 48.5361 158.845 49.6668L158.181 58.2579C158.181 58.2579 158.263 60.2861 155.966 60.2861H174.465C176.669 60.2861 178.51 58.6076 178.732 56.4161C178.732 56.4161 179.28 49.6435 179.361 48.5245C179.443 47.4054 177.869 45.517 175.631 44.6544C170.036 42.5212 163.636 41.274 163.636 41.274H163.648H163.66Z" fill="url(#paint5_linear_2520_28475)"/>
<path d="M109.84 37.8121C109.84 37.8121 112.603 33.7206 113.558 32.7764C114.514 31.8322 116.041 31.1561 118.023 30.923C122.616 30.3984 147.107 30.3984 147.107 30.3984C147.491 30.3984 147.876 30.4684 148.226 30.6316C151.804 32.2868 163.659 41.2742 163.659 41.2742H124.551L110.889 40.2484C109.677 40.1668 109.071 38.7563 109.828 37.8121H109.84Z" fill="black"/>
<path d="M100.2 47.2989C100.2 44.0817 102.741 42.543 102.741 42.543L107.661 43.9068L138.889 44.7578C138.889 44.7578 149.578 44.8627 156.864 46.9609C158.053 47.3106 158.869 48.418 158.869 49.6653L158.181 58.5943C158.099 59.5502 157.295 60.2729 156.339 60.2729L113.734 59.76L103.301 58.0232C101.051 56.7642 100.2 56.4145 100.2 53.8384V47.2989Z" fill="url(#paint6_linear_2520_28475)"/>
<path d="M115.062 57.082C115.062 57.082 115.447 59.6931 117.802 59.8097L117.475 60.614L114.934 59.7747L114.678 57.2102L115.074 57.0703L115.062 57.082Z" fill="black"/>
<path d="M143.61 41.2742H163.66C163.66 41.2742 153.285 32.6482 148.168 30.6083C147.772 30.4101 147.236 30.3984 146.793 30.3984C141.99 30.3984 137.362 30.4334 132.944 30.48C136.896 32.5083 140.521 36.8913 143.622 41.2742H143.61Z" fill="url(#paint7_linear_2520_28475)"/>
<path d="M109.06 65.6713C112.393 65.6713 115.109 62.186 115.109 57.9079C115.109 53.6299 112.405 50.1445 109.06 50.1445C105.714 50.1445 103.01 53.6299 103.01 57.9079C103.01 62.186 105.714 65.6713 109.06 65.6713Z" fill="url(#paint8_linear_2520_28475)"/>
<path d="M108.92 62.7529C110.843 62.7529 112.405 60.5731 112.405 57.8803C112.405 55.1876 110.843 53.0078 108.92 53.0078C106.997 53.0078 105.435 55.1876 105.435 57.8803C105.435 60.5731 106.997 62.7529 108.92 62.7529Z" fill="url(#paint9_linear_2520_28475)"/>
<path d="M108.908 60.7665C110.039 60.7665 110.948 59.4843 110.948 57.9106C110.948 56.3369 110.039 55.0547 108.908 55.0547C107.777 55.0547 106.868 56.3369 106.868 57.9106C106.868 59.4843 107.777 60.7665 108.908 60.7665Z" fill="url(#paint10_linear_2520_28475)"/>
<path d="M147.294 65.6713C150.628 65.6713 153.344 62.186 153.344 57.9079C153.344 53.6299 150.639 50.1445 147.294 50.1445C143.949 50.1445 141.244 53.6299 141.244 57.9079C141.244 62.186 143.949 65.6713 147.294 65.6713Z" fill="url(#paint11_linear_2520_28475)"/>
<path d="M147.084 62.7529C149.007 62.7529 150.569 60.5731 150.569 57.8803C150.569 55.1876 149.007 53.0078 147.084 53.0078C145.161 53.0078 143.599 55.1876 143.599 57.8803C143.599 60.5731 145.161 62.7529 147.084 62.7529Z" fill="url(#paint12_linear_2520_28475)"/>
<path d="M147.085 60.7665C148.216 60.7665 149.125 59.4843 149.125 57.9106C149.125 56.3369 148.216 55.0547 147.085 55.0547C145.954 55.0547 145.045 56.3369 145.045 57.9106C145.045 59.4843 145.954 60.7665 147.085 60.7665Z" fill="url(#paint13_linear_2520_28475)"/>
<path d="M155.687 46.6582C155.687 46.6582 165.56 47.1245 171.377 47.0546C177.193 46.9846 178.301 46.2969 178.301 46.2969C178.301 46.2969 179.466 47.381 179.396 48.5233L179.315 49.4325C179.315 49.4325 178.464 49.9338 176.879 50.027C176.028 50.0737 175.293 50.0154 174.78 49.3393C174.524 49.0129 173.755 47.9871 173.755 47.9871C173.755 47.9871 171.015 48.1153 167.273 47.9405C167.273 47.9405 166.166 49.6424 165.233 50.0853C164.674 50.3418 160.664 50.2019 158.787 49.9105C156.363 49.5258 155.698 46.6582 155.698 46.6582H155.687Z" fill="#939393"/>
<path d="M126.359 44.4688L129.191 44.5154V45.3314C129.168 45.716 128.853 46.0308 128.457 46.0308L127.035 46.0074C126.638 46.0074 126.324 45.6811 126.335 45.2847V44.4688H126.359Z" fill="url(#paint14_linear_2520_28475)"/>
<path d="M126.533 44.4688L129.016 44.5154V44.8884C129.016 45.0516 128.864 45.1915 128.701 45.1915L126.813 45.1565C126.65 45.1565 126.51 45.0283 126.51 44.8534V44.4804H126.533V44.4688Z" fill="url(#paint15_linear_2520_28475)"/>
<path d="M111.11 44.0117L113.943 44.0933L113.92 44.9093C113.92 45.294 113.582 45.6087 113.185 45.597L111.763 45.5621C111.379 45.5621 111.064 45.224 111.076 44.8277L111.099 44.0117H111.11Z" fill="url(#paint16_linear_2520_28475)"/>
<path d="M111.286 44.0117L113.769 44.0817V44.4547C113.757 44.6179 113.617 44.7578 113.442 44.7461L111.554 44.6995C111.391 44.6995 111.251 44.5596 111.262 44.3847V44.0117H111.286Z" fill="url(#paint17_linear_2520_28475)"/>
<path d="M139.926 42.1672H135.87C135.112 42.1672 134.471 41.4795 134.471 40.6285C134.471 39.7776 135.089 39.0898 135.87 39.0898H137.175C137.863 39.0898 138.516 39.3813 139.028 39.8825L141.15 42.1672H139.938H139.926Z" fill="url(#paint18_linear_2520_28475)"/>
<path d="M164.289 48.9304C161.48 48.9304 158.169 48.674 158.018 48.6623C157.761 48.6157 157.575 48.3709 157.621 48.1144C157.668 47.858 157.901 47.6715 158.158 47.7181C158.193 47.7181 161.899 48.0328 164.709 47.9746C164.965 47.9746 165.187 48.1844 165.198 48.4408C165.198 48.6973 164.988 48.9188 164.732 48.9304H164.277H164.289Z" fill="url(#paint19_linear_2520_28475)"/>
<path d="M175.457 48.7682C175.224 48.7682 175.014 48.5934 174.991 48.3486C174.956 48.0921 175.142 47.8473 175.41 47.824C175.433 47.824 177.555 47.7541 178.919 47.0547C179.094 47.2878 179.28 47.6725 179.327 47.9289C177.718 48.7799 175.62 48.7566 175.527 48.7682H175.457Z" fill="url(#paint20_linear_2520_28475)"/>
<path d="M145.01 45.6719H144.299C144.065 45.6719 143.891 45.8584 143.891 46.0915C143.891 46.3247 144.077 46.5112 144.299 46.5112H145.01C145.243 46.5112 145.418 46.3247 145.418 46.0915C145.418 45.8584 145.231 45.6719 145.01 45.6719Z" fill="url(#paint21_linear_2520_28475)"/>
<path d="M124.913 59.9165C124.913 59.9165 123.549 59.2637 123.549 56.6409V45.8584C123.549 45.1706 123.642 44.4712 123.84 43.8068L124.575 41.2656" stroke="url(#paint22_linear_2520_28475)" stroke-width="0.24" stroke-miterlimit="10"/>
<path d="M104.163 39.3885C104.163 39.3885 112.125 38.5259 103.581 42.2095L102.753 42.5475C102.753 42.5475 103.277 40.4959 104.163 39.3885Z" fill="url(#paint23_linear_2520_28475)"/>
<path d="M232 63.2421C249.118 63.2421 263 62.4511 263 61.4706C263 60.4902 249.118 59.6992 232 59.6992C214.882 59.6992 201 60.4902 201 61.4706C201 62.4511 214.882 63.2421 232 63.2421Z" fill="url(#paint24_radial_2520_28475)"/>
<path d="M246.635 45.687C246.635 45.687 251.43 46.5753 254.909 48.081C256.075 48.5854 256.851 49.7598 256.798 50.3621L256.392 55.4588C256.256 56.8741 255.059 57.9582 253.636 57.9582L207.661 56.5052C206.208 55.6921 205.658 54.1564 205.658 52.5001L207.119 47.9831C207.119 46.4097 207.713 44.9041 208.782 43.7522L212.095 40.0859C212.261 39.9052 212.306 39.6493 212.215 39.4159C212.08 39.0771 211.929 38.6028 212.125 38.4974C213.119 37.9629 214.737 38.0006 215.897 38.0006H231.94C234.002 38.0006 235.252 38.0156 236.773 38.8588C239.046 40.1311 242.076 44.5873 246.642 45.687H246.627H246.635Z" fill="url(#paint25_linear_2520_28475)"/>
<path d="M254.593 56.4276C254.593 59.2056 252.846 61.4415 250.686 61.4415H248.051V51.4062H250.686C252.839 51.4062 254.593 53.6572 254.593 56.4201V56.4276Z" fill="black"/>
<path d="M248.043 61.4457C250.196 61.4457 251.95 59.1947 251.95 56.4318C251.95 53.6689 250.204 51.418 248.043 51.418C245.882 51.418 244.136 53.6689 244.136 56.4318C244.136 59.1947 245.882 61.4457 248.043 61.4457Z" fill="url(#paint26_linear_2520_28475)"/>
<path d="M242.614 56.4276C242.614 59.2056 240.868 61.4415 238.707 61.4415H236.072V51.4062H238.707C240.86 51.4062 242.614 53.6572 242.614 56.4201V56.4276Z" fill="black"/>
<path d="M217.922 56.4276C217.922 59.2056 216.175 61.4415 214.015 61.4415H211.38V51.4062H214.015C216.168 51.4062 217.922 53.6572 217.922 56.4201V56.4276Z" fill="black"/>
<path d="M246.635 45.6873C241.689 43.8125 239.107 40.1841 236.735 38.8365C235.057 37.9406 233.348 38.0008 231.285 38.0008H222.251C223.486 38.0008 225.842 38.031 226.73 38.6709L232.301 45.6948C232.301 45.6948 238.971 47.3059 242.562 49.5041C243.217 49.9031 243.496 50.3774 243.526 51.1077L243.097 56.656C243.097 56.656 243.15 57.966 241.667 57.966H253.614C255.037 57.966 256.226 56.8819 256.369 55.4666C256.369 55.4666 256.723 51.0926 256.776 50.3699C256.829 49.6472 255.812 48.4276 254.367 47.8705C250.753 46.4928 246.62 45.6873 246.62 45.6873H246.628H246.635Z" fill="url(#paint27_linear_2520_28475)"/>
<path d="M211.877 43.4521C211.877 43.4521 213.661 40.8096 214.278 40.1998C214.896 39.59 215.882 39.1534 217.162 39.0028C220.128 38.6641 235.945 38.6641 235.945 38.6641C236.193 38.6641 236.442 38.7092 236.667 38.8146C238.979 39.8837 246.635 45.688 246.635 45.688H221.377L212.554 45.0255C211.771 44.9728 211.38 44.0619 211.869 43.4521H211.877Z" fill="black"/>
<path d="M205.65 49.5794C205.65 47.5016 207.292 46.5078 207.292 46.5078L210.469 47.3886L230.637 47.9382C230.637 47.9382 237.54 48.0059 242.246 49.361C243.013 49.5869 243.54 50.3021 243.54 51.1076L243.096 56.8743C243.044 57.4916 242.524 57.9584 241.907 57.9584L214.391 57.6272L207.653 56.5054C206.2 55.6924 205.65 55.4665 205.65 53.8028V49.5794Z" fill="url(#paint28_linear_2520_28475)"/>
<path d="M215.25 55.8942C215.25 55.8942 215.499 57.5806 217.02 57.6559L216.809 58.1753L215.168 57.6333L215.002 55.9771L215.258 55.8867L215.25 55.8942Z" fill="black"/>
<path d="M233.686 45.688H246.635C246.635 45.688 239.935 40.117 236.63 38.7996C236.374 38.6716 236.028 38.6641 235.742 38.6641C232.64 38.6641 229.651 38.6866 226.798 38.7168C229.35 40.0267 231.691 42.8573 233.694 45.688H233.686Z" fill="url(#paint29_linear_2520_28475)"/>
<path d="M211.372 61.4457C213.525 61.4457 215.279 59.1947 215.279 56.4318C215.279 53.6689 213.533 51.418 211.372 51.418C209.211 51.418 207.465 53.6689 207.465 56.4318C207.465 59.1947 209.211 61.4457 211.372 61.4457Z" fill="url(#paint30_linear_2520_28475)"/>
<path d="M211.282 59.5632C212.524 59.5632 213.533 58.1554 213.533 56.4164C213.533 54.6773 212.524 53.2695 211.282 53.2695C210.04 53.2695 209.031 54.6773 209.031 56.4164C209.031 58.1554 210.04 59.5632 211.282 59.5632Z" fill="url(#paint31_linear_2520_28475)"/>
<path d="M211.274 58.2748C212.005 58.2748 212.592 57.4467 212.592 56.4304C212.592 55.4141 212.005 54.5859 211.274 54.5859C210.544 54.5859 209.957 55.4141 209.957 56.4304C209.957 57.4467 210.544 58.2748 211.274 58.2748Z" fill="url(#paint32_linear_2520_28475)"/>
<path d="M236.065 61.4457C238.219 61.4457 239.973 59.1947 239.973 56.4318C239.973 53.6689 238.226 51.418 236.065 51.418C233.905 51.418 232.158 53.6689 232.158 56.4318C232.158 59.1947 233.905 61.4457 236.065 61.4457Z" fill="url(#paint33_linear_2520_28475)"/>
<path d="M235.93 59.5632C237.172 59.5632 238.181 58.1554 238.181 56.4164C238.181 54.6773 237.172 53.2695 235.93 53.2695C234.688 53.2695 233.679 54.6773 233.679 56.4164C233.679 58.1554 234.688 59.5632 235.93 59.5632Z" fill="url(#paint34_linear_2520_28475)"/>
<path d="M235.93 58.2748C236.66 58.2748 237.247 57.4467 237.247 56.4304C237.247 55.4141 236.66 54.5859 235.93 54.5859C235.2 54.5859 234.612 55.4141 234.612 56.4304C234.612 57.4467 235.2 58.2748 235.93 58.2748Z" fill="url(#paint35_linear_2520_28475)"/>
<path d="M241.485 49.167C241.485 49.167 247.862 49.4681 251.618 49.4229C255.375 49.3778 256.09 48.9336 256.09 48.9336C256.09 48.9336 256.843 49.6337 256.798 50.3715L256.745 50.9587C256.745 50.9587 256.196 51.2824 255.172 51.3427C254.622 51.3728 254.148 51.3351 253.817 50.8985C253.651 50.6877 253.154 50.0252 253.154 50.0252C253.154 50.0252 251.385 50.108 248.969 49.9951C248.969 49.9951 248.253 51.0942 247.651 51.3803C247.29 51.5459 244.7 51.4556 243.488 51.2674C241.922 51.0189 241.493 49.167 241.493 49.167H241.485Z" fill="#939393"/>
<path d="M222.545 47.7539L224.374 47.784V48.311C224.359 48.5594 224.156 48.7627 223.9 48.7627L222.981 48.7476C222.725 48.7476 222.522 48.5369 222.529 48.2809V47.7539H222.545Z" fill="url(#paint36_linear_2520_28475)"/>
<path d="M222.658 47.7539L224.261 47.784V48.0249C224.261 48.1303 224.163 48.2207 224.058 48.2207L222.838 48.1981C222.733 48.1981 222.643 48.1153 222.643 48.0023V47.7614H222.658V47.7539Z" fill="url(#paint37_linear_2520_28475)"/>
<path d="M212.698 47.4609L214.527 47.5136L214.512 48.0406C214.512 48.2891 214.294 48.4923 214.038 48.4848L213.119 48.4622C212.871 48.4622 212.667 48.2439 212.675 47.9879L212.69 47.4609H212.698Z" fill="url(#paint38_linear_2520_28475)"/>
<path d="M212.81 47.4609L214.414 47.5061V47.747C214.406 47.8524 214.316 47.9427 214.203 47.9352L212.984 47.9051C212.878 47.9051 212.788 47.8148 212.795 47.7018V47.4609H212.81Z" fill="url(#paint39_linear_2520_28475)"/>
<path d="M231.307 46.2687H228.688C228.198 46.2687 227.784 45.8246 227.784 45.275C227.784 44.7254 228.183 44.2812 228.688 44.2812H229.531C229.975 44.2812 230.397 44.4695 230.728 44.7932L232.098 46.2687H231.315H231.307Z" fill="url(#paint40_linear_2520_28475)"/>
<path d="M247.042 50.6352C245.228 50.6352 243.09 50.4696 242.992 50.4621C242.826 50.432 242.706 50.2739 242.736 50.1082C242.766 49.9426 242.917 49.8222 243.082 49.8523C243.105 49.8523 245.499 50.0555 247.313 50.0179C247.479 50.0179 247.622 50.1534 247.629 50.319C247.629 50.4847 247.494 50.6277 247.328 50.6352H247.035H247.042Z" fill="url(#paint41_linear_2520_28475)"/>
<path d="M254.253 50.5285C254.103 50.5285 253.967 50.4156 253.952 50.2575C253.929 50.0919 254.05 49.9338 254.223 49.9187C254.238 49.9187 255.608 49.8736 256.489 49.4219C256.602 49.5724 256.722 49.8209 256.752 49.9865C255.714 50.5361 254.358 50.521 254.298 50.5285H254.253Z" fill="url(#paint42_linear_2520_28475)"/>
<path d="M234.59 48.5234H234.131C233.98 48.5234 233.867 48.6439 233.867 48.7945C233.867 48.945 233.988 49.0655 234.131 49.0655H234.59C234.74 49.0655 234.853 48.945 234.853 48.7945C234.853 48.6439 234.733 48.5234 234.59 48.5234Z" fill="url(#paint43_linear_2520_28475)"/>
<path d="M221.61 57.725C221.61 57.725 220.729 57.3034 220.729 55.6096V48.6458C220.729 48.2017 220.79 47.75 220.918 47.3209L221.392 45.6797" stroke="url(#paint44_linear_2520_28475)" stroke-width="0.155" stroke-miterlimit="10"/>
<path d="M208.21 44.4668C208.21 44.4668 213.352 43.9097 207.833 46.2887L207.299 46.507C207.299 46.507 207.638 45.182 208.21 44.4668Z" fill="url(#paint45_linear_2520_28475)"/>
<path d="M48 63.2421C65.1179 63.2421 79 62.4511 79 61.4706C79 60.4902 65.1179 59.6992 48 59.6992C30.8821 59.6992 17 60.4902 17 61.4706C17 62.4511 30.8821 63.2421 48 63.2421Z" fill="url(#paint46_radial_2520_28475)"/>
<path d="M62.6349 45.687C62.6349 45.687 67.4304 46.5753 70.9085 48.081C72.0754 48.5854 72.8508 49.7598 72.7981 50.3621L72.3916 55.4588C72.2561 56.8741 71.0591 57.9582 69.6362 57.9582L23.6607 56.5052C22.2078 55.6921 21.6582 54.1564 21.6582 52.5001L23.1187 47.9831C23.1187 46.4097 23.7134 44.9041 24.7825 43.7522L28.0949 40.0859C28.2605 39.9052 28.3057 39.6493 28.2154 39.4159C28.0799 39.0771 27.9293 38.6028 28.125 38.4974C29.1188 37.9629 30.7374 38.0006 31.8967 38.0006H47.9396C50.0024 38.0006 51.2521 38.0156 52.7728 38.8588C55.0463 40.1311 58.0757 44.5873 62.6424 45.687H62.6274H62.6349Z" fill="url(#paint47_linear_2520_28475)"/>
<path d="M70.5929 56.4276C70.5929 59.2056 68.8463 61.4415 66.6857 61.4415H64.0508V51.4062H66.6857C68.8388 51.4062 70.5929 53.6572 70.5929 56.4201V56.4276Z" fill="black"/>
<path d="M64.0429 61.4457C66.196 61.4457 67.9501 59.1947 67.9501 56.4318C67.9501 53.6689 66.2036 51.418 64.0429 51.418C61.8823 51.418 60.1357 53.6689 60.1357 56.4318C60.1357 59.1947 61.8823 61.4457 64.0429 61.4457Z" fill="url(#paint48_linear_2520_28475)"/>
<path d="M58.6144 56.4276C58.6144 59.2056 56.8678 61.4415 54.7072 61.4415H52.0723V51.4062H54.7072C56.8603 51.4062 58.6144 53.6572 58.6144 56.4201V56.4276Z" fill="black"/>
<path d="M33.922 56.4276C33.922 59.2056 32.1754 61.4415 30.0148 61.4415H27.3799V51.4062H30.0148C32.1679 51.4062 33.922 53.6572 33.922 56.4201V56.4276Z" fill="black"/>
<path d="M62.6352 45.6873C57.6885 43.8125 55.1069 40.1841 52.7355 38.8365C51.0567 37.9406 49.3477 38.0008 47.285 38.0008H38.251C39.4856 38.0008 41.842 38.031 42.7303 38.6709L48.3013 45.6948C48.3013 45.6948 54.9714 47.3059 58.5624 49.5041C59.2174 49.9031 59.4959 50.3774 59.526 51.1077L59.0969 56.656C59.0969 56.656 59.1496 57.966 57.6665 57.966H69.614C71.0368 57.966 72.2263 56.8819 72.3694 55.4666C72.3694 55.4666 72.7232 51.0926 72.7759 50.3699C72.8286 49.6472 71.8123 48.4276 70.3668 47.8705C66.7532 46.4928 62.6202 45.6873 62.6202 45.6873H62.6277H62.6352Z" fill="url(#paint49_linear_2520_28475)"/>
<path d="M27.8767 43.4521C27.8767 43.4521 29.6609 40.8096 30.2782 40.1998C30.8955 39.59 31.8817 39.1534 33.1616 39.0028C36.1277 38.6641 51.9447 38.6641 51.9447 38.6641C52.1932 38.6641 52.4416 38.7092 52.6675 38.8146C54.9787 39.8837 62.635 45.688 62.635 45.688H37.3774L28.5542 45.0255C27.7713 44.9728 27.3798 44.0619 27.8691 43.4521H27.8767Z" fill="black"/>
<path d="M21.6504 49.5794C21.6504 47.5016 23.2916 46.5078 23.2916 46.5078L26.4685 47.3886L46.6369 47.9382C46.6369 47.9382 53.5404 48.0059 58.2456 49.361C59.0135 49.5869 59.5405 50.3021 59.5405 51.1076L59.0963 56.8743C59.0436 57.4916 58.5242 57.9584 57.9068 57.9584L30.3908 57.6272L23.6529 56.5054C22.2 55.6924 21.6504 55.4665 21.6504 53.8028V49.5794Z" fill="url(#paint50_linear_2520_28475)"/>
<path d="M31.2504 55.8942C31.2504 55.8942 31.4988 57.5806 33.0195 57.6559L32.8088 58.1753L31.1676 57.6333L31.002 55.9771L31.2579 55.8867L31.2504 55.8942Z" fill="black"/>
<path d="M49.6863 45.688H62.635C62.635 45.688 55.9348 40.117 52.6299 38.7996C52.3739 38.6716 52.0276 38.6641 51.7415 38.6641C48.6398 38.6641 45.6511 38.6866 42.7979 38.7168C45.35 40.0267 47.6913 42.8573 49.6938 45.688H49.6863Z" fill="url(#paint51_linear_2520_28475)"/>
<path d="M27.372 61.4457C29.5251 61.4457 31.2792 59.1947 31.2792 56.4318C31.2792 53.6689 29.5327 51.418 27.372 51.418C25.2114 51.418 23.4648 53.6689 23.4648 56.4318C23.4648 59.1947 25.2114 61.4457 27.372 61.4457Z" fill="url(#paint52_linear_2520_28475)"/>
<path d="M27.2822 59.5632C28.5244 59.5632 29.5332 58.1554 29.5332 56.4164C29.5332 54.6773 28.5244 53.2695 27.2822 53.2695C26.04 53.2695 25.0312 54.6773 25.0312 56.4164C25.0312 58.1554 26.04 59.5632 27.2822 59.5632Z" fill="url(#paint53_linear_2520_28475)"/>
<path d="M27.2745 58.2748C28.0047 58.2748 28.5919 57.4467 28.5919 56.4304C28.5919 55.4141 28.0047 54.5859 27.2745 54.5859C26.5442 54.5859 25.957 55.4141 25.957 56.4304C25.957 57.4467 26.5442 58.2748 27.2745 58.2748Z" fill="url(#paint54_linear_2520_28475)"/>
<path d="M52.0654 61.4457C54.2185 61.4457 55.9726 59.1947 55.9726 56.4318C55.9726 53.6689 54.226 51.418 52.0654 51.418C49.9048 51.418 48.1582 53.6689 48.1582 56.4318C48.1582 59.1947 49.9048 61.4457 52.0654 61.4457Z" fill="url(#paint55_linear_2520_28475)"/>
<path d="M51.9297 59.5632C53.1719 59.5632 54.1807 58.1554 54.1807 56.4164C54.1807 54.6773 53.1719 53.2695 51.9297 53.2695C50.6875 53.2695 49.6787 54.6773 49.6787 56.4164C49.6787 58.1554 50.6875 59.5632 51.9297 59.5632Z" fill="url(#paint56_linear_2520_28475)"/>
<path d="M51.9298 58.2748C52.66 58.2748 53.2472 57.4467 53.2472 56.4304C53.2472 55.4141 52.66 54.5859 51.9298 54.5859C51.1995 54.5859 50.6123 55.4141 50.6123 56.4304C50.6123 57.4467 51.1995 58.2748 51.9298 58.2748Z" fill="url(#paint57_linear_2520_28475)"/>
<path d="M57.4854 49.167C57.4854 49.167 63.8618 49.4681 67.6185 49.4229C71.3751 49.3778 72.0903 48.9336 72.0903 48.9336C72.0903 48.9336 72.8431 49.6337 72.798 50.3715L72.7453 50.9587C72.7453 50.9587 72.1957 51.2824 71.1719 51.3427C70.6223 51.3728 70.148 51.3351 69.8168 50.8985C69.6511 50.6877 69.1543 50.0252 69.1543 50.0252C69.1543 50.0252 67.3851 50.108 64.9685 49.9951C64.9685 49.9951 64.2533 51.0942 63.6511 51.3803C63.2897 51.5459 60.6999 51.4556 59.4879 51.2674C57.922 51.0189 57.4929 49.167 57.4929 49.167H57.4854Z" fill="#939393"/>
<path d="M38.5446 47.7539L40.3739 47.784V48.311C40.3589 48.5594 40.1556 48.7627 39.8997 48.7627L38.9812 48.7476C38.7252 48.7476 38.522 48.5369 38.5295 48.2809V47.7539H38.5446Z" fill="url(#paint58_linear_2520_28475)"/>
<path d="M38.6576 47.7539L40.2612 47.784V48.0249C40.2612 48.1303 40.1633 48.2207 40.0579 48.2207L38.8383 48.1981C38.7329 48.1981 38.6426 48.1153 38.6426 48.0023V47.7614H38.6576V47.7539Z" fill="url(#paint59_linear_2520_28475)"/>
<path d="M28.6976 47.4609L30.527 47.5136L30.5119 48.0406C30.5119 48.2891 30.2936 48.4923 30.0376 48.4848L29.1192 48.4622C28.8707 48.4622 28.6675 48.2439 28.675 47.9879L28.6901 47.4609H28.6976Z" fill="url(#paint60_linear_2520_28475)"/>
<path d="M28.8104 47.4609L30.414 47.5061V47.747C30.4064 47.8524 30.3161 47.9427 30.2032 47.9352L28.9836 47.9051C28.8782 47.9051 28.7878 47.8148 28.7954 47.7018V47.4609H28.8104Z" fill="url(#paint61_linear_2520_28475)"/>
<path d="M47.3074 46.2687H44.6876C44.1982 46.2687 43.7842 45.8246 43.7842 45.275C43.7842 44.7254 44.1832 44.2812 44.6876 44.2812H45.5308C45.9749 44.2812 46.3965 44.4695 46.7278 44.7932L48.0979 46.2687H47.315H47.3074Z" fill="url(#paint62_linear_2520_28475)"/>
<path d="M63.0423 50.6352C61.228 50.6352 59.0899 50.4696 58.992 50.4621C58.8264 50.432 58.706 50.2739 58.7361 50.1082C58.7662 49.9426 58.9168 49.8222 59.0824 49.8523C59.105 49.8523 61.499 50.0555 63.3133 50.0179C63.4789 50.0179 63.622 50.1534 63.6295 50.319C63.6295 50.4847 63.494 50.6277 63.3284 50.6352H63.0347H63.0423Z" fill="url(#paint63_linear_2520_28475)"/>
<path d="M70.2531 50.5285C70.1025 50.5285 69.967 50.4156 69.9519 50.2575C69.9294 50.0919 70.0498 49.9338 70.223 49.9187C70.238 49.9187 71.6082 49.8736 72.489 49.4219C72.6019 49.5724 72.7224 49.8209 72.7525 49.9865C71.7136 50.5361 70.3585 50.521 70.2982 50.5285H70.2531Z" fill="url(#paint64_linear_2520_28475)"/>
<path d="M50.5899 48.5234H50.1307C49.9801 48.5234 49.8672 48.6439 49.8672 48.7945C49.8672 48.945 49.9876 49.0655 50.1307 49.0655H50.5899C50.7405 49.0655 50.8534 48.945 50.8534 48.7945C50.8534 48.6439 50.7329 48.5234 50.5899 48.5234Z" fill="url(#paint65_linear_2520_28475)"/>
<path d="M37.6103 57.725C37.6103 57.725 36.7295 57.3034 36.7295 55.6096V48.6458C36.7295 48.2017 36.7897 47.75 36.9177 47.3209L37.392 45.6797" stroke="url(#paint66_linear_2520_28475)" stroke-width="0.155" stroke-miterlimit="10"/>
<path d="M24.2098 44.4668C24.2098 44.4668 29.3516 43.9097 23.8333 46.2887L23.2988 46.507C23.2988 46.507 23.6376 45.182 24.2098 44.4668Z" fill="url(#paint67_linear_2520_28475)"/>
<defs>
<linearGradient id="paint0_linear_2520_28475" x1="146.196" y1="34.3133" x2="174.941" y2="-12.4453" gradientUnits="userSpaceOnUse">
<stop stop-color="#7C47E1"/>
<stop offset="1" stop-color="#D0BDF4"/>
</linearGradient>
<radialGradient id="paint1_radial_2520_28475" cx="0" cy="0" r="1" gradientUnits="userSpaceOnUse" gradientTransform="translate(163.882 9.66386) scale(48.4586 48.4586)">
<stop stop-color="#D0BDF4"/>
<stop offset="1" stop-color="#7C47E1"/>
</radialGradient>
<radialGradient id="paint2_radial_2520_28475" cx="0" cy="0" r="1" gradientUnits="userSpaceOnUse" gradientTransform="translate(137.552 65.2358) scale(47.3872 2.95973)">
<stop/>
<stop offset="1" stop-color="#414042" stop-opacity="0"/>
</radialGradient>
<linearGradient id="paint3_linear_2520_28475" x1="153.087" y1="35.247" x2="138.469" y2="50.0394" gradientUnits="userSpaceOnUse">
<stop stop-color="#F1F2F2"/>
<stop offset="1" stop-color="#E6E7E8"/>
</linearGradient>
<linearGradient id="paint4_linear_2520_28475" x1="165.84" y1="51.2053" x2="165.84" y2="66.126" gradientUnits="userSpaceOnUse">
<stop stop-color="#414042"/>
<stop offset="1"/>
</linearGradient>
<linearGradient id="paint5_linear_2520_28475" x1="152.667" y1="31.832" x2="152.586" y2="60.4727" gradientUnits="userSpaceOnUse">
<stop stop-color="#E8E9EA"/>
<stop offset="0.51" stop-color="white"/>
<stop offset="0.53" stop-color="#F6F6F6"/>
<stop offset="0.61" stop-color="#DCDDDE"/>
<stop offset="0.69" stop-color="#CACBCD"/>
<stop offset="0.78" stop-color="#BFC1C3"/>
<stop offset="0.88" stop-color="#BCBEC0"/>
<stop offset="1" stop-color="#828282"/>
</linearGradient>
<linearGradient id="paint6_linear_2520_28475" x1="129.669" y1="43.1841" x2="129.249" y2="59.3753" gradientUnits="userSpaceOnUse">
<stop stop-color="#E6E7E8"/>
<stop offset="0.3" stop-color="#A8A7AA"/>
<stop offset="0.76" stop-color="#BCBEC0"/>
<stop offset="1" stop-color="#828282"/>
</linearGradient>
<linearGradient id="paint7_linear_2520_28475" x1="157.389" y1="26.4118" x2="136.838" y2="47.802" gradientUnits="userSpaceOnUse">
<stop offset="0.14" stop-color="#414042"/>
<stop offset="0.34" stop-color="#6D6E71"/>
<stop offset="1"/>
</linearGradient>
<linearGradient id="paint8_linear_2520_28475" x1="115.098" y1="57.8963" x2="103.01" y2="57.8963" gradientUnits="userSpaceOnUse">
<stop stop-color="#414042"/>
<stop offset="1"/>
</linearGradient>
<linearGradient id="paint9_linear_2520_28475" x1="108.92" y1="52.5299" x2="108.92" y2="62.986" gradientUnits="userSpaceOnUse">
<stop stop-color="#606060"/>
<stop offset="1" stop-color="#E6E7E8"/>
</linearGradient>
<linearGradient id="paint10_linear_2520_28475" x1="108.955" y1="55.1246" x2="108.78" y2="64.1703" gradientUnits="userSpaceOnUse">
<stop stop-color="#606060"/>
<stop offset="1" stop-color="#E6E7E8"/>
</linearGradient>
<linearGradient id="paint11_linear_2520_28475" x1="153.344" y1="57.8963" x2="141.244" y2="57.8963" gradientUnits="userSpaceOnUse">
<stop stop-color="#414042"/>
<stop offset="1"/>
</linearGradient>
<linearGradient id="paint12_linear_2520_28475" x1="143.587" y1="57.8803" x2="150.569" y2="57.8803" gradientUnits="userSpaceOnUse">
<stop stop-color="#606060"/>
<stop offset="1" stop-color="#E6E7E8"/>
</linearGradient>
<linearGradient id="paint13_linear_2520_28475" x1="147.143" y1="55.1246" x2="146.957" y2="64.1703" gradientUnits="userSpaceOnUse">
<stop stop-color="#606060"/>
<stop offset="1" stop-color="#E6E7E8"/>
</linearGradient>
<linearGradient id="paint14_linear_2520_28475" x1="126.733" y1="44.5789" x2="126.707" y2="45.9891" gradientUnits="userSpaceOnUse">
<stop stop-color="#DDDFE0"/>
<stop offset="1" stop-color="#A7A9AC"/>
</linearGradient>
<linearGradient id="paint15_linear_2520_28475" x1="125.106" y1="44.8997" x2="128.303" y2="44.7584" gradientUnits="userSpaceOnUse">
<stop stop-color="#DBDCDD"/>
<stop offset="1" stop-color="#E6E7E8"/>
</linearGradient>
<linearGradient id="paint16_linear_2520_28475" x1="109.897" y1="44.7705" x2="112.741" y2="44.8465" gradientUnits="userSpaceOnUse">
<stop stop-color="#DDDFE0"/>
<stop offset="1" stop-color="#A7A9AC"/>
</linearGradient>
<linearGradient id="paint17_linear_2520_28475" x1="109.72" y1="44.4276" x2="112.919" y2="44.3148" gradientUnits="userSpaceOnUse">
<stop stop-color="#DBDCDD"/>
<stop offset="1" stop-color="#E6E7E8"/>
</linearGradient>
<linearGradient id="paint18_linear_2520_28475" x1="133.492" y1="40.9549" x2="141.849" y2="40.4071" gradientUnits="userSpaceOnUse">
<stop stop-color="#DBDCDD"/>
<stop offset="1" stop-color="#E6E7E8"/>
</linearGradient>
<linearGradient id="paint19_linear_2520_28475" x1="157.61" y1="48.3126" x2="165.198" y2="48.3126" gradientUnits="userSpaceOnUse">
<stop stop-color="#939393"/>
<stop offset="0.1" stop-color="#A3A3A3"/>
<stop offset="0.38" stop-color="#CBCBCB"/>
<stop offset="0.62" stop-color="#E7E7E7"/>
<stop offset="0.84" stop-color="#F8F8F8"/>
<stop offset="1" stop-color="white"/>
</linearGradient>
<linearGradient id="paint20_linear_2520_28475" x1="179.315" y1="46.9265" x2="178.045" y2="47.5326" gradientUnits="userSpaceOnUse">
<stop stop-color="#606060"/>
<stop offset="1" stop-color="#E6E7E8"/>
</linearGradient>
<linearGradient id="paint21_linear_2520_28475" x1="144.66" y1="46.5345" x2="144.66" y2="45.6952" gradientUnits="userSpaceOnUse">
<stop stop-color="#FB7674"/>
<stop offset="0.03" stop-color="#FA7976"/>
<stop offset="0.33" stop-color="#F98989"/>
<stop offset="0.65" stop-color="#F89395"/>
<stop offset="1" stop-color="#F79899"/>
</linearGradient>
<linearGradient id="paint22_linear_2520_28475" x1="124.19" y1="60.0214" x2="124.19" y2="41.2423" gradientUnits="userSpaceOnUse">
<stop stop-color="#606060"/>
<stop offset="1" stop-color="#E6E7E8"/>
</linearGradient>
<linearGradient id="paint23_linear_2520_28475" x1="105.422" y1="41.4052" x2="104.758" y2="40.7407" gradientUnits="userSpaceOnUse">
<stop stop-color="#FB7674"/>
<stop offset="0.03" stop-color="#FA7976"/>
<stop offset="0.33" stop-color="#F98989"/>
<stop offset="0.65" stop-color="#F89395"/>
<stop offset="1" stop-color="#F79899"/>
</linearGradient>
<radialGradient id="paint24_radial_2520_28475" cx="0" cy="0" r="1" gradientUnits="userSpaceOnUse" gradientTransform="translate(229.773 61.1609) scale(30.6043 1.91149)">
<stop/>
<stop offset="1" stop-color="#414042" stop-opacity="0"/>
</radialGradient>
<linearGradient id="paint25_linear_2520_28475" x1="239.853" y1="40.621" x2="229.187" y2="49.9236" gradientUnits="userSpaceOnUse">
<stop stop-color="#BFBFBF"/>
<stop offset="1" stop-color="#B4B4B4"/>
</linearGradient>
<linearGradient id="paint26_linear_2520_28475" x1="248.043" y1="52.103" x2="248.043" y2="61.7393" gradientUnits="userSpaceOnUse">
<stop stop-color="#414042"/>
<stop offset="1"/>
</linearGradient>
<linearGradient id="paint27_linear_2520_28475" x1="239.526" y1="39.598" x2="239.471" y2="58.0925" gradientUnits="userSpaceOnUse">
<stop stop-color="#B6B6B6"/>
<stop offset="0.5074" stop-color="#CCCCCC"/>
<stop offset="0.5257" stop-color="#C5C5C5"/>
<stop offset="0.6063" stop-color="#ABABAB"/>
<stop offset="0.6899" stop-color="#999999"/>
<stop offset="0.7775" stop-color="#8E8E8E"/>
<stop offset="0.8755" stop-color="#8B8B8B"/>
<stop offset="1" stop-color="#4F4F4F"/>
</linearGradient>
<linearGradient id="paint28_linear_2520_28475" x1="224.7" y1="46.9974" x2="224.392" y2="57.8345" gradientUnits="userSpaceOnUse">
<stop stop-color="#B4B4B4"/>
<stop offset="0.297" stop-color="#757575"/>
<stop offset="0.7588" stop-color="#8B8B8B"/>
<stop offset="0.9982" stop-color="#4F4F4F"/>
</linearGradient>
<linearGradient id="paint29_linear_2520_28475" x1="242.585" y1="36.0894" x2="229.312" y2="49.9039" gradientUnits="userSpaceOnUse">
<stop offset="0.14" stop-color="#414042"/>
<stop offset="0.34" stop-color="#6D6E71"/>
<stop offset="1"/>
</linearGradient>
<linearGradient id="paint30_linear_2520_28475" x1="215.272" y1="56.4243" x2="207.465" y2="56.4243" gradientUnits="userSpaceOnUse">
<stop stop-color="#414042"/>
<stop offset="1"/>
</linearGradient>
<linearGradient id="paint31_linear_2520_28475" x1="211.282" y1="52.9609" x2="211.282" y2="59.7138" gradientUnits="userSpaceOnUse">
<stop stop-color="#606060"/>
<stop offset="1" stop-color="#E6E7E8"/>
</linearGradient>
<linearGradient id="paint32_linear_2520_28475" x1="211.305" y1="54.6311" x2="211.192" y2="60.4731" gradientUnits="userSpaceOnUse">
<stop stop-color="#606060"/>
<stop offset="1" stop-color="#E6E7E8"/>
</linearGradient>
<linearGradient id="paint33_linear_2520_28475" x1="239.973" y1="56.4243" x2="232.158" y2="56.4243" gradientUnits="userSpaceOnUse">
<stop stop-color="#414042"/>
<stop offset="1"/>
</linearGradient>
<linearGradient id="paint34_linear_2520_28475" x1="233.671" y1="56.4164" x2="238.181" y2="56.4164" gradientUnits="userSpaceOnUse">
<stop stop-color="#606060"/>
<stop offset="1" stop-color="#E6E7E8"/>
</linearGradient>
<linearGradient id="paint35_linear_2520_28475" x1="235.967" y1="54.6311" x2="235.847" y2="60.4731" gradientUnits="userSpaceOnUse">
<stop stop-color="#606060"/>
<stop offset="1" stop-color="#E6E7E8"/>
</linearGradient>
<linearGradient id="paint36_linear_2520_28475" x1="222.786" y1="47.825" x2="222.77" y2="48.7358" gradientUnits="userSpaceOnUse">
<stop stop-color="#DDDFE0"/>
<stop offset="1" stop-color="#A7A9AC"/>
</linearGradient>
<linearGradient id="paint37_linear_2520_28475" x1="221.736" y1="48.0322" x2="223.801" y2="47.941" gradientUnits="userSpaceOnUse">
<stop stop-color="#DBDCDD"/>
<stop offset="1" stop-color="#E6E7E8"/>
</linearGradient>
<linearGradient id="paint38_linear_2520_28475" x1="211.914" y1="47.951" x2="213.75" y2="48.0001" gradientUnits="userSpaceOnUse">
<stop stop-color="#DDDFE0"/>
<stop offset="1" stop-color="#A7A9AC"/>
</linearGradient>
<linearGradient id="paint39_linear_2520_28475" x1="211.8" y1="47.7296" x2="213.865" y2="47.6567" gradientUnits="userSpaceOnUse">
<stop stop-color="#DBDCDD"/>
<stop offset="1" stop-color="#E6E7E8"/>
</linearGradient>
<linearGradient id="paint40_linear_2520_28475" x1="227.152" y1="45.4858" x2="232.55" y2="45.132" gradientUnits="userSpaceOnUse">
<stop stop-color="#DBDCDD"/>
<stop offset="1" stop-color="#E6E7E8"/>
</linearGradient>
<linearGradient id="paint41_linear_2520_28475" x1="242.729" y1="50.2362" x2="247.629" y2="50.2362" gradientUnits="userSpaceOnUse">
<stop stop-color="#939393"/>
<stop offset="0.1" stop-color="#A3A3A3"/>
<stop offset="0.38" stop-color="#CBCBCB"/>
<stop offset="0.62" stop-color="#E7E7E7"/>
<stop offset="0.84" stop-color="#F8F8F8"/>
<stop offset="1" stop-color="white"/>
</linearGradient>
<linearGradient id="paint42_linear_2520_28475" x1="256.745" y1="49.3391" x2="255.924" y2="49.7305" gradientUnits="userSpaceOnUse">
<stop stop-color="#606060"/>
<stop offset="1" stop-color="#E6E7E8"/>
</linearGradient>
<linearGradient id="paint43_linear_2520_28475" x1="234.364" y1="49.0805" x2="234.364" y2="48.5385" gradientUnits="userSpaceOnUse">
<stop stop-color="#FB7674"/>
<stop offset="0.03" stop-color="#FA7976"/>
<stop offset="0.33" stop-color="#F98989"/>
<stop offset="0.65" stop-color="#F89395"/>
<stop offset="1" stop-color="#F79899"/>
</linearGradient>
<linearGradient id="paint44_linear_2520_28475" x1="221.144" y1="57.7928" x2="221.144" y2="45.6646" gradientUnits="userSpaceOnUse">
<stop stop-color="#606060"/>
<stop offset="1" stop-color="#E6E7E8"/>
</linearGradient>
<linearGradient id="paint45_linear_2520_28475" x1="209.023" y1="45.7692" x2="208.594" y2="45.3401" gradientUnits="userSpaceOnUse">
<stop stop-color="#FB7674"/>
<stop offset="0.03" stop-color="#FA7976"/>
<stop offset="0.33" stop-color="#F98989"/>
<stop offset="0.65" stop-color="#F89395"/>
<stop offset="1" stop-color="#F79899"/>
</linearGradient>
<radialGradient id="paint46_radial_2520_28475" cx="0" cy="0" r="1" gradientUnits="userSpaceOnUse" gradientTransform="translate(45.773 61.1609) scale(30.6043 1.91149)">
<stop/>
<stop offset="1" stop-color="#414042" stop-opacity="0"/>
</radialGradient>
<linearGradient id="paint47_linear_2520_28475" x1="55.8533" y1="40.621" x2="45.187" y2="49.9236" gradientUnits="userSpaceOnUse">
<stop stop-color="#BFBFBF"/>
<stop offset="1" stop-color="#B4B4B4"/>
</linearGradient>
<linearGradient id="paint48_linear_2520_28475" x1="64.0429" y1="52.103" x2="64.0429" y2="61.7393" gradientUnits="userSpaceOnUse">
<stop stop-color="#414042"/>
<stop offset="1"/>
</linearGradient>
<linearGradient id="paint49_linear_2520_28475" x1="55.5257" y1="39.598" x2="55.4705" y2="58.0925" gradientUnits="userSpaceOnUse">
<stop stop-color="#B6B6B6"/>
<stop offset="0.5074" stop-color="#CCCCCC"/>
<stop offset="0.5257" stop-color="#C5C5C5"/>
<stop offset="0.6063" stop-color="#ABABAB"/>
<stop offset="0.6899" stop-color="#999999"/>
<stop offset="0.7775" stop-color="#8E8E8E"/>
<stop offset="0.8755" stop-color="#8B8B8B"/>
<stop offset="1" stop-color="#4F4F4F"/>
</linearGradient>
<linearGradient id="paint50_linear_2520_28475" x1="40.7003" y1="46.9974" x2="40.3921" y2="57.8345" gradientUnits="userSpaceOnUse">
<stop stop-color="#B4B4B4"/>
<stop offset="0.297" stop-color="#757575"/>
<stop offset="0.7588" stop-color="#8B8B8B"/>
<stop offset="0.9982" stop-color="#4F4F4F"/>
</linearGradient>
<linearGradient id="paint51_linear_2520_28475" x1="58.5848" y1="36.0894" x2="45.3123" y2="49.9039" gradientUnits="userSpaceOnUse">
<stop offset="0.14" stop-color="#414042"/>
<stop offset="0.34" stop-color="#6D6E71"/>
<stop offset="1"/>
</linearGradient>
<linearGradient id="paint52_linear_2520_28475" x1="31.2717" y1="56.4243" x2="23.4648" y2="56.4243" gradientUnits="userSpaceOnUse">
<stop stop-color="#414042"/>
<stop offset="1"/>
</linearGradient>
<linearGradient id="paint53_linear_2520_28475" x1="27.2822" y1="52.9609" x2="27.2822" y2="59.7138" gradientUnits="userSpaceOnUse">
<stop stop-color="#606060"/>
<stop offset="1" stop-color="#E6E7E8"/>
</linearGradient>
<linearGradient id="paint54_linear_2520_28475" x1="27.3046" y1="54.6311" x2="27.1917" y2="60.4731" gradientUnits="userSpaceOnUse">
<stop stop-color="#606060"/>
<stop offset="1" stop-color="#E6E7E8"/>
</linearGradient>
<linearGradient id="paint55_linear_2520_28475" x1="55.9726" y1="56.4243" x2="48.1582" y2="56.4243" gradientUnits="userSpaceOnUse">
<stop stop-color="#414042"/>
<stop offset="1"/>
</linearGradient>
<linearGradient id="paint56_linear_2520_28475" x1="49.6712" y1="56.4164" x2="54.1807" y2="56.4164" gradientUnits="userSpaceOnUse">
<stop stop-color="#606060"/>
<stop offset="1" stop-color="#E6E7E8"/>
</linearGradient>
<linearGradient id="paint57_linear_2520_28475" x1="51.9674" y1="54.6311" x2="51.847" y2="60.4731" gradientUnits="userSpaceOnUse">
<stop stop-color="#606060"/>
<stop offset="1" stop-color="#E6E7E8"/>
</linearGradient>
<linearGradient id="paint58_linear_2520_28475" x1="38.786" y1="47.825" x2="38.7698" y2="48.7358" gradientUnits="userSpaceOnUse">
<stop stop-color="#DDDFE0"/>
<stop offset="1" stop-color="#A7A9AC"/>
</linearGradient>
<linearGradient id="paint59_linear_2520_28475" x1="37.7359" y1="48.0322" x2="39.8006" y2="47.941" gradientUnits="userSpaceOnUse">
<stop stop-color="#DBDCDD"/>
<stop offset="1" stop-color="#E6E7E8"/>
</linearGradient>
<linearGradient id="paint60_linear_2520_28475" x1="27.9142" y1="47.951" x2="29.7505" y2="48.0001" gradientUnits="userSpaceOnUse">
<stop stop-color="#DDDFE0"/>
<stop offset="1" stop-color="#A7A9AC"/>
</linearGradient>
<linearGradient id="paint61_linear_2520_28475" x1="27.7995" y1="47.7296" x2="29.865" y2="47.6567" gradientUnits="userSpaceOnUse">
<stop stop-color="#DBDCDD"/>
<stop offset="1" stop-color="#E6E7E8"/>
</linearGradient>
<linearGradient id="paint62_linear_2520_28475" x1="43.1518" y1="45.4858" x2="48.5496" y2="45.132" gradientUnits="userSpaceOnUse">
<stop stop-color="#DBDCDD"/>
<stop offset="1" stop-color="#E6E7E8"/>
</linearGradient>
<linearGradient id="paint63_linear_2520_28475" x1="58.7285" y1="50.2362" x2="63.6295" y2="50.2362" gradientUnits="userSpaceOnUse">
<stop stop-color="#939393"/>
<stop offset="0.1" stop-color="#A3A3A3"/>
<stop offset="0.38" stop-color="#CBCBCB"/>
<stop offset="0.62" stop-color="#E7E7E7"/>
<stop offset="0.84" stop-color="#F8F8F8"/>
<stop offset="1" stop-color="white"/>
</linearGradient>
<linearGradient id="paint64_linear_2520_28475" x1="72.745" y1="49.3391" x2="71.9244" y2="49.7305" gradientUnits="userSpaceOnUse">
<stop stop-color="#606060"/>
<stop offset="1" stop-color="#E6E7E8"/>
</linearGradient>
<linearGradient id="paint65_linear_2520_28475" x1="50.3641" y1="49.0805" x2="50.3641" y2="48.5385" gradientUnits="userSpaceOnUse">
<stop stop-color="#FB7674"/>
<stop offset="0.03" stop-color="#FA7976"/>
<stop offset="0.33" stop-color="#F98989"/>
<stop offset="0.65" stop-color="#F89395"/>
<stop offset="1" stop-color="#F79899"/>
</linearGradient>
<linearGradient id="paint66_linear_2520_28475" x1="37.1436" y1="57.7928" x2="37.1436" y2="45.6646" gradientUnits="userSpaceOnUse">
<stop stop-color="#606060"/>
<stop offset="1" stop-color="#E6E7E8"/>
</linearGradient>
<linearGradient id="paint67_linear_2520_28475" x1="25.0228" y1="45.7692" x2="24.5937" y2="45.3401" gradientUnits="userSpaceOnUse">
<stop stop-color="#FB7674"/>
<stop offset="0.03" stop-color="#FA7976"/>
<stop offset="0.33" stop-color="#F98989"/>
<stop offset="0.65" stop-color="#F89395"/>
<stop offset="1" stop-color="#F79899"/>
</linearGradient>
</defs>
</svg>
