<svg width="48" height="48" viewBox="0 0 48 48" fill="none" xmlns="http://www.w3.org/2000/svg">
<g clip-path="url(#clip0_2665_9021)">
<g clip-path="url(#clip1_2665_9021)">
<path d="M19.6578 9.4971L20.5031 8.65185C20.7551 8.39985 20.6238 7.9641 20.2721 7.8906L16.3136 7.09785C15.9986 7.03485 15.7203 7.3131 15.7833 7.6281L16.5761 11.5866C16.6443 11.9383 17.0801 12.0696 17.3373 11.8176L18.1511 11.0038C20.2826 13.4661 20.1828 17.2093 17.8413 19.5456C16.9383 20.4486 15.7991 21.0471 14.5601 21.2781C14.0298 21.3778 13.6361 21.8241 13.6518 22.3648C13.6728 23.0158 14.2766 23.4883 14.9171 23.3728C16.5866 23.0683 18.1248 22.2651 19.3428 21.0471C22.5138 17.8761 22.6083 12.7941 19.6526 9.49185H19.6578V9.4971Z" fill="url(#paint0_linear_2665_9021)"/>
<path d="M8.65411 19.2048C6.52261 16.7425 6.61711 12.994 8.95861 10.6578C9.86686 9.7495 11.0219 9.14575 12.2714 8.92C12.8016 8.82025 13.1954 8.374 13.1796 7.8385C13.1586 7.18225 12.5601 6.7045 11.9196 6.82C10.2344 7.11925 8.68561 7.92775 7.45711 9.151C4.28611 12.322 4.19161 17.4093 7.15261 20.7115L6.30736 21.5568C6.05536 21.8088 6.18661 22.2445 6.53836 22.318L10.4969 23.1108C10.8119 23.1738 11.0901 22.8955 11.0271 22.5805L10.2344 18.622C10.1661 18.2703 9.73036 18.139 9.47311 18.391L8.66461 19.2048H8.65936H8.65411Z" fill="url(#paint1_linear_2665_9021)"/>
</g>
<path d="M23.9998 43.6971C11.7358 43.6971 1.7998 43.1091 1.7998 42.3891C1.7998 41.6691 11.7358 41.0811 23.9998 41.0811C36.2638 41.0811 46.1998 41.6691 46.1998 42.3891C46.1998 43.1091 36.2638 43.6971 23.9998 43.6971Z" fill="url(#paint2_radial_2665_9021)"/>
<path d="M11.0342 29.243C11.0342 29.243 6.9962 29.993 4.0622 31.259C3.0782 31.685 2.4242 32.675 2.4722 33.179L2.8142 37.475C2.9282 38.669 3.9362 39.581 5.1362 39.581L43.8722 38.357C45.0962 37.673 45.5582 36.377 45.5582 34.985L44.3282 31.181C44.3282 29.855 43.8242 28.589 42.9242 27.617L40.1342 24.527C39.9962 24.377 39.9542 24.161 40.0322 23.963C40.1462 23.675 40.2722 23.279 40.1102 23.189C39.2702 22.739 37.9082 22.769 36.9302 22.769H23.4122C21.6722 22.769 20.6222 22.781 19.3382 23.495C17.4242 24.569 13.5362 26.903 11.0222 29.249H11.0342H11.0282L11.0342 29.243Z" fill="url(#paint3_linear_2665_9021)"/>
<path d="M4.33203 38.2905C4.33203 40.6305 5.80203 42.5145 7.62603 42.5145H9.84603V34.0605H7.62603C5.81403 34.0605 4.33203 35.9565 4.33203 38.2845V38.2905Z" fill="black"/>
<path d="M9.85162 42.5154C8.03962 42.5154 6.55762 40.6194 6.55762 38.2914C6.55762 35.9634 8.02762 34.0674 9.85162 34.0674C11.6756 34.0674 13.1456 35.9634 13.1456 38.2914C13.1456 40.6194 11.6756 42.5154 9.85162 42.5154Z" fill="url(#paint4_linear_2665_9021)"/>
<path d="M14.4238 38.2905C14.4238 40.6305 15.8938 42.5145 17.7178 42.5145H19.9378V34.0605H17.7178C15.9058 34.0605 14.4238 35.9565 14.4238 38.2845V38.2905Z" fill="black"/>
<path d="M35.2261 38.2905C35.2261 40.6305 36.6961 42.5145 38.5201 42.5145H40.7401V34.0605H38.5201C36.7081 34.0605 35.2261 35.9565 35.2261 38.2845V38.2905Z" fill="black"/>
<path d="M11.0338 29.2434C13.5178 26.9094 17.3758 24.6054 19.3738 23.4714C20.7898 22.7154 22.2298 22.7694 23.9638 22.7694H31.5778C30.5398 22.7694 28.5538 22.7934 27.8038 23.3334L23.1118 29.2494C23.1118 29.2494 17.4898 30.6054 14.4658 32.4594C13.9138 32.7954 13.6798 33.1974 13.6558 33.8094L14.0158 38.4834C14.0158 38.4834 13.9738 39.5874 15.2218 39.5874H5.15377C3.95377 39.5874 2.95177 38.6754 2.83177 37.4814C2.83177 37.4814 2.53177 33.7974 2.48977 33.1854C2.44777 32.5794 3.29977 31.5474 4.51777 31.0794C7.55977 29.9214 11.0458 29.2374 11.0458 29.2374H11.0338V29.2434Z" fill="url(#paint5_linear_2665_9021)"/>
<path d="M40.3197 27.3593C40.3197 27.3593 38.8137 25.1333 38.2977 24.6173C37.7757 24.1013 36.9477 23.7353 35.8677 23.6093C33.3657 23.3213 20.0397 23.3213 20.0397 23.3213C19.8297 23.3213 19.6197 23.3573 19.4337 23.4473C17.4837 24.3473 11.0337 29.2373 11.0337 29.2373H32.3157L39.7497 28.6793C40.4097 28.6373 40.7397 27.8693 40.3257 27.3533H40.3197V27.3593Z" fill="black"/>
<path d="M45.564 32.5196C45.564 30.7676 44.184 29.9336 44.184 29.9336L41.508 30.6776L24.516 31.1396C24.516 31.1396 18.702 31.1996 14.736 32.3396C14.088 32.5316 13.644 33.1316 13.644 33.8096L14.016 38.6696C14.058 39.1916 14.496 39.5816 15.018 39.5816L38.202 39.2996L43.878 38.3516C45.102 37.6676 45.564 37.4756 45.564 36.0716V32.5136V32.5196Z" fill="url(#paint6_linear_2665_9021)"/>
<path d="M37.4763 37.8411C37.4763 37.8411 37.2663 39.2631 35.9883 39.3231L36.1683 39.7611L37.5483 39.3051L37.6863 37.9071L37.4703 37.8291H37.4763V37.8411Z" fill="black"/>
<path d="M21.9477 29.2431H11.0337C11.0337 29.2431 16.6797 24.5511 19.4637 23.4411C19.6797 23.3331 19.9737 23.3271 20.2137 23.3271C22.8297 23.3271 25.3437 23.3451 27.7497 23.3691C25.6017 24.4731 23.6277 26.8551 21.9417 29.2431H21.9477Z" fill="url(#paint7_linear_2665_9021)"/>
<path d="M40.7462 42.5154C38.9342 42.5154 37.4521 40.6194 37.4521 38.2914C37.4521 35.9634 38.9222 34.0674 40.7462 34.0674C42.5702 34.0674 44.0402 35.9634 44.0402 38.2914C44.0402 40.6194 42.5702 42.5154 40.7462 42.5154Z" fill="url(#paint8_linear_2665_9021)"/>
<path d="M40.8237 40.9319C39.7797 40.9319 38.9277 39.7439 38.9277 38.2799C38.9277 36.8159 39.7797 35.6279 40.8237 35.6279C41.8677 35.6279 42.7197 36.8159 42.7197 38.2799C42.7197 39.7439 41.8677 40.9319 40.8237 40.9319Z" fill="url(#paint9_linear_2665_9021)"/>
<path d="M40.8302 39.8453C40.2122 39.8453 39.7202 39.1493 39.7202 38.2913C39.7202 37.4333 40.2122 36.7373 40.8302 36.7373C41.4482 36.7373 41.9402 37.4333 41.9402 38.2913C41.9402 39.1493 41.4482 39.8453 40.8302 39.8453Z" fill="url(#paint10_linear_2665_9021)"/>
<path d="M19.938 42.5154C18.126 42.5154 16.644 40.6194 16.644 38.2914C16.644 35.9634 18.114 34.0674 19.938 34.0674C21.762 34.0674 23.232 35.9634 23.232 38.2914C23.232 40.6194 21.762 42.5154 19.938 42.5154Z" fill="url(#paint11_linear_2665_9021)"/>
<path d="M20.0518 40.9319C19.0078 40.9319 18.1558 39.7439 18.1558 38.2799C18.1558 36.8159 19.0078 35.6279 20.0518 35.6279C21.0958 35.6279 21.9478 36.8159 21.9478 38.2799C21.9478 39.7439 21.0958 40.9319 20.0518 40.9319Z" fill="url(#paint12_linear_2665_9021)"/>
<path d="M20.0524 39.8453C19.4344 39.8453 18.9424 39.1493 18.9424 38.2913C18.9424 37.4333 19.4344 36.7373 20.0524 36.7373C20.6704 36.7373 21.1624 37.4333 21.1624 38.2913C21.1624 39.1493 20.6704 39.8453 20.0524 39.8453Z" fill="url(#paint13_linear_2665_9021)"/>
<path d="M15.3722 32.1707C15.3722 32.1707 10.0022 32.4227 6.83421 32.3867C3.66621 32.3507 3.06621 31.9727 3.06621 31.9727C3.06621 31.9727 2.43021 32.5607 2.47221 33.1847L2.51421 33.6767C2.51421 33.6767 2.97621 33.9467 3.84021 34.0007C4.30221 34.0247 4.70421 33.9947 4.98021 33.6287C5.11821 33.4487 5.53821 32.8907 5.53821 32.8907C5.53821 32.8907 7.02621 32.9627 9.06621 32.8667C9.06621 32.8667 9.66621 33.7907 10.1762 34.0367C10.4822 34.1747 12.6602 34.1027 13.6862 33.9407C15.0062 33.7307 15.3662 32.1707 15.3662 32.1707H15.3722Z" fill="#939393"/>
<path d="M31.332 30.9777L29.79 31.0017V31.4457C29.802 31.6557 29.976 31.8237 30.192 31.8237L30.966 31.8117C31.182 31.8117 31.35 31.6317 31.344 31.4157V30.9717H31.332V30.9777Z" fill="url(#paint14_linear_2665_9021)"/>
<path d="M31.2362 30.9775L29.8862 31.0015V31.2055C29.8862 31.2955 29.9702 31.3675 30.0602 31.3675L31.0862 31.3495C31.1762 31.3495 31.2482 31.2775 31.2482 31.1875V30.9835H31.2362V30.9775Z" fill="url(#paint15_linear_2665_9021)"/>
<path d="M39.6304 30.7316L38.0884 30.7736L38.1004 31.2176C38.1004 31.4276 38.2864 31.5956 38.5024 31.5896L39.2764 31.5716C39.4864 31.5716 39.6544 31.3856 39.6484 31.1696L39.6364 30.7256H39.6304V30.7316Z" fill="url(#paint16_linear_2665_9021)"/>
<path d="M39.5336 30.7316L38.1836 30.7676V30.9716C38.1896 31.0616 38.2676 31.1336 38.3636 31.1276L39.3896 31.1036C39.4796 31.1036 39.5516 31.0256 39.5456 30.9296V30.7256H39.5336V30.7316Z" fill="url(#paint17_linear_2665_9021)"/>
<path d="M23.952 29.7288H26.16C26.574 29.7288 26.922 29.3568 26.922 28.8888C26.922 28.4208 26.586 28.0488 26.16 28.0488H25.452C25.08 28.0488 24.72 28.2048 24.444 28.4808L23.292 29.7228H23.958L23.952 29.7288Z" fill="url(#paint18_linear_2665_9021)"/>
<path d="M10.6922 33.4067C12.2222 33.4067 14.0222 33.2687 14.1062 33.2627C14.2442 33.2387 14.3462 33.1067 14.3222 32.9627C14.2982 32.8247 14.1722 32.7227 14.0282 32.7467C14.0102 32.7467 11.9942 32.9207 10.4642 32.8847C10.3262 32.8847 10.2062 32.9987 10.2002 33.1367C10.2002 33.2747 10.3142 33.3947 10.4522 33.4007H10.6982H10.6922V33.4067Z" fill="url(#paint19_linear_2665_9021)"/>
<path d="M4.61381 33.3178C4.73981 33.3178 4.85381 33.2218 4.86581 33.0898C4.88381 32.9518 4.78181 32.8198 4.63781 32.8018C4.62581 32.8018 3.46781 32.7658 2.72981 32.3818C2.63381 32.5078 2.53181 32.7178 2.50781 32.8558C3.38381 33.3178 4.52381 33.3058 4.57781 33.3118H4.61381V33.3178Z" fill="url(#paint20_linear_2665_9021)"/>
<path d="M21.1859 31.6318H21.5699C21.6959 31.6318 21.7919 31.7338 21.7919 31.8598C21.7919 31.9858 21.6899 32.0878 21.5699 32.0878H21.1859C21.0599 32.0878 20.9639 31.9858 20.9639 31.8598C20.9639 31.7338 21.0659 31.6318 21.1859 31.6318Z" fill="url(#paint21_linear_2665_9021)"/>
<path d="M32.1182 39.3833C32.1182 39.3833 32.8622 39.0293 32.8622 37.6013V31.7333C32.8622 31.3613 32.8142 30.9773 32.7062 30.6173L32.3042 29.2373" stroke="url(#paint22_linear_2665_9021)" stroke-width="0.12" stroke-miterlimit="10"/>
<path d="M43.4101 28.2115C43.4101 28.2115 39.0781 27.7435 43.7281 29.7475L44.1781 29.9335C44.1781 29.9335 43.8901 28.8175 43.4101 28.2175V28.2115Z" fill="url(#paint23_linear_2665_9021)"/>
</g>
<defs>
<linearGradient id="paint0_linear_2665_9021" x1="17.7258" y1="23.2888" x2="17.7258" y2="7.68585" gradientUnits="userSpaceOnUse">
<stop stop-color="#A96FFF"/>
<stop offset="1" stop-color="#DCA1FF"/>
</linearGradient>
<linearGradient id="paint1_linear_2665_9021" x1="9.08986" y1="23.2788" x2="9.08986" y2="7.6705" gradientUnits="userSpaceOnUse">
<stop stop-color="#A96FFF"/>
<stop offset="1" stop-color="#DCA1FF"/>
</linearGradient>
<radialGradient id="paint2_radial_2665_9021" cx="0" cy="0" r="1" gradientUnits="userSpaceOnUse" gradientTransform="translate(26.0998 42.5989) rotate(-180) scale(19.2 1.66957)">
<stop/>
<stop offset="1" stop-opacity="0"/>
</radialGradient>
<linearGradient id="paint3_linear_2665_9021" x1="16.7882" y1="25.967" x2="24.7442" y2="34.013" gradientUnits="userSpaceOnUse">
<stop stop-color="#F1F2F2"/>
<stop offset="1" stop-color="#E6E7E8"/>
</linearGradient>
<linearGradient id="paint4_linear_2665_9021" x1="9.85162" y1="34.6494" x2="9.85162" y2="42.7674" gradientUnits="userSpaceOnUse">
<stop stop-color="#414042"/>
<stop offset="1"/>
</linearGradient>
<linearGradient id="paint5_linear_2665_9021" x1="17.0278" y1="24.1074" x2="17.0698" y2="39.6894" gradientUnits="userSpaceOnUse">
<stop stop-color="#E8E9EA"/>
<stop offset="0.51" stop-color="white"/>
<stop offset="0.53" stop-color="#F6F6F6"/>
<stop offset="0.61" stop-color="#DCDDDE"/>
<stop offset="0.69" stop-color="#CACBCD"/>
<stop offset="0.78" stop-color="#BFC1C3"/>
<stop offset="0.88" stop-color="#BCBEC0"/>
<stop offset="1" stop-color="#828282"/>
</linearGradient>
<linearGradient id="paint6_linear_2665_9021" x1="29.532" y1="30.2816" x2="29.76" y2="39.0956" gradientUnits="userSpaceOnUse">
<stop stop-color="#E6E7E8"/>
<stop offset="0.3" stop-color="#A8A7AA"/>
<stop offset="0.76" stop-color="#BCBEC0"/>
<stop offset="1" stop-color="#828282"/>
</linearGradient>
<linearGradient id="paint7_linear_2665_9021" x1="14.4477" y1="21.1611" x2="25.6317" y2="32.7951" gradientUnits="userSpaceOnUse">
<stop offset="0.14" stop-color="#414042"/>
<stop offset="0.34" stop-color="#6D6E71"/>
<stop offset="1"/>
</linearGradient>
<linearGradient id="paint8_linear_2665_9021" x1="37.4521" y1="38.2974" x2="44.0402" y2="38.2974" gradientUnits="userSpaceOnUse">
<stop stop-color="#414042"/>
<stop offset="1"/>
</linearGradient>
<linearGradient id="paint9_linear_2665_9021" x1="40.8237" y1="35.3699" x2="40.8237" y2="41.0579" gradientUnits="userSpaceOnUse">
<stop stop-color="#606060"/>
<stop offset="1" stop-color="#E6E7E8"/>
</linearGradient>
<linearGradient id="paint10_linear_2665_9021" x1="40.8002" y1="36.7793" x2="40.8962" y2="41.6993" gradientUnits="userSpaceOnUse">
<stop stop-color="#606060"/>
<stop offset="1" stop-color="#E6E7E8"/>
</linearGradient>
<linearGradient id="paint11_linear_2665_9021" x1="16.65" y1="38.2974" x2="23.232" y2="38.2974" gradientUnits="userSpaceOnUse">
<stop stop-color="#414042"/>
<stop offset="1"/>
</linearGradient>
<linearGradient id="paint12_linear_2665_9021" x1="21.9598" y1="38.2799" x2="18.1618" y2="38.2799" gradientUnits="userSpaceOnUse">
<stop stop-color="#606060"/>
<stop offset="1" stop-color="#E6E7E8"/>
</linearGradient>
<linearGradient id="paint13_linear_2665_9021" x1="20.0224" y1="36.7793" x2="20.1244" y2="41.6993" gradientUnits="userSpaceOnUse">
<stop stop-color="#606060"/>
<stop offset="1" stop-color="#E6E7E8"/>
</linearGradient>
<linearGradient id="paint14_linear_2665_9021" x1="30.564" y1="31.0497" x2="30.582" y2="31.8177" gradientUnits="userSpaceOnUse">
<stop stop-color="#DDDFE0"/>
<stop offset="1" stop-color="#A7A9AC"/>
</linearGradient>
<linearGradient id="paint15_linear_2665_9021" x1="32.0162" y1="31.2415" x2="30.2762" y2="31.1635" gradientUnits="userSpaceOnUse">
<stop stop-color="#DBDCDD"/>
<stop offset="1" stop-color="#E6E7E8"/>
</linearGradient>
<linearGradient id="paint16_linear_2665_9021" x1="40.2904" y1="31.1336" x2="38.7424" y2="31.1756" gradientUnits="userSpaceOnUse">
<stop stop-color="#DDDFE0"/>
<stop offset="1" stop-color="#A7A9AC"/>
</linearGradient>
<linearGradient id="paint17_linear_2665_9021" x1="40.3856" y1="30.9836" x2="38.6456" y2="30.9236" gradientUnits="userSpaceOnUse">
<stop stop-color="#DBDCDD"/>
<stop offset="1" stop-color="#E6E7E8"/>
</linearGradient>
<linearGradient id="paint18_linear_2665_9021" x1="27.45" y1="29.0748" x2="22.902" y2="28.7748" gradientUnits="userSpaceOnUse">
<stop stop-color="#DBDCDD"/>
<stop offset="1" stop-color="#E6E7E8"/>
</linearGradient>
<linearGradient id="paint19_linear_2665_9021" x1="14.3282" y1="33.0767" x2="10.2002" y2="33.0767" gradientUnits="userSpaceOnUse">
<stop stop-color="#939393"/>
<stop offset="0.1" stop-color="#A3A3A3"/>
<stop offset="0.38" stop-color="#CBCBCB"/>
<stop offset="0.62" stop-color="#E7E7E7"/>
<stop offset="0.84" stop-color="#F8F8F8"/>
<stop offset="1" stop-color="white"/>
</linearGradient>
<linearGradient id="paint20_linear_2665_9021" x1="2.51381" y1="32.3218" x2="3.20981" y2="32.6518" gradientUnits="userSpaceOnUse">
<stop stop-color="#606060"/>
<stop offset="1" stop-color="#E6E7E8"/>
</linearGradient>
<linearGradient id="paint21_linear_2665_9021" x1="21.3779" y1="32.1058" x2="21.3779" y2="31.6498" gradientUnits="userSpaceOnUse">
<stop stop-color="#FB7674"/>
<stop offset="0.03" stop-color="#FA7976"/>
<stop offset="0.33" stop-color="#F98989"/>
<stop offset="0.65" stop-color="#F89395"/>
<stop offset="1" stop-color="#F79899"/>
</linearGradient>
<linearGradient id="paint22_linear_2665_9021" x1="32.5082" y1="39.4373" x2="32.5082" y2="29.2193" gradientUnits="userSpaceOnUse">
<stop stop-color="#606060"/>
<stop offset="1" stop-color="#E6E7E8"/>
</linearGradient>
<linearGradient id="paint23_linear_2665_9021" x1="42.7201" y1="29.3095" x2="43.0861" y2="28.9495" gradientUnits="userSpaceOnUse">
<stop stop-color="#FB7674"/>
<stop offset="0.03" stop-color="#FA7976"/>
<stop offset="0.33" stop-color="#F98989"/>
<stop offset="0.65" stop-color="#F89395"/>
<stop offset="1" stop-color="#F79899"/>
</linearGradient>
<clipPath id="clip0_2665_9021">
<rect width="48" height="48" fill="white"/>
</clipPath>
<clipPath id="clip1_2665_9021">
<rect width="16.8" height="16.8" fill="white" transform="translate(5 6.7998)"/>
</clipPath>
</defs>
</svg>
