<svg width="24" height="24" viewBox="0 0 24 24" fill="none" xmlns="http://www.w3.org/2000/svg">
<path d="M18.47 6.59C18.7627 6.29729 18.7627 5.82271 18.47 5.53C18.1773 5.23729 17.7027 5.23729 17.41 5.53L12 10.94L6.59 5.53C6.29729 5.23729 5.82271 5.23729 5.53 5.53C5.23729 5.82271 5.23729 6.29729 5.53 6.59L10.94 12L5.53 17.41C5.23729 17.7027 5.23729 18.1773 5.53 18.47C5.82271 18.7627 6.29729 18.7627 6.59 18.47L12 13.06L17.41 18.47C17.7027 18.7627 18.1773 18.7627 18.47 18.47C18.7627 18.1773 18.7627 17.7027 18.47 17.41L13.06 12L18.47 6.59Z" fill="#121212"/>
</svg>
