<svg width="24" height="24" viewBox="0 0 24 24" fill="none" xmlns="http://www.w3.org/2000/svg">
<path d="M16.85 16.74V3.75C16.85 3.34 16.51 3 16.1 3H9.18C9.08 3 8.99 3.02 8.9 3.06C8.86 3.07 8.84 3.1 8.8 3.12C8.76 3.15 8.71 3.17 8.67 3.2L4.23 7.26C4.18 7.33 4.14 7.39 4.1 7.46C4.09 7.48 4.07 7.5 4.06 7.52C4.02 7.61 4 7.71 4 7.82V16.74C4 17.15 4.34 17.49 4.75 17.49H16.1C16.51 17.49 16.85 17.15 16.85 16.74ZM8.43 5.45V7.06H6.67L8.43 5.45ZM15.34 15.99H5.49V8.56H9.18C9.59 8.56 9.93 8.22 9.93 7.81V4.5H15.34V15.99V15.99Z" fill="#121212"/>
<path d="M19.6508 6.50781C19.2408 6.50781 18.9008 6.84781 18.9008 7.25781V19.4978H8.30078C7.89078 19.4978 7.55078 19.8378 7.55078 20.2478C7.55078 20.6578 7.89078 20.9978 8.30078 20.9978H19.6508C20.0608 20.9978 20.4008 20.6578 20.4008 20.2478V7.25781C20.4008 6.84781 20.0608 6.50781 19.6508 6.50781Z" fill="#121212"/>
</svg>
