<svg width="56" height="56" viewBox="0 0 56 56" fill="none" xmlns="http://www.w3.org/2000/svg">
<path opacity="0.2" d="M27.2978 52.5009C37.9554 52.5009 46.595 51.5064 46.595 50.2797C46.595 49.053 37.9554 48.0586 27.2978 48.0586C16.6402 48.0586 8.00049 49.053 8.00049 50.2797C8.00049 51.5064 16.6402 52.5009 27.2978 52.5009Z" fill="url(#paint0_radial_2221_7657)"/>
<path d="M33.1354 16.4375L15.0078 16.471V20.577H21.1836C23.3183 20.577 25.1734 21.8846 25.969 23.7614H15.0255V27.8832H25.969C25.1912 29.7265 23.3361 31.0498 21.1836 31.0498H16.3824L15.0078 34.6025L27.1585 46.1309H30.205L29.9215 43.1493L21.4947 35.1401C25.7662 34.9885 29.2913 31.9223 30.1853 27.8517H33.1492V23.7456H30.1853C29.9372 22.5897 29.4567 21.5164 28.8108 20.5613H33.1492V16.4552L33.1334 16.4375H33.1354Z" fill="url(#paint1_linear_2221_7657)"/>
<path d="M36.1828 16.4375L18.0552 16.471V20.577H24.231C26.3657 20.577 28.2208 21.8846 29.0164 23.7614H18.0729V27.8832H29.0164C28.2385 29.7265 26.3834 31.0498 24.231 31.0498H19.4298L18.0552 34.6025L30.2059 46.1309L32.9708 43.1493L24.5441 35.1401C28.8155 34.9885 32.3406 31.9223 33.2347 27.8517H36.1985V23.7456H33.2347C32.9865 22.5897 32.506 21.5164 31.8601 20.5613H36.1985V16.4552L36.1828 16.4375Z" fill="#CECECE"/>
<g clip-path="url(#clip0_2221_7657)">
<path d="M40 28C46.629 28 52 22.629 52 16C52 9.371 46.629 4 40 4C33.371 4 28 9.371 28 16C28 22.629 33.371 28 40 28Z" fill="url(#paint2_linear_2221_7657)"/>
<path d="M38.2985 20.6415C38.096 20.6415 37.9085 20.559 37.766 20.4165L34.421 17.0415C34.1285 16.749 34.1285 16.269 34.421 15.984C34.7135 15.699 35.1935 15.6915 35.4785 15.984L38.261 18.789L43.8485 12.4215C44.1185 12.1065 44.5985 12.0765 44.906 12.354C45.221 12.624 45.251 13.104 44.9735 13.4115L38.8535 20.3865C38.7185 20.544 38.5235 20.634 38.3135 20.6415C38.306 20.6415 38.2985 20.6415 38.291 20.6415H38.2985Z" fill="white"/>
</g>
<defs>
<radialGradient id="paint0_radial_2221_7657" cx="0" cy="0" r="1" gradientUnits="userSpaceOnUse" gradientTransform="translate(27.2899 50.2815) scale(19.0773 2.24718)">
<stop stop-opacity="0.7"/>
<stop offset="1" stop-color="#414042" stop-opacity="0"/>
</radialGradient>
<linearGradient id="paint1_linear_2221_7657" x1="4.76736" y1="15.0846" x2="41.8339" y2="38.744" gradientUnits="userSpaceOnUse">
<stop stop-color="white"/>
<stop offset="1"/>
</linearGradient>
<linearGradient id="paint2_linear_2221_7657" x1="40" y1="27.7665" x2="40" y2="4.11299" gradientUnits="userSpaceOnUse">
<stop stop-color="#60B447"/>
<stop offset="1" stop-color="#BCEA84"/>
</linearGradient>
<clipPath id="clip0_2221_7657">
<rect width="24" height="24" fill="white" transform="translate(28 4)"/>
</clipPath>
</defs>
</svg>
