<svg width="80" height="80" viewBox="0 0 80 80" fill="none" xmlns="http://www.w3.org/2000/svg">
<path opacity="0.3" d="M40.0152 75.9712C59.8985 75.9378 76.0152 73.1045 75.9985 69.6212C75.9985 66.1545 59.8652 63.3545 39.9819 63.3712C20.0985 63.4045 3.99854 66.2545 3.99854 69.7212C3.99854 73.2045 20.1319 76.0045 40.0152 75.9712Z" fill="url(#paint0_radial_2250_7668)"/>
<path d="M28.0483 5.66C20.3783 10.71 12.8283 12.31 8.5783 12.83C6.5483 13.08 5.0083 14.8 5.0083 16.85V35.32C5.0083 47.17 12.2283 57.8 23.2583 62.24L28.6783 64.42C29.1783 64.62 29.6983 64.7 30.2083 64.7H33.6583L37.1583 62.15C48.2083 57.6 55.4083 46.88 55.4083 35.03V16.54C55.4083 14.51 53.8883 12.81 51.8383 12.57C47.5883 12.1 41.4183 9.97 33.7383 5H30.2183C29.4683 5 28.6983 5.22 28.0483 5.65H28.0283L28.0483 5.66Z" fill="url(#paint1_linear_2250_7668)"/>
<path d="M31.5197 5.66002C23.8397 10.71 16.2997 12.31 12.0397 12.83C10.0097 13.08 8.46973 14.8 8.46973 16.85V35.32C8.46973 47.17 15.6897 57.8 26.7197 62.24L32.1397 64.42C33.1197 64.82 34.2397 64.82 35.2197 64.4L40.6397 62.17C51.6897 57.62 58.8897 46.9 58.8897 35.05V16.54C58.8897 14.51 57.3697 12.81 55.3197 12.57C51.0497 12.1 43.5197 10.57 35.8397 5.62002C34.5397 4.79002 32.8197 4.79002 31.5097 5.64002L31.5297 5.66002H31.5197Z" fill="url(#paint2_linear_2250_7668)"/>
<path d="M31.8193 9.79178C25.2193 14.1218 18.7493 15.4918 15.0993 15.9418C13.3493 16.1418 12.0493 17.6218 12.0493 19.3718V35.2218C12.0493 45.3918 18.2293 54.5218 27.7193 58.3218L32.3693 60.1918C33.2193 60.5418 34.1693 60.5218 34.9993 60.1918L39.6493 58.2718C49.1293 54.3518 55.3193 45.1518 55.3193 34.9918V19.1418C55.3193 17.3918 54.0193 15.9218 52.2693 15.7418C48.6193 15.3418 42.1393 14.0218 35.5493 9.77178C34.4293 9.04178 32.9693 9.05178 31.8293 9.79178H31.8093H31.8193Z" fill="url(#paint3_linear_2250_7668)"/>
<path d="M32.5793 20.2412C28.7293 22.7612 24.9593 23.5712 22.8293 23.8212C21.8093 23.9412 21.0493 24.8012 21.0493 25.8212V35.0512C21.0493 40.9812 24.6493 46.3012 30.1793 48.5212L32.8993 49.6012C33.3993 49.8012 33.9493 49.8012 34.4293 49.6012L37.1493 48.4812C42.6693 46.2012 46.2793 40.8312 46.2793 34.9112V25.6813C46.2793 24.6613 45.5293 23.8113 44.4993 23.7013C42.3693 23.4713 38.5993 22.7013 34.7493 20.2212C34.0993 19.8013 33.2293 19.8013 32.5793 20.2212V20.2412Z" fill="url(#paint4_linear_2250_7668)"/>
<path d="M55.7994 38.9883H51.3994V65.5583H55.7994V38.9883Z" fill="url(#paint5_linear_2250_7668)"/>
<path d="M74.1795 49.7623C74.1795 56.1323 59.3695 65.6223 59.3695 65.6223C59.3695 65.6223 60.7095 65.6223 58.3195 65.6223C49.5595 65.6223 42.4595 58.5223 42.4595 49.7623C42.4595 41.0023 49.5595 33.9023 58.3195 33.9023C60.1495 33.9023 59.7295 33.9023 59.7295 33.9023C59.7295 33.9023 74.1795 45.7623 74.1795 49.7623Z" fill="url(#paint6_linear_2250_7668)"/>
<path d="M59.7301 65.6223C68.4894 65.6223 75.5901 58.5216 75.5901 49.7623C75.5901 41.0031 68.4894 33.9023 59.7301 33.9023C50.9709 33.9023 43.8701 41.0031 43.8701 49.7623C43.8701 58.5216 50.9709 65.6223 59.7301 65.6223Z" fill="url(#paint7_radial_2250_7668)"/>
<path d="M51.8988 46.0004C52.0788 45.7404 52.2388 45.5004 52.4188 45.2804C53.9288 43.3404 55.9088 42.2104 58.3388 41.8804C60.2188 41.6204 61.9988 41.9404 63.6688 42.8404C64.2088 43.1304 64.7088 43.5204 65.2188 43.8704C65.3688 43.9804 65.4788 44.1204 65.3788 44.3204C65.2888 44.5104 65.1288 44.5004 64.9488 44.4704C62.9088 44.1304 60.9888 44.4704 59.2088 45.5404C57.8688 46.3404 56.8588 47.4604 56.0988 48.8104C56.0088 48.9604 56.1088 49.0104 56.1988 49.0804C56.7288 49.4604 57.2488 49.8404 57.7888 50.2104C57.9988 50.3604 58.1088 50.5304 58.0488 50.7904C57.9988 51.0504 57.7988 51.1304 57.5688 51.1704C55.3888 51.5304 53.2088 51.8904 51.0188 52.2504C50.6288 52.3104 50.4388 52.1704 50.3688 51.7804C50.0088 49.6004 49.6488 47.4104 49.2788 45.2304C49.2388 44.9904 49.2888 44.7904 49.4988 44.6604C49.7088 44.5304 49.9088 44.5704 50.1088 44.7204C50.6788 45.1404 51.2588 45.5504 51.8688 45.9804L51.8988 46.0004Z" fill="white"/>
<path d="M67.5793 53.5294C67.1493 54.0394 66.7693 54.5394 66.3293 54.9994C64.8793 56.5094 63.1093 57.3794 61.0393 57.6394C59.1993 57.8794 57.4593 57.5694 55.8293 56.6994C55.2493 56.3894 54.7293 55.9894 54.1993 55.5994C54.1093 55.5394 54.0493 55.3194 54.0893 55.2294C54.1293 55.1394 54.3193 55.0494 54.4393 55.0594C55.0893 55.0794 55.7293 55.1794 56.3793 55.1494C58.5593 55.0294 60.4293 54.1794 61.9493 52.6094C62.5293 52.0094 62.9993 51.3294 63.4093 50.5494C63.1393 50.3594 62.8793 50.1694 62.6193 49.9794C62.2893 49.7394 61.9693 49.5094 61.6293 49.2794C61.4393 49.1494 61.3393 48.9694 61.3793 48.7394C61.4293 48.4894 61.5993 48.3794 61.8393 48.3394C62.5193 48.2294 63.1893 48.1194 63.8693 47.9994C65.3393 47.7594 66.8193 47.5094 68.2893 47.2694C68.8193 47.1794 68.9893 47.2994 69.0793 47.8294C69.4293 49.9594 69.7893 52.0894 70.1393 54.2194C70.1993 54.5794 70.0593 54.8594 69.7693 54.8894C69.6293 54.8994 69.4493 54.8594 69.3293 54.7794C68.7393 54.3694 68.1593 53.9494 67.5893 53.5394L67.5793 53.5294Z" fill="white"/>
<defs>
<radialGradient id="paint0_radial_2250_7668" cx="0" cy="0" r="1" gradientUnits="userSpaceOnUse" gradientTransform="translate(39.6106 70.3555) rotate(-0.33) scale(35.7 5.68333)">
<stop stop-color="#848484"/>
<stop offset="1" stop-color="#878787" stop-opacity="0"/>
</radialGradient>
<linearGradient id="paint1_linear_2250_7668" x1="30.2183" y1="65.18" x2="30.2183" y2="27.61" gradientUnits="userSpaceOnUse">
<stop/>
<stop offset="0.5" stop-color="#666666"/>
<stop offset="0.73" stop-color="#777777"/>
<stop offset="0.95" stop-color="#939393"/>
<stop offset="1" stop-color="#989898"/>
</linearGradient>
<linearGradient id="paint2_linear_2250_7668" x1="19.1197" y1="82.63" x2="49.3897" y2="-31.86" gradientUnits="userSpaceOnUse">
<stop stop-color="#939393"/>
<stop offset="0.1" stop-color="#A3A3A3"/>
<stop offset="0.38" stop-color="#CBCBCB"/>
<stop offset="0.62" stop-color="#E7E7E7"/>
<stop offset="0.84" stop-color="#F8F8F8"/>
<stop offset="1" stop-color="white"/>
</linearGradient>
<linearGradient id="paint3_linear_2250_7668" x1="-62.8607" y1="115.782" x2="55.4193" y2="13.2818" gradientUnits="userSpaceOnUse">
<stop stop-color="#939393"/>
<stop offset="0.1" stop-color="#A3A3A3"/>
<stop offset="0.38" stop-color="#CBCBCB"/>
<stop offset="0.62" stop-color="#E7E7E7"/>
<stop offset="0.84" stop-color="#F8F8F8"/>
<stop offset="1" stop-color="white"/>
</linearGradient>
<linearGradient id="paint4_linear_2250_7668" x1="3.58932" y1="92.3712" x2="53.9093" y2="-8.89875" gradientUnits="userSpaceOnUse">
<stop stop-color="#939393"/>
<stop offset="0.1" stop-color="#A3A3A3"/>
<stop offset="0.38" stop-color="#CBCBCB"/>
<stop offset="0.62" stop-color="#E7E7E7"/>
<stop offset="0.84" stop-color="#F8F8F8"/>
<stop offset="1" stop-color="white"/>
</linearGradient>
<linearGradient id="paint5_linear_2250_7668" x1="53.5994" y1="65.4583" x2="53.5994" y2="38.8883" gradientUnits="userSpaceOnUse">
<stop stop-opacity="0"/>
<stop offset="1"/>
</linearGradient>
<linearGradient id="paint6_linear_2250_7668" x1="49.9095" y1="62.0023" x2="79.6695" y2="13.5923" gradientUnits="userSpaceOnUse">
<stop stop-color="#7C47E1"/>
<stop offset="1" stop-color="#D0BDF4"/>
</linearGradient>
<radialGradient id="paint7_radial_2250_7668" cx="0" cy="0" r="1" gradientUnits="userSpaceOnUse" gradientTransform="translate(68.2201 36.4823) scale(50.17 50.17)">
<stop stop-color="#D0BDF4"/>
<stop offset="1" stop-color="#7C47E1"/>
</radialGradient>
</defs>
</svg>
