<svg width="20" height="20" viewBox="0 0 20 20" fill="none" xmlns="http://www.w3.org/2000/svg">
<path d="M16.6833 1.6665C15.7583 1.6665 15 3.90817 15 6.6665H16.6833C17.4917 6.6665 17.9 6.6665 18.15 6.38317C18.4 6.09984 18.3583 5.73317 18.2667 4.99984C18.0333 3.05817 17.4167 1.6665 16.6833 1.6665Z" stroke="#121212" stroke-width="1.25"/>
<path d="M14.9998 6.70817V15.5332C14.9998 16.7915 14.9998 17.4248 14.6165 17.6748C13.9915 18.0832 13.0165 17.2332 12.5248 16.9248C12.1165 16.6665 11.9165 16.5415 11.6915 16.5332C11.4498 16.5332 11.2415 16.6498 10.8082 16.9248L9.2165 17.9332C8.78317 18.2082 8.57484 18.3415 8.33317 18.3415C8.0915 18.3415 7.88317 18.2082 7.44984 17.9332L5.85817 16.9248C5.45817 16.6665 5.24984 16.5415 5.02484 16.5332C4.78317 16.5332 4.57484 16.6498 4.1415 16.9248C3.64984 17.2332 2.68317 18.0832 2.04984 17.6748C1.6665 17.4248 1.6665 16.7998 1.6665 15.5332V6.70817C1.6665 4.33317 1.6665 3.1415 2.39984 2.40817C3.13317 1.6665 4.30817 1.6665 6.6665 1.6665H16.6665" stroke="#121212" stroke-width="1.25" stroke-linecap="round" stroke-linejoin="round"/>
<path d="M7.3999 6.6665C8.13324 6.6665 8.9499 7.38317 8.8999 8.60817C8.8499 9.78317 8.1499 10.2748 6.6499 10.2748L9.1499 12.4998" stroke="#121212" stroke-width="1.25" stroke-linecap="round" stroke-linejoin="round"/>
<path d="M6.6499 8.5083H9.8499" stroke="#121212" stroke-width="1.25" stroke-linecap="round" stroke-linejoin="round"/>
<path d="M6.6499 6.6665H9.8999" stroke="#121212" stroke-width="1.25" stroke-linecap="round" stroke-linejoin="round"/>
</svg>
