<svg width="80" height="80" viewBox="0 0 80 80" fill="none" xmlns="http://www.w3.org/2000/svg">
<path opacity="0.3" d="M38.0167 77.9712C57.9 77.9378 74.0167 75.1045 74 71.6212C74 68.1545 57.8667 65.3545 37.9833 65.3712C18.1 65.4045 2 68.2545 2 71.7212C2 75.2045 18.1333 78.0045 38.0167 77.9712Z" fill="url(#paint0_radial_2510_21238)"/>
<path d="M29.0498 9.66C21.3798 14.71 13.8298 16.31 9.57977 16.83C7.54977 17.08 6.00977 18.8 6.00977 20.85V39.32C6.00977 51.17 13.2298 61.8 24.2598 66.24L29.6798 68.42C30.1798 68.62 30.6998 68.7 31.2098 68.7H34.6598L38.1598 66.15C49.2098 61.6 56.4098 50.88 56.4098 39.03V20.54C56.4098 18.51 54.8898 16.81 52.8398 16.57C48.5898 16.1 42.4198 13.97 34.7398 9H31.2198C30.4698 9 29.6998 9.22 29.0498 9.65H29.0298L29.0498 9.66Z" fill="url(#paint1_linear_2510_21238)"/>
<path d="M32.5197 9.66002C24.8397 14.71 17.2997 16.31 13.0397 16.83C11.0097 17.08 9.46973 18.8 9.46973 20.85V39.32C9.46973 51.17 16.6897 61.8 27.7197 66.24L33.1397 68.42C34.1197 68.82 35.2397 68.82 36.2197 68.4L41.6397 66.17C52.6897 61.62 59.8897 50.9 59.8897 39.05V20.54C59.8897 18.51 58.3697 16.81 56.3197 16.57C52.0497 16.1 44.5197 14.57 36.8397 9.62002C35.5397 8.79002 33.8197 8.79002 32.5097 9.64002L32.5297 9.66002H32.5197Z" fill="url(#paint2_linear_2510_21238)"/>
<path d="M32.77 13.5613C26.17 17.8913 19.7 19.2613 16.05 19.7113C14.3 19.9113 13 21.3913 13 23.1413V38.9913C13 49.1613 19.18 58.2913 28.67 62.0913L33.32 63.9613C34.17 64.3113 35.12 64.2913 35.95 63.9613L40.6 62.0413C50.08 58.1213 56.27 48.9213 56.27 38.7613V22.9113C56.27 21.1613 54.97 19.6913 53.22 19.5113C49.57 19.1113 43.09 17.7913 36.5 13.5413C35.38 12.8113 33.92 12.8213 32.78 13.5613H32.76H32.77Z" fill="url(#paint3_linear_2510_21238)"/>
<path d="M47.0348 50.9884C47.0348 50.9884 43.6295 52.6825 34.6361 52.6825C25.6427 52.6825 22.2363 50.9884 22.2363 50.9884V49.4068C22.2363 42.5729 27.7851 37.0391 34.635 37.0391C41.485 37.0391 47.0337 42.574 47.0337 49.4068V50.9884H47.0348Z" fill="url(#paint4_linear_2510_21238)"/>
<path d="M34.6348 35.0371C38.0965 35.0371 40.9033 32.2372 40.9033 28.7842C40.9033 25.3311 38.0965 22.5312 34.6348 22.5312C31.1731 22.5312 28.3662 25.3311 28.3662 28.7842C28.3662 32.2372 31.1731 35.0371 34.6348 35.0371Z" fill="url(#paint5_linear_2510_21238)"/>
<path d="M37.8613 50.5176C41.323 50.5176 44.1299 47.7177 44.1299 44.2646C44.1299 40.8116 41.323 38.0117 37.8613 38.0117C34.3996 38.0117 31.5928 40.8116 31.5928 44.2646C31.5928 47.7177 34.3996 50.5176 37.8613 50.5176Z" fill="url(#paint6_radial_2510_21238)"/>
<path d="M35.7828 31.5389C38.0967 31.5389 39.9729 29.6673 39.9729 27.3593C39.9729 25.0512 38.0977 23.1797 35.7828 23.1797C33.4679 23.1797 31.5928 25.0512 31.5928 27.3593C31.5928 29.6673 33.469 31.5389 35.7828 31.5389Z" fill="url(#paint7_radial_2510_21238)"/>
<g clip-path="url(#clip0_2510_21238)">
<path d="M60 70C68.8366 70 76 62.8366 76 54C76 45.1634 68.8366 38 60 38C51.1634 38 44 45.1634 44 54C44 62.8366 51.1634 70 60 70Z" fill="url(#paint8_linear_2510_21238)"/>
<path d="M64.4996 59.5003C64.2396 59.5003 63.9896 59.4003 63.7896 59.2103L54.7896 50.2103C54.3996 49.8203 54.3996 49.1903 54.7896 48.8003C55.1796 48.4103 55.8096 48.4103 56.1996 48.8003L65.1996 57.8003C65.5896 58.1903 65.5896 58.8203 65.1996 59.2103C64.9996 59.4103 64.7496 59.5003 64.4896 59.5003H64.4996Z" fill="white"/>
<path d="M55.4996 59.5003C55.2396 59.5003 54.9896 59.4003 54.7896 59.2103C54.3996 58.8203 54.3996 58.1903 54.7896 57.8003L63.7896 48.8003C64.1796 48.4103 64.8096 48.4103 65.1996 48.8003C65.5896 49.1903 65.5896 49.8203 65.1996 50.2103L56.1996 59.2103C55.9996 59.4103 55.7496 59.5003 55.4896 59.5003H55.4996Z" fill="white"/>
</g>
<defs>
<radialGradient id="paint0_radial_2510_21238" cx="0" cy="0" r="1" gradientUnits="userSpaceOnUse" gradientTransform="translate(37.612 72.3555) rotate(-0.33) scale(35.7 5.68333)">
<stop stop-color="#848484"/>
<stop offset="1" stop-color="#878787" stop-opacity="0"/>
</radialGradient>
<linearGradient id="paint1_linear_2510_21238" x1="31.2198" y1="69.18" x2="31.2198" y2="31.61" gradientUnits="userSpaceOnUse">
<stop/>
<stop offset="0.5" stop-color="#666666"/>
<stop offset="0.73" stop-color="#777777"/>
<stop offset="0.95" stop-color="#939393"/>
<stop offset="1" stop-color="#989898"/>
</linearGradient>
<linearGradient id="paint2_linear_2510_21238" x1="20.1197" y1="86.63" x2="50.3897" y2="-27.86" gradientUnits="userSpaceOnUse">
<stop stop-color="#939393"/>
<stop offset="0.1" stop-color="#A3A3A3"/>
<stop offset="0.38" stop-color="#CBCBCB"/>
<stop offset="0.62" stop-color="#E7E7E7"/>
<stop offset="0.84" stop-color="#F8F8F8"/>
<stop offset="1" stop-color="white"/>
</linearGradient>
<linearGradient id="paint3_linear_2510_21238" x1="-61.91" y1="119.551" x2="56.37" y2="17.0513" gradientUnits="userSpaceOnUse">
<stop stop-color="#939393"/>
<stop offset="0.1" stop-color="#A3A3A3"/>
<stop offset="0.38" stop-color="#CBCBCB"/>
<stop offset="0.62" stop-color="#E7E7E7"/>
<stop offset="0.84" stop-color="#F8F8F8"/>
<stop offset="1" stop-color="white"/>
</linearGradient>
<linearGradient id="paint4_linear_2510_21238" x1="34.0824" y1="53.6098" x2="35.4525" y2="43.9963" gradientUnits="userSpaceOnUse">
<stop stop-color="#656565"/>
<stop offset="0.23" stop-color="#A9A9A9"/>
<stop offset="1" stop-color="#D7D7D7"/>
</linearGradient>
<linearGradient id="paint5_linear_2510_21238" x1="33.4209" y1="34.9893" x2="34.524" y2="29.3238" gradientUnits="userSpaceOnUse">
<stop stop-color="#525252"/>
<stop offset="1" stop-color="#E3E3E3"/>
</linearGradient>
<radialGradient id="paint6_radial_2510_21238" cx="0" cy="0" r="1" gradientUnits="userSpaceOnUse" gradientTransform="translate(37.9835 45.1187) scale(6.26446 6.24883)">
<stop stop-color="white"/>
<stop offset="1" stop-color="white" stop-opacity="0"/>
</radialGradient>
<radialGradient id="paint7_radial_2510_21238" cx="0" cy="0" r="1" gradientUnits="userSpaceOnUse" gradientTransform="translate(35.9198 28.2715) scale(4.18549 4.17504)">
<stop stop-color="white"/>
<stop offset="1" stop-color="white" stop-opacity="0"/>
</radialGradient>
<linearGradient id="paint8_linear_2510_21238" x1="60" y1="38.25" x2="60" y2="69.26" gradientUnits="userSpaceOnUse">
<stop stop-color="#FFA1A5"/>
<stop offset="1" stop-color="#FB7B7A"/>
</linearGradient>
<clipPath id="clip0_2510_21238">
<rect width="32" height="32" fill="white" transform="translate(44 38)"/>
</clipPath>
</defs>
</svg>
