<svg width="80" height="80" viewBox="0 0 80 80" fill="none" xmlns="http://www.w3.org/2000/svg">
<path opacity="0.3" d="M38.0167 77.9712C57.9 77.9378 74.0167 75.1045 74 71.6212C74 68.1545 57.8667 65.3545 37.9833 65.3712C18.1 65.4045 2 68.2545 2 71.7212C2 75.2045 18.1333 78.0045 38.0167 77.9712Z" fill="url(#paint0_radial_2508_21214)"/>
<path d="M29.0498 9.66C21.3798 14.71 13.8298 16.31 9.57977 16.83C7.54977 17.08 6.00977 18.8 6.00977 20.85V39.32C6.00977 51.17 13.2298 61.8 24.2598 66.24L29.6798 68.42C30.1798 68.62 30.6998 68.7 31.2098 68.7H34.6598L38.1598 66.15C49.2098 61.6 56.4098 50.88 56.4098 39.03V20.54C56.4098 18.51 54.8898 16.81 52.8398 16.57C48.5898 16.1 42.4198 13.97 34.7398 9H31.2198C30.4698 9 29.6998 9.22 29.0498 9.65H29.0298L29.0498 9.66Z" fill="url(#paint1_linear_2508_21214)"/>
<path d="M32.5197 9.66002C24.8397 14.71 17.2997 16.31 13.0397 16.83C11.0097 17.08 9.46973 18.8 9.46973 20.85V39.32C9.46973 51.17 16.6897 61.8 27.7197 66.24L33.1397 68.42C34.1197 68.82 35.2397 68.82 36.2197 68.4L41.6397 66.17C52.6897 61.62 59.8897 50.9 59.8897 39.05V20.54C59.8897 18.51 58.3697 16.81 56.3197 16.57C52.0497 16.1 44.5197 14.57 36.8397 9.62002C35.5397 8.79002 33.8197 8.79002 32.5097 9.64002L32.5297 9.66002H32.5197Z" fill="url(#paint2_linear_2508_21214)"/>
<path d="M32.77 13.5613C26.17 17.8913 19.7 19.2613 16.05 19.7113C14.3 19.9113 13 21.3913 13 23.1413V38.9913C13 49.1613 19.18 58.2913 28.67 62.0913L33.32 63.9613C34.17 64.3113 35.12 64.2913 35.95 63.9613L40.6 62.0413C50.08 58.1213 56.27 48.9213 56.27 38.7613V22.9113C56.27 21.1613 54.97 19.6913 53.22 19.5113C49.57 19.1113 43.09 17.7913 36.5 13.5413C35.38 12.8113 33.92 12.8213 32.78 13.5613H32.76H32.77Z" fill="url(#paint3_linear_2508_21214)"/>
<path d="M47.0343 50.9884C47.0343 50.9884 43.629 52.6825 34.6356 52.6825C25.6422 52.6825 22.2358 50.9884 22.2358 50.9884V49.4068C22.2358 42.5729 27.7846 37.0391 34.6345 37.0391C41.4845 37.0391 47.0332 42.574 47.0332 49.4068V50.9884H47.0343Z" fill="url(#paint4_linear_2508_21214)"/>
<path d="M34.6338 35.0371C38.0955 35.0371 40.9024 32.2372 40.9024 28.7842C40.9024 25.3311 38.0955 22.5312 34.6338 22.5312C31.1721 22.5312 28.3652 25.3311 28.3652 28.7842C28.3652 32.2372 31.1721 35.0371 34.6338 35.0371Z" fill="url(#paint5_linear_2508_21214)"/>
<path d="M37.8613 50.5176C41.323 50.5176 44.1299 47.7177 44.1299 44.2646C44.1299 40.8116 41.323 38.0117 37.8613 38.0117C34.3996 38.0117 31.5928 40.8116 31.5928 44.2646C31.5928 47.7177 34.3996 50.5176 37.8613 50.5176Z" fill="url(#paint6_radial_2508_21214)"/>
<path d="M35.7828 31.5389C38.0967 31.5389 39.9729 29.6673 39.9729 27.3593C39.9729 25.0512 38.0977 23.1797 35.7828 23.1797C33.4679 23.1797 31.5928 25.0512 31.5928 27.3593C31.5928 29.6673 33.469 31.5389 35.7828 31.5389Z" fill="url(#paint7_radial_2508_21214)"/>
<path d="M56.7994 42.9883H52.3994V69.5583H56.7994V42.9883Z" fill="url(#paint8_linear_2508_21214)"/>
<path d="M75.1795 53.7623C75.1795 60.1323 60.3695 69.6223 60.3695 69.6223C60.3695 69.6223 61.7095 69.6223 59.3195 69.6223C50.5595 69.6223 43.4595 62.5223 43.4595 53.7623C43.4595 45.0023 50.5595 37.9023 59.3195 37.9023C61.1495 37.9023 60.7295 37.9023 60.7295 37.9023C60.7295 37.9023 75.1795 49.7623 75.1795 53.7623Z" fill="url(#paint9_linear_2508_21214)"/>
<path d="M60.7301 69.6223C69.4894 69.6223 76.5901 62.5216 76.5901 53.7623C76.5901 45.0031 69.4894 37.9023 60.7301 37.9023C51.9709 37.9023 44.8701 45.0031 44.8701 53.7623C44.8701 62.5216 51.9709 69.6223 60.7301 69.6223Z" fill="url(#paint10_radial_2508_21214)"/>
<path d="M52.8988 50.0004C53.0788 49.7404 53.2388 49.5004 53.4188 49.2804C54.9288 47.3404 56.9088 46.2104 59.3388 45.8804C61.2188 45.6204 62.9988 45.9404 64.6688 46.8404C65.2088 47.1304 65.7088 47.5204 66.2188 47.8704C66.3688 47.9804 66.4788 48.1204 66.3788 48.3204C66.2888 48.5104 66.1288 48.5004 65.9488 48.4704C63.9088 48.1304 61.9888 48.4704 60.2088 49.5404C58.8688 50.3404 57.8588 51.4604 57.0988 52.8104C57.0088 52.9604 57.1088 53.0104 57.1988 53.0804C57.7288 53.4604 58.2488 53.8404 58.7888 54.2104C58.9988 54.3604 59.1088 54.5304 59.0488 54.7904C58.9988 55.0504 58.7988 55.1304 58.5688 55.1704C56.3888 55.5304 54.2088 55.8904 52.0188 56.2504C51.6288 56.3104 51.4388 56.1704 51.3688 55.7804C51.0088 53.6004 50.6488 51.4104 50.2788 49.2304C50.2388 48.9904 50.2888 48.7904 50.4988 48.6604C50.7088 48.5304 50.9088 48.5704 51.1088 48.7204C51.6788 49.1404 52.2588 49.5504 52.8688 49.9804L52.8988 50.0004Z" fill="white"/>
<path d="M68.5793 57.5294C68.1493 58.0394 67.7693 58.5394 67.3293 58.9994C65.8793 60.5094 64.1093 61.3794 62.0393 61.6394C60.1993 61.8794 58.4593 61.5694 56.8293 60.6994C56.2493 60.3894 55.7293 59.9894 55.1993 59.5994C55.1093 59.5394 55.0493 59.3194 55.0893 59.2294C55.1293 59.1394 55.3193 59.0494 55.4393 59.0594C56.0893 59.0794 56.7293 59.1794 57.3793 59.1494C59.5593 59.0294 61.4293 58.1794 62.9493 56.6094C63.5293 56.0094 63.9993 55.3294 64.4093 54.5494C64.1393 54.3594 63.8793 54.1694 63.6193 53.9794C63.2893 53.7394 62.9693 53.5094 62.6293 53.2794C62.4393 53.1494 62.3393 52.9694 62.3793 52.7394C62.4293 52.4894 62.5993 52.3794 62.8393 52.3394C63.5193 52.2294 64.1893 52.1194 64.8693 51.9994C66.3393 51.7594 67.8193 51.5094 69.2893 51.2694C69.8193 51.1794 69.9893 51.2994 70.0793 51.8294C70.4293 53.9594 70.7893 56.0894 71.1393 58.2194C71.1993 58.5794 71.0593 58.8594 70.7693 58.8894C70.6293 58.8994 70.4493 58.8594 70.3293 58.7794C69.7393 58.3694 69.1593 57.9494 68.5893 57.5394L68.5793 57.5294Z" fill="white"/>
<defs>
<radialGradient id="paint0_radial_2508_21214" cx="0" cy="0" r="1" gradientUnits="userSpaceOnUse" gradientTransform="translate(37.612 72.3555) rotate(-0.33) scale(35.7 5.68333)">
<stop stop-color="#848484"/>
<stop offset="1" stop-color="#878787" stop-opacity="0"/>
</radialGradient>
<linearGradient id="paint1_linear_2508_21214" x1="31.2198" y1="69.18" x2="31.2198" y2="31.61" gradientUnits="userSpaceOnUse">
<stop/>
<stop offset="0.5" stop-color="#666666"/>
<stop offset="0.73" stop-color="#777777"/>
<stop offset="0.95" stop-color="#939393"/>
<stop offset="1" stop-color="#989898"/>
</linearGradient>
<linearGradient id="paint2_linear_2508_21214" x1="20.1197" y1="86.63" x2="50.3897" y2="-27.86" gradientUnits="userSpaceOnUse">
<stop stop-color="#939393"/>
<stop offset="0.1" stop-color="#A3A3A3"/>
<stop offset="0.38" stop-color="#CBCBCB"/>
<stop offset="0.62" stop-color="#E7E7E7"/>
<stop offset="0.84" stop-color="#F8F8F8"/>
<stop offset="1" stop-color="white"/>
</linearGradient>
<linearGradient id="paint3_linear_2508_21214" x1="-61.91" y1="119.551" x2="56.37" y2="17.0513" gradientUnits="userSpaceOnUse">
<stop stop-color="#939393"/>
<stop offset="0.1" stop-color="#A3A3A3"/>
<stop offset="0.38" stop-color="#CBCBCB"/>
<stop offset="0.62" stop-color="#E7E7E7"/>
<stop offset="0.84" stop-color="#F8F8F8"/>
<stop offset="1" stop-color="white"/>
</linearGradient>
<linearGradient id="paint4_linear_2508_21214" x1="34.0819" y1="53.6098" x2="35.452" y2="43.9963" gradientUnits="userSpaceOnUse">
<stop stop-color="#656565"/>
<stop offset="0.23" stop-color="#A9A9A9"/>
<stop offset="1" stop-color="#D7D7D7"/>
</linearGradient>
<linearGradient id="paint5_linear_2508_21214" x1="33.4199" y1="34.9893" x2="34.5231" y2="29.3238" gradientUnits="userSpaceOnUse">
<stop stop-color="#525252"/>
<stop offset="1" stop-color="#E3E3E3"/>
</linearGradient>
<radialGradient id="paint6_radial_2508_21214" cx="0" cy="0" r="1" gradientUnits="userSpaceOnUse" gradientTransform="translate(37.9835 45.1187) scale(6.26446 6.24883)">
<stop stop-color="white"/>
<stop offset="1" stop-color="white" stop-opacity="0"/>
</radialGradient>
<radialGradient id="paint7_radial_2508_21214" cx="0" cy="0" r="1" gradientUnits="userSpaceOnUse" gradientTransform="translate(35.9198 28.2715) scale(4.18549 4.17504)">
<stop stop-color="white"/>
<stop offset="1" stop-color="white" stop-opacity="0"/>
</radialGradient>
<linearGradient id="paint8_linear_2508_21214" x1="54.5994" y1="69.4583" x2="54.5994" y2="42.8883" gradientUnits="userSpaceOnUse">
<stop stop-opacity="0"/>
<stop offset="1"/>
</linearGradient>
<linearGradient id="paint9_linear_2508_21214" x1="50.9095" y1="66.0023" x2="80.6695" y2="17.5923" gradientUnits="userSpaceOnUse">
<stop stop-color="#7C47E1"/>
<stop offset="1" stop-color="#D0BDF4"/>
</linearGradient>
<radialGradient id="paint10_radial_2508_21214" cx="0" cy="0" r="1" gradientUnits="userSpaceOnUse" gradientTransform="translate(69.2201 40.4823) scale(50.17 50.17)">
<stop stop-color="#D0BDF4"/>
<stop offset="1" stop-color="#7C47E1"/>
</radialGradient>
</defs>
</svg>
