<svg width="80" height="80" viewBox="0 0 80 80" fill="none" xmlns="http://www.w3.org/2000/svg">
<path opacity="0.3" d="M38.0157 77.9751C57.899 77.9417 74.0157 75.1084 73.999 71.6251C73.999 68.1584 57.8657 65.3584 37.9824 65.3751C18.099 65.4084 1.99902 68.2584 1.99902 71.7251C1.99902 75.2084 18.1324 78.0084 38.0157 77.9751Z" fill="url(#paint0_radial_2179_8514)"/>
<path d="M29.0517 9.66C21.3817 14.71 13.8317 16.31 9.58172 16.83C7.55172 17.08 6.01172 18.8 6.01172 20.85V39.32C6.01172 51.17 13.2317 61.8 24.2617 66.24L29.6817 68.42C30.1817 68.62 30.7017 68.7 31.2117 68.7H34.6617L38.1617 66.15C49.2117 61.6 56.4117 50.88 56.4117 39.03V20.54C56.4117 18.51 54.8917 16.81 52.8417 16.57C48.5917 16.1 42.4217 13.97 34.7417 9H31.2217C30.4717 9 29.7017 9.22 29.0517 9.65H29.0317L29.0517 9.66Z" fill="url(#paint1_linear_2179_8514)"/>
<path d="M32.5188 9.66002C24.8388 14.71 17.2988 16.31 13.0388 16.83C11.0088 17.08 9.46875 18.8 9.46875 20.85V39.32C9.46875 51.17 16.6888 61.8 27.7188 66.24L33.1388 68.42C34.1188 68.82 35.2387 68.82 36.2188 68.4L41.6387 66.17C52.6887 61.62 59.8887 50.9 59.8887 39.05V20.54C59.8887 18.51 58.3687 16.81 56.3187 16.57C52.0487 16.1 44.5188 14.57 36.8388 9.62002C35.5388 8.79002 33.8188 8.79002 32.5088 9.64002L32.5288 9.66002H32.5188Z" fill="url(#paint2_linear_2179_8514)"/>
<path d="M32.769 13.5574C26.169 17.8874 19.699 19.2574 16.049 19.7074C14.299 19.9074 12.999 21.3874 12.999 23.1374V38.9874C12.999 49.1574 19.179 58.2874 28.669 62.0874L33.319 63.9574C34.169 64.3074 35.119 64.2874 35.949 63.9574L40.599 62.0374C50.079 58.1174 56.269 48.9174 56.269 38.7574V22.9074C56.269 21.1574 54.969 19.6874 53.219 19.5074C49.569 19.1074 43.089 17.7874 36.499 13.5374C35.379 12.8074 33.919 12.8174 32.779 13.5574H32.759H32.769Z" fill="url(#paint3_linear_2179_8514)"/>
<path d="M47.0338 50.9923C47.0338 50.9923 43.6285 52.6864 34.6351 52.6864C25.6417 52.6864 22.2354 50.9923 22.2354 50.9923V49.4107C22.2354 42.5768 27.7841 37.043 34.634 37.043C41.484 37.043 47.0327 42.5779 47.0327 49.4107V50.9923H47.0338Z" fill="url(#paint4_linear_2179_8514)"/>
<path d="M34.6318 35.0332C38.0936 35.0332 40.9004 32.2333 40.9004 28.7803C40.9004 25.3272 38.0936 22.5273 34.6318 22.5273C31.1701 22.5273 28.3633 25.3272 28.3633 28.7803C28.3633 32.2333 31.1701 35.0332 34.6318 35.0332Z" fill="url(#paint5_linear_2179_8514)"/>
<path d="M37.8604 50.5176C41.3221 50.5176 44.1289 47.7177 44.1289 44.2646C44.1289 40.8116 41.3221 38.0117 37.8604 38.0117C34.3986 38.0117 31.5918 40.8116 31.5918 44.2646C31.5918 47.7177 34.3986 50.5176 37.8604 50.5176Z" fill="url(#paint6_radial_2179_8514)"/>
<path d="M35.7818 31.5467C38.0957 31.5467 39.9719 29.6752 39.9719 27.3671C39.9719 25.059 38.0967 23.1875 35.7818 23.1875C33.4669 23.1875 31.5918 25.059 31.5918 27.3671C31.5918 29.6752 33.468 31.5467 35.7818 31.5467Z" fill="url(#paint7_radial_2179_8514)"/>
<path d="M75.18 53.7623C75.18 60.1323 60.37 69.6223 60.37 69.6223C60.37 69.6223 61.71 69.6223 59.32 69.6223C50.56 69.6223 43.46 62.5223 43.46 53.7623C43.46 45.0023 50.56 37.9023 59.32 37.9023C61.15 37.9023 60.73 37.9023 60.73 37.9023C60.73 37.9023 75.18 49.7623 75.18 53.7623Z" fill="url(#paint8_linear_2179_8514)"/>
<path d="M60.7272 69.6223C69.4864 69.6223 76.5872 62.5216 76.5872 53.7623C76.5872 45.0031 69.4864 37.9023 60.7272 37.9023C51.968 37.9023 44.8672 45.0031 44.8672 53.7623C44.8672 62.5216 51.968 69.6223 60.7272 69.6223Z" fill="url(#paint9_radial_2179_8514)"/>
<path d="M57.9997 59.8541L51.1762 53.9467C50.9309 53.7337 50.9309 53.4044 51.1762 53.1914L53.0493 51.5838C53.2946 51.3707 53.6737 51.3707 53.9189 51.5838L58.4457 55.4962L67.5437 47.652C67.789 47.4389 68.1681 47.4389 68.4134 47.652L70.2865 49.2596C70.5318 49.4726 70.5318 49.8019 70.2865 50.0149L58.8916 59.8541C58.6464 60.0672 58.2673 60.0672 58.022 59.8541H57.9997Z" fill="#8C6FD1"/>
<path d="M57.4991 59.8541L51.163 53.9467C50.9352 53.7337 50.9352 53.4044 51.163 53.1914L52.9023 51.5838C53.1301 51.3707 53.4821 51.3707 53.7099 51.5838L57.9133 55.4962L66.3614 47.652C66.5892 47.4389 66.9412 47.4389 67.169 47.652L68.9083 49.2596C69.1361 49.4726 69.1361 49.8019 68.9083 50.0149L58.3274 59.8541C58.0996 60.0672 57.7476 60.0672 57.5198 59.8541H57.4991Z" fill="white"/>
<defs>
<radialGradient id="paint0_radial_2179_8514" cx="0" cy="0" r="1" gradientUnits="userSpaceOnUse" gradientTransform="translate(37.6111 72.3594) rotate(-0.33) scale(35.7 5.68333)">
<stop stop-color="#848484"/>
<stop offset="1" stop-color="#878787" stop-opacity="0"/>
</radialGradient>
<linearGradient id="paint1_linear_2179_8514" x1="31.2217" y1="69.18" x2="31.2217" y2="31.61" gradientUnits="userSpaceOnUse">
<stop/>
<stop offset="0.5" stop-color="#666666"/>
<stop offset="0.73" stop-color="#777777"/>
<stop offset="0.95" stop-color="#939393"/>
<stop offset="1" stop-color="#989898"/>
</linearGradient>
<linearGradient id="paint2_linear_2179_8514" x1="20.1188" y1="86.63" x2="50.3888" y2="-27.86" gradientUnits="userSpaceOnUse">
<stop stop-color="#939393"/>
<stop offset="0.1" stop-color="#A3A3A3"/>
<stop offset="0.38" stop-color="#CBCBCB"/>
<stop offset="0.62" stop-color="#E7E7E7"/>
<stop offset="0.84" stop-color="#F8F8F8"/>
<stop offset="1" stop-color="white"/>
</linearGradient>
<linearGradient id="paint3_linear_2179_8514" x1="-61.911" y1="119.547" x2="56.369" y2="17.0474" gradientUnits="userSpaceOnUse">
<stop stop-color="#939393"/>
<stop offset="0.1" stop-color="#A3A3A3"/>
<stop offset="0.38" stop-color="#CBCBCB"/>
<stop offset="0.62" stop-color="#E7E7E7"/>
<stop offset="0.84" stop-color="#F8F8F8"/>
<stop offset="1" stop-color="white"/>
</linearGradient>
<linearGradient id="paint4_linear_2179_8514" x1="34.0814" y1="53.6137" x2="35.4515" y2="44.0002" gradientUnits="userSpaceOnUse">
<stop stop-color="#656565"/>
<stop offset="0.23" stop-color="#A9A9A9"/>
<stop offset="1" stop-color="#D7D7D7"/>
</linearGradient>
<linearGradient id="paint5_linear_2179_8514" x1="33.418" y1="34.9854" x2="34.5211" y2="29.3199" gradientUnits="userSpaceOnUse">
<stop stop-color="#525252"/>
<stop offset="1" stop-color="#E3E3E3"/>
</linearGradient>
<radialGradient id="paint6_radial_2179_8514" cx="0" cy="0" r="1" gradientUnits="userSpaceOnUse" gradientTransform="translate(37.9825 45.1187) scale(6.26446 6.24883)">
<stop stop-color="white"/>
<stop offset="1" stop-color="white" stop-opacity="0"/>
</radialGradient>
<radialGradient id="paint7_radial_2179_8514" cx="0" cy="0" r="1" gradientUnits="userSpaceOnUse" gradientTransform="translate(35.9188 28.2794) scale(4.18549 4.17504)">
<stop stop-color="white"/>
<stop offset="1" stop-color="white" stop-opacity="0"/>
</radialGradient>
<linearGradient id="paint8_linear_2179_8514" x1="50.91" y1="66.0023" x2="80.67" y2="17.5923" gradientUnits="userSpaceOnUse">
<stop stop-color="#7C47E1"/>
<stop offset="1" stop-color="#D0BDF4"/>
</linearGradient>
<radialGradient id="paint9_radial_2179_8514" cx="0" cy="0" r="1" gradientUnits="userSpaceOnUse" gradientTransform="translate(69.2172 40.4823) scale(50.17)">
<stop stop-color="#D0BDF4"/>
<stop offset="1" stop-color="#7C47E1"/>
</radialGradient>
</defs>
</svg>
