<svg width="56" height="56" viewBox="0 0 56 56" fill="none" xmlns="http://www.w3.org/2000/svg">
<path d="M18.3685 30.2734H8.6875V49.2854H18.3685V30.2734Z" fill="url(#paint0_linear_2221_7624)"/>
<path d="M18.3755 36.3494L8.6875 43.2164V30.2734H18.3755V36.3494Z" fill="url(#paint1_linear_2221_7624)"/>
<path d="M47.4955 31.5547H18.3755V49.2927H47.4955V31.5547Z" fill="url(#paint2_linear_2221_7624)"/>
<path d="M18.3755 45.1207H33.8595L47.4885 31.5547H18.3755V45.1207Z" fill="url(#paint3_linear_2221_7624)"/>
<path d="M34.8463 16.6875L34.9583 31.5555H4.63428V30.7015L21.1053 16.6875H34.8463Z" fill="url(#paint4_linear_2221_7624)"/>
<path d="M10.9625 47.1992H8.6875V49.1592H10.9625V47.1992Z" fill="#B5B5B5"/>
<path d="M38.0379 49.1602V49.6852V50.2452H4.17188V49.6852V49.1602H38.0379Z" fill="url(#paint5_linear_2221_7624)"/>
<path d="M39.4108 50.2461V50.7711V51.3381H2.80078V50.7711V50.2461H39.4108Z" fill="url(#paint6_linear_2221_7624)"/>
<path d="M18.3755 30.7015L34.8465 16.6875L51.5485 30.8975V31.5555H18.3755V30.7015Z" fill="url(#paint7_linear_2221_7624)"/>
<path d="M49.7701 47.1992H47.4951V49.1592H49.7701V47.1992Z" fill="#CDCDCD"/>
<path d="M41.4059 47.1992H39.1309V49.1592H41.4059V47.1992Z" fill="#CDCDCD"/>
<path d="M33.0543 47.1992H30.7793V49.1592H33.0543V47.1992Z" fill="#CDCDCD"/>
<path d="M24.7032 47.1992H22.4282V49.1592H24.7032V47.1992Z" fill="#CDCDCD"/>
<path d="M22.4289 47.1992H19.8179V49.1592H22.4289V47.1992Z" fill="url(#paint8_linear_2221_7624)"/>
<path d="M8.68717 47.1992H6.07617V49.1592H8.68717V47.1992Z" fill="url(#paint9_linear_2221_7624)"/>
<path d="M30.7799 47.1992H28.1689V49.1592H30.7799V47.1992Z" fill="url(#paint10_linear_2221_7624)"/>
<path d="M39.1374 47.1992H36.5264V49.1592H39.1374V47.1992Z" fill="url(#paint11_linear_2221_7624)"/>
<path d="M47.5797 47.1797H44.9688V49.1397H47.5797V47.1797Z" fill="url(#paint12_linear_2221_7624)"/>
<path d="M49.2529 31.5547H45.6689V47.1997H49.2529V31.5547Z" fill="url(#paint13_linear_2221_7624)"/>
<path d="M40.9224 31.5547H37.3384V47.1997H40.9224V31.5547Z" fill="url(#paint14_linear_2221_7624)"/>
<path d="M32.5713 31.5547H28.9873V47.1997H32.5713V31.5547Z" fill="url(#paint15_linear_2221_7624)"/>
<path d="M24.2207 31.5547H20.6367V47.1997H24.2207V31.5547Z" fill="url(#paint16_linear_2221_7624)"/>
<path d="M10.4795 31.5547H6.89551V47.1997H10.4795V31.5547Z" fill="url(#paint17_linear_2221_7624)"/>
<path d="M51.7791 49.1602V49.6852V50.2452H17.9131V49.6852V49.1602H51.7791Z" fill="url(#paint18_linear_2221_7624)"/>
<path d="M53.152 50.2461V50.7711V51.3381H16.542V50.7711V50.2461H53.152Z" fill="url(#paint19_linear_2221_7624)"/>
<path d="M35.3438 28.5897C36.8283 28.5897 38.0318 27.2107 38.0318 25.5097C38.0318 23.8087 36.8283 22.4297 35.3438 22.4297C33.8592 22.4297 32.6558 23.8087 32.6558 25.5097C32.6558 27.2107 33.8592 28.5897 35.3438 28.5897Z" fill="url(#paint20_linear_2221_7624)"/>
<g clip-path="url(#clip0_2221_7624)">
<path d="M44.6265 20.125C49.4601 20.125 53.3765 16.2086 53.3765 11.375C53.3765 6.54135 49.4601 2.625 44.6265 2.625C39.7928 2.625 35.8765 6.54135 35.8765 11.375C35.8765 16.2086 39.7928 20.125 44.6265 20.125Z" fill="url(#paint21_linear_2221_7624)"/>
<path d="M43.3857 14.7596C43.2381 14.7596 43.1014 14.6994 42.9975 14.5955L40.5584 12.1346C40.3451 11.9213 40.3451 11.5713 40.5584 11.3635C40.7717 11.1557 41.1217 11.1502 41.3295 11.3635L43.3584 13.4088L47.4326 8.76584C47.6295 8.53615 47.9795 8.51428 48.2037 8.71662C48.4334 8.9135 48.4553 9.2635 48.2529 9.48772L43.7904 14.5737C43.692 14.6885 43.5498 14.7541 43.3967 14.7596C43.3912 14.7596 43.3857 14.7596 43.3803 14.7596H43.3857Z" fill="white"/>
</g>
<defs>
<linearGradient id="paint0_linear_2221_7624" x1="15.0155" y1="28.6634" x2="10.5145" y2="62.3264" gradientUnits="userSpaceOnUse">
<stop stop-color="#666666"/>
<stop offset="1" stop-color="#FAFAFA"/>
</linearGradient>
<linearGradient id="paint1_linear_2221_7624" x1="14.1335" y1="27.4034" x2="12.7125" y2="41.3824" gradientUnits="userSpaceOnUse">
<stop stop-color="#4D4D4D"/>
<stop offset="1" stop-color="#4D4D4D" stop-opacity="0"/>
</linearGradient>
<linearGradient id="paint2_linear_2221_7624" x1="35.5045" y1="35.5447" x2="19.0755" y2="66.6527" gradientUnits="userSpaceOnUse">
<stop stop-color="#999999"/>
<stop offset="1" stop-color="#FAFAFA"/>
</linearGradient>
<linearGradient id="paint3_linear_2221_7624" x1="33.0195" y1="27.5297" x2="32.6975" y2="42.1317" gradientUnits="userSpaceOnUse">
<stop stop-color="#616161"/>
<stop offset="1" stop-color="#616161" stop-opacity="0"/>
</linearGradient>
<linearGradient id="paint4_linear_2221_7624" x1="-28.5737" y1="23.9745" x2="47.1313" y2="24.2055" gradientUnits="userSpaceOnUse">
<stop stop-color="#F1F1F1"/>
<stop offset="1" stop-color="#9B9B9B"/>
</linearGradient>
<linearGradient id="paint5_linear_2221_7624" x1="1.40687" y1="49.7062" x2="35.2729" y2="49.7062" gradientUnits="userSpaceOnUse">
<stop stop-color="#8E8E8E"/>
<stop offset="0.1" stop-color="#9E9E9E"/>
<stop offset="0.38" stop-color="#C6C6C6"/>
<stop offset="0.62" stop-color="#E2E2E2"/>
<stop offset="0.84" stop-color="#F3F3F3"/>
<stop offset="1" stop-color="#FAFAFA"/>
</linearGradient>
<linearGradient id="paint6_linear_2221_7624" x1="2.80078" y1="50.7921" x2="39.4108" y2="50.7921" gradientUnits="userSpaceOnUse">
<stop stop-color="#8E8E8E"/>
<stop offset="0.1" stop-color="#9E9E9E"/>
<stop offset="0.38" stop-color="#C6C6C6"/>
<stop offset="0.62" stop-color="#E2E2E2"/>
<stop offset="0.84" stop-color="#F3F3F3"/>
<stop offset="1" stop-color="#FAFAFA"/>
</linearGradient>
<linearGradient id="paint7_linear_2221_7624" x1="-8.29451" y1="23.9675" x2="48.7695" y2="24.2195" gradientUnits="userSpaceOnUse">
<stop stop-color="#9B9B9B"/>
<stop offset="1" stop-color="#F1F1F1"/>
</linearGradient>
<linearGradient id="paint8_linear_2221_7624" x1="18.7889" y1="48.1792" x2="27.9309" y2="48.1792" gradientUnits="userSpaceOnUse">
<stop stop-color="#9B9B9B"/>
<stop offset="1" stop-color="#F1F1F1"/>
</linearGradient>
<linearGradient id="paint9_linear_2221_7624" x1="5.05417" y1="48.1792" x2="14.1962" y2="48.1792" gradientUnits="userSpaceOnUse">
<stop stop-color="#9B9B9B"/>
<stop offset="1" stop-color="#F1F1F1"/>
</linearGradient>
<linearGradient id="paint10_linear_2221_7624" x1="27.1469" y1="48.1792" x2="36.2889" y2="48.1792" gradientUnits="userSpaceOnUse">
<stop stop-color="#9B9B9B"/>
<stop offset="1" stop-color="#F1F1F1"/>
</linearGradient>
<linearGradient id="paint11_linear_2221_7624" x1="35.4974" y1="48.1792" x2="44.6394" y2="48.1792" gradientUnits="userSpaceOnUse">
<stop stop-color="#9B9B9B"/>
<stop offset="1" stop-color="#F1F1F1"/>
</linearGradient>
<linearGradient id="paint12_linear_2221_7624" x1="43.9398" y1="48.1597" x2="53.0817" y2="48.1597" gradientUnits="userSpaceOnUse">
<stop stop-color="#9B9B9B"/>
<stop offset="1" stop-color="#F1F1F1"/>
</linearGradient>
<linearGradient id="paint13_linear_2221_7624" x1="45.7459" y1="39.3737" x2="49.2039" y2="39.3737" gradientUnits="userSpaceOnUse">
<stop stop-color="#C7C7C7"/>
<stop offset="1" stop-color="#F1F1F1"/>
</linearGradient>
<linearGradient id="paint14_linear_2221_7624" x1="37.2334" y1="4.89869" x2="40.7474" y2="4.89869" gradientUnits="userSpaceOnUse">
<stop stop-color="#C7C7C7"/>
<stop offset="1" stop-color="#F1F1F1"/>
</linearGradient>
<linearGradient id="paint15_linear_2221_7624" x1="29.0223" y1="4.89869" x2="32.9003" y2="4.89869" gradientUnits="userSpaceOnUse">
<stop stop-color="#C7C7C7"/>
<stop offset="1" stop-color="#F1F1F1"/>
</linearGradient>
<linearGradient id="paint16_linear_2221_7624" x1="20.5597" y1="4.89869" x2="23.7587" y2="4.89869" gradientUnits="userSpaceOnUse">
<stop stop-color="#C7C7C7"/>
<stop offset="1" stop-color="#F1F1F1"/>
</linearGradient>
<linearGradient id="paint17_linear_2221_7624" x1="6.89551" y1="4.89869" x2="10.4795" y2="4.89869" gradientUnits="userSpaceOnUse">
<stop stop-color="#C7C7C7"/>
<stop offset="1" stop-color="#F1F1F1"/>
</linearGradient>
<linearGradient id="paint18_linear_2221_7624" x1="2.62508" y1="49.7062" x2="43.9461" y2="49.7062" gradientUnits="userSpaceOnUse">
<stop stop-color="#9B9B9B"/>
<stop offset="1" stop-color="#F1F1F1"/>
</linearGradient>
<linearGradient id="paint19_linear_2221_7624" x1="9.50699" y1="51.0231" x2="50.828" y2="50.6451" gradientUnits="userSpaceOnUse">
<stop stop-color="#9B9B9B"/>
<stop offset="1" stop-color="#F1F1F1"/>
</linearGradient>
<linearGradient id="paint20_linear_2221_7624" x1="33.5588" y1="23.1927" x2="42.9388" y2="35.3727" gradientUnits="userSpaceOnUse">
<stop stop-color="#FAFAFA"/>
<stop offset="1" stop-color="#D6D6D6"/>
</linearGradient>
<linearGradient id="paint21_linear_2221_7624" x1="44.6265" y1="19.9547" x2="44.6265" y2="2.70739" gradientUnits="userSpaceOnUse">
<stop stop-color="#60B447"/>
<stop offset="1" stop-color="#BCEA84"/>
</linearGradient>
<clipPath id="clip0_2221_7624">
<rect width="17.5" height="17.5" fill="white" transform="translate(35.8765 2.625)"/>
</clipPath>
</defs>
</svg>
