<svg width="20" height="20" viewBox="0 0 20 20" fill="none" xmlns="http://www.w3.org/2000/svg">
<path d="M17.4897 14.0413C16.9397 10.7496 15.2397 8.29964 13.7564 6.85798C13.323 6.44131 13.1064 6.23298 12.6314 6.03298C12.1564 5.84131 11.748 5.84131 10.9314 5.84131H9.10636C8.2897 5.84131 7.88136 5.84131 7.40636 6.03298C6.93136 6.22464 6.7147 6.43298 6.28137 6.85798C4.79803 8.29964 3.09803 10.7496 2.54803 14.0413C2.1397 16.4913 4.39803 18.3413 6.92303 18.3413H13.1064C15.6314 18.3413 17.8897 16.483 17.4814 14.0413H17.4897Z" stroke="#121212" stroke-width="1.25" stroke-linecap="round"/>
<path d="M13.8644 3.0415C13.3394 2.95817 12.7894 3.32484 12.2561 3.3165C11.7728 3.3165 11.5228 3.0915 11.2561 2.78317C10.9728 2.45817 10.5394 1.6665 10.0144 1.6665C9.48942 1.6665 9.04775 2.45817 8.77275 2.78317C8.50609 3.0915 8.25609 3.30817 7.77275 3.3165C7.23942 3.3165 6.68942 2.9665 6.16442 3.0415C5.64775 3.1165 5.89775 3.45817 6.07275 3.70817L6.84775 4.83317C7.18109 5.3165 7.34775 5.55817 7.69775 5.69984C8.04775 5.8415 8.49775 5.83317 9.39775 5.83317H10.6728C11.5728 5.83317 12.0228 5.83317 12.3728 5.69984C12.7228 5.5665 12.8894 5.32484 13.2228 4.83317L13.9978 3.70817C14.1728 3.45817 14.4228 3.1165 13.9061 3.0415H13.8644Z" stroke="#121212" stroke-width="1.25" stroke-linecap="round"/>
<path d="M7.93945 10.4246L8.14779 10.2163M11.8645 14.3413L12.0728 14.133" stroke="#121212" stroke-width="1.66667" stroke-linecap="round" stroke-linejoin="round"/>
<path d="M7.73975 14.55L12.2814 10.0083" stroke="#121212" stroke-width="1.25" stroke-linecap="round" stroke-linejoin="round"/>
</svg>
