<svg width="24" height="24" viewBox="0 0 24 24" fill="none" xmlns="http://www.w3.org/2000/svg">
<path d="M12 13.4993C11.67 13.4993 11.35 13.3593 11.12 13.1293C10.88 12.8893 10.75 12.5693 10.75 12.2493C10.75 11.9293 10.88 11.5993 11.12 11.3593C11.41 11.0693 11.84 10.9393 12.24 11.0193C12.32 11.0393 12.4 11.0593 12.48 11.0893C12.55 11.1193 12.63 11.1593 12.69 11.2093C12.76 11.2493 12.83 11.3093 12.88 11.3593C13.12 11.5993 13.25 11.9193 13.25 12.2493C13.25 12.5793 13.12 12.8893 12.88 13.1293C12.83 13.1893 12.76 13.2393 12.69 13.2893C12.63 13.3293 12.55 13.3693 12.48 13.3993C12.4 13.4293 12.32 13.4593 12.24 13.4693C12.16 13.4893 12.08 13.4993 12 13.4993Z" fill="#121212"/>
<path d="M12 19.4993C11.67 19.4993 11.35 19.3593 11.12 19.1293C10.88 18.8993 10.75 18.5693 10.75 18.2493C10.75 17.9293 10.88 17.5993 11.12 17.3593C11.17 17.2993 11.24 17.2493 11.31 17.2093C11.37 17.1593 11.45 17.1193 11.52 17.0893C11.6 17.0593 11.68 17.0393 11.76 17.0193C12.16 16.9393 12.59 17.0693 12.88 17.3593C13.12 17.5993 13.25 17.9193 13.25 18.2493C13.25 18.5793 13.12 18.8993 12.88 19.1293C12.83 19.1893 12.76 19.2393 12.69 19.2893C12.63 19.3293 12.55 19.3693 12.48 19.3993C12.4 19.4293 12.32 19.4593 12.24 19.4693C12.16 19.4893 12.08 19.4993 12 19.4993Z" fill="#121212"/>
<path d="M12 7.49931C11.67 7.49931 11.35 7.35931 11.12 7.12931C10.88 6.89931 10.75 6.57931 10.75 6.24931C10.75 5.91931 10.88 5.59931 11.12 5.35931C11.41 5.06931 11.84 4.93931 12.24 5.01931C12.32 5.03931 12.4 5.05931 12.48 5.08931C12.55 5.11931 12.63 5.15931 12.69 5.20931C12.76 5.24931 12.83 5.30931 12.88 5.35931C13.12 5.59931 13.25 5.91931 13.25 6.24931C13.25 6.57931 13.12 6.89931 12.88 7.12931C12.83 7.18931 12.76 7.23931 12.69 7.28931C12.63 7.32931 12.55 7.36931 12.48 7.39931C12.4 7.42931 12.32 7.45931 12.24 7.46931C12.16 7.48931 12.08 7.49931 12 7.49931Z" fill="#121212"/>
</svg>
