<svg width="20" height="20" viewBox="0 0 20 20" fill="none" xmlns="http://www.w3.org/2000/svg">
<path d="M7.02484 11.1H3.80817C3.03317 11.1 2.27484 10.8417 1.6665 10.375" stroke="#141414" stroke-width="1.25" stroke-linecap="round" stroke-linejoin="round"/>
<path d="M9.42475 6.76656C10.4248 6.00823 11.6498 5.54156 13.0081 5.51656C16.3998 5.43323 19.2081 8.08323 19.2914 11.4416C19.3748 14.7999 16.6998 17.5832 13.3081 17.6666C9.91642 17.7499 7.10809 15.0999 7.02475 11.7416C7.00809 10.8999 7.14975 10.0999 7.44975 9.36656" stroke="#141414" stroke-width="1.25" stroke-linecap="round" stroke-linejoin="round"/>
<path d="M1.6665 2.5H8.1915C8.95817 2.5 9.6915 2.8 10.2332 3.33333L12.4498 5.50833" stroke="#141414" stroke-width="1.25" stroke-linecap="round" stroke-linejoin="round"/>
<path d="M7.86631 5.30811L10.2663 7.68311C10.8496 8.25811 10.8496 9.19977 10.2663 9.77477C9.68297 10.3498 8.73298 10.3498 8.14964 9.77477L6.53298 8.17477C6.05798 8.63311 5.40798 8.90811 4.69131 8.90811C3.97464 8.90811 3.31631 8.62477 2.84131 8.15811" stroke="#141414" stroke-width="1.25" stroke-linecap="round" stroke-linejoin="round"/>
<path d="M14.8496 9.2334L11.3413 13.9501" stroke="#141414" stroke-width="1.25" stroke-linecap="round" stroke-linejoin="round"/>
<circle cx="11.133" cy="9.61686" r="1.04167" fill="#141414"/>
<circle cx="15.1745" cy="13.5671" r="1.04167" fill="#141414"/>
</svg>
