<svg width="20" height="20" viewBox="0 0 20 20" fill="none" xmlns="http://www.w3.org/2000/svg">
<path d="M3.1665 15.067C2.2915 15.067 1.6665 14.4503 1.6665 13.5003V10.7753C1.6665 10.2087 1.83317 9.65866 2.1415 9.18366L3.1415 7.62533C3.52484 7.03366 4.18317 6.66699 4.8915 6.66699H9.25817C9.53317 6.66699 9.80817 6.69199 10.0748 6.74199C11.2748 6.93366 12.3748 7.56699 13.1582 8.52533L14.1998 9.80033L17.5832 10.6503C18.0415 10.767 18.3748 11.1837 18.3748 11.6587V13.5003C18.3748 14.4337 17.7832 15.067 16.9248 15.067" stroke="#121212" stroke-width="1.25" stroke-miterlimit="10"/>
<path d="M14.7166 16.8922C15.7249 16.8922 16.5416 16.0755 16.5416 15.0672C16.5416 14.0589 15.7249 13.2422 14.7166 13.2422C13.7083 13.2422 12.8916 14.0589 12.8916 15.0672C12.8916 16.0755 13.7083 16.8922 14.7166 16.8922Z" stroke="#121212" stroke-width="1.25" stroke-linejoin="round"/>
<path d="M5.00811 16.8922C6.01644 16.8922 6.83311 16.0755 6.83311 15.0672C6.83311 14.0589 6.01644 13.2422 5.00811 13.2422C3.99977 13.2422 3.18311 14.0589 3.18311 15.0672C3.18311 16.0755 3.99977 16.8922 5.00811 16.8922Z" stroke="#121212" stroke-width="1.25" stroke-linejoin="round"/>
<path d="M1.8999 9.80029H13.6666" stroke="#121212" stroke-width="1.25" stroke-miterlimit="10" stroke-linecap="round"/>
<path d="M7.2832 15.0669H12.7665" stroke="#121212" stroke-width="1.25" stroke-miterlimit="10"/>
<path d="M8.25 5.24512V14.9701" stroke="#121212" stroke-width="1.25" stroke-miterlimit="10"/>
<path d="M4.1665 5.41699C4.1665 4.72699 4.78873 4.16699 5.55539 4.16699C7.61015 4.16699 8.33317 6.66699 8.33317 6.66699H5.55539C4.78873 6.66699 4.1665 6.10699 4.1665 5.41699Z" stroke="#121212" stroke-width="1.25" stroke-linecap="round" stroke-linejoin="round"/>
<path d="M11.1108 6.66699H8.33301C8.33301 6.66699 9.05602 4.16699 11.1108 4.16699C11.8775 4.16699 12.4997 4.72699 12.4997 5.41699C12.4997 6.10699 11.8775 6.66699 11.1108 6.66699Z" stroke="#121212" stroke-width="1.25" stroke-linecap="round" stroke-linejoin="round"/>
</svg>
