<svg width="24" height="24" viewBox="0 0 24 24" fill="none" xmlns="http://www.w3.org/2000/svg">
<path d="M15.1293 14.1943L13.608 16.0956C11.252 14.7103 9.28796 12.7476 7.90396 10.3916L9.80529 8.87027C10.264 8.5036 10.4173 7.87294 10.1786 7.33694L8.44529 3.43427C8.18796 2.8556 7.55062 2.54894 6.93862 2.7076L3.63862 3.5636C3.00129 3.73027 2.58929 4.3476 2.67996 4.9996C3.86929 13.4716 10.528 20.1303 19.0013 21.3209C19.6533 21.4103 20.2706 20.9983 20.436 20.3623L21.292 17.0623C21.4506 16.4503 21.144 15.8143 20.5666 15.5569L16.664 13.8236C16.128 13.5849 15.4986 13.7383 15.1306 14.1956L15.1293 14.1943Z" stroke="#141414" stroke-width="1.5" stroke-linecap="round" stroke-linejoin="round"/>
</svg>
