<svg width="80" height="80" viewBox="0 0 80 80" fill="none" xmlns="http://www.w3.org/2000/svg">
<path d="M42.7818 35.8146V17.7852L21.7012 26.9366V74.5433H61.4754V35.8146H42.7818Z" fill="url(#paint0_linear_2250_10969)"/>
<path d="M21.7008 27.1914H8.07178V74.5568H21.6847V27.1914H21.7008Z" fill="url(#paint1_linear_2250_10969)"/>
<path d="M21.7008 27.1939H8.07178L29.5879 17.7852H42.7815L21.7008 27.1939Z" fill="url(#paint2_linear_2250_10969)"/>
<path opacity="0.6" d="M19.4758 32.4375H10.2983V34.8661H19.4919V32.4375H19.4758Z" fill="#121212" fill-opacity="0.6"/>
<path opacity="0.6" d="M37.3142 41.2852H28.1206V43.7137H37.3142V41.2852Z" fill="white"/>
<path opacity="0.6" d="M19.4758 40.7188H10.2983V43.1473H19.4919V40.7188H19.4758Z" fill="#121212" fill-opacity="0.6"/>
<path opacity="0.6" d="M37.3142 49.3711H28.1206V51.7997H37.3142V49.3711Z" fill="white"/>
<path opacity="0.6" d="M37.3142 57.4609H28.1206V59.8895H37.3142V57.4609Z" fill="white"/>
<path opacity="0.6" d="M19.4758 49H10.2983V51.4286H19.4919V49H19.4758Z" fill="#121212" fill-opacity="0.6"/>
<path opacity="0.6" d="M19.4758 57.2812H10.2983V59.7098H19.4919V57.2812H19.4758Z" fill="#121212" fill-opacity="0.6"/>
<path opacity="0.6" d="M37.3142 65.5703H28.1206V67.9989H37.3142V65.5703Z" fill="white"/>
<path opacity="0.6" d="M19.4758 65.5703H10.2983V67.9989H19.4919V65.5703H19.4758Z" fill="#121212" fill-opacity="0.6"/>
<path d="M29.7784 33.1767C29.9309 33.0626 30.0261 32.9296 30.1214 32.7586C30.1977 32.5876 30.2358 32.3975 30.2358 32.1505C30.2358 31.8655 30.1786 31.6184 30.0452 31.4284C29.9118 31.2384 29.7212 31.0864 29.4735 30.9723C29.2258 30.8773 28.9399 30.8203 28.5969 30.8203H26.958V35.229H27.8727V33.5947H28.5969L29.4354 35.229H30.4073V35.191L29.4354 33.3667C29.5497 33.3097 29.6831 33.2527 29.7784 33.1767ZM27.8727 31.5424H28.6159C28.7684 31.5424 28.9209 31.5614 29.0161 31.6184C29.1305 31.6754 29.2067 31.7514 29.2639 31.8465C29.321 31.9415 29.3401 32.0745 29.3401 32.2075C29.3401 32.3405 29.321 32.4546 29.2639 32.5496C29.2067 32.6446 29.1305 32.7206 29.0352 32.7776C28.9399 32.8346 28.8065 32.8536 28.635 32.8536H27.8918V31.5044L27.8727 31.5424Z" fill="#454545" fill-opacity="0.8"/>
<path d="M32.0093 30.8203H30.6753V31.5424H32.0093V35.229H32.924V31.5424H34.277V30.8203H32.924H32.0093Z" fill="#454545" fill-opacity="0.8"/>
<path d="M38.3722 32.0154C38.277 31.7493 38.1436 31.5213 37.9911 31.3313C37.8196 31.1412 37.629 31.0082 37.4003 30.8942C37.1717 30.7802 36.9239 30.7422 36.6381 30.7422C36.3522 30.7422 36.1045 30.7992 35.8758 30.8942C35.6471 30.9892 35.4565 31.1412 35.285 31.3313C35.1135 31.5213 34.9992 31.7493 34.9039 32.0154C34.8086 32.2814 34.7705 32.5855 34.7705 32.9085V33.1175C34.7705 33.4596 34.8086 33.7446 34.9039 34.0107C34.9992 34.2767 35.1326 34.5047 35.285 34.6948C35.4375 34.8848 35.6471 35.0178 35.8758 35.1128C36.1045 35.2078 36.3522 35.2648 36.6381 35.2648C36.9239 35.2648 37.1717 35.2078 37.4003 35.1128C37.629 35.0178 37.8196 34.8658 37.9911 34.6948C38.1626 34.5047 38.277 34.2767 38.3722 34.0107C38.4675 33.7446 38.5056 33.4406 38.5056 33.1175V32.9085C38.5056 32.5665 38.4675 32.2624 38.3722 32.0154ZM37.5909 33.1175C37.5909 33.3456 37.5718 33.5546 37.5337 33.7256C37.4956 33.8966 37.4385 34.0487 37.3432 34.1817C37.2669 34.2957 37.1717 34.3907 37.0383 34.4667C36.9239 34.5237 36.7905 34.5617 36.6381 34.5617C36.4856 34.5617 36.3522 34.5237 36.2379 34.4667C36.1235 34.4097 36.0092 34.3147 35.933 34.1817C35.8567 34.0677 35.7805 33.9157 35.7424 33.7256C35.7043 33.5546 35.6852 33.3456 35.6852 33.1175V32.9085C35.6852 32.6805 35.7043 32.4714 35.7424 32.3004C35.7805 32.1294 35.8377 31.9774 35.933 31.8443C36.0283 31.7113 36.1235 31.6353 36.2379 31.5783C36.3522 31.5213 36.4856 31.4833 36.6381 31.4833C36.7905 31.4833 36.9239 31.5213 37.0383 31.5783C37.1526 31.6353 37.2669 31.7303 37.3432 31.8443C37.4194 31.9584 37.4956 32.1104 37.5337 32.3004C37.5718 32.4714 37.5909 32.6805 37.5909 32.9085V33.1175Z" fill="#454545" fill-opacity="0.8"/>
<path d="M54.7651 35.8164H42.7812V74.5451H54.7651V35.8164Z" fill="url(#paint3_linear_2250_10969)"/>
<path opacity="0.6" d="M57.0236 41.2852H47.8301V43.7137H57.0236V41.2852Z" fill="white"/>
<path opacity="0.6" d="M57.0236 49.3711H47.8301V51.7997H57.0236V49.3711Z" fill="white"/>
<path opacity="0.6" d="M57.0236 57.4609H47.8301V59.8895H57.0236V57.4609Z" fill="white"/>
<path opacity="0.6" d="M57.0236 65.6875H47.8301V68.1161H57.0236V65.6875Z" fill="white"/>
<path d="M44.7165 71.8984H22.5391V74.5597H44.7165V71.8984Z" fill="url(#paint4_linear_2250_10969)"/>
<path d="M63.3458 71.8984H44.7168V74.5597H63.3458V71.8984Z" fill="url(#paint5_linear_2250_10969)"/>
<path d="M22.54 71.8984H6.57227V74.5597H22.54V71.8984Z" fill="url(#paint6_linear_2250_10969)"/>
<path d="M75.9429 16.8594C75.9429 22.4823 62.8697 30.8594 62.8697 30.8594C62.8697 30.8594 64.0526 30.8594 61.9429 30.8594C54.2102 30.8594 47.9429 24.592 47.9429 16.8594C47.9429 9.12671 54.2102 2.85938 61.9429 2.85938C63.5583 2.85938 63.1875 2.85938 63.1875 2.85938C63.1875 2.85938 75.9429 13.3285 75.9429 16.8594Z" fill="url(#paint7_linear_2250_10969)"/>
<path d="M63.188 30.8594C70.92 30.8594 77.188 24.5914 77.188 16.8594C77.188 9.12739 70.92 2.85938 63.188 2.85938C55.456 2.85938 49.188 9.12739 49.188 16.8594C49.188 24.5914 55.456 30.8594 63.188 30.8594Z" fill="url(#paint8_radial_2250_10969)"/>
<path d="M56.2751 13.5421C56.434 13.3126 56.5752 13.1007 56.7341 12.9065C58.067 11.1941 59.8148 10.1966 61.9598 9.90529C63.6193 9.67578 65.1906 9.95825 66.6647 10.7527C67.1414 11.0087 67.5828 11.353 68.033 11.6619C68.1654 11.759 68.2625 11.8826 68.1742 12.0591C68.0947 12.2268 67.9535 12.218 67.7946 12.1915C65.9939 11.8914 64.299 12.1915 62.7278 13.1361C61.5449 13.8422 60.6534 14.8309 59.9825 16.0226C59.9031 16.155 59.9913 16.1991 60.0708 16.2609C60.5386 16.5963 60.9976 16.9318 61.4743 17.2584C61.6597 17.3908 61.7568 17.5408 61.7038 17.7704C61.6597 17.9999 61.4831 18.0705 61.2801 18.1058C59.3558 18.4236 57.4314 18.7414 55.4983 19.0591C55.154 19.1121 54.9863 18.9885 54.9245 18.6443C54.6067 16.7199 54.2889 14.7867 53.9623 12.8624C53.927 12.6506 53.9712 12.474 54.1565 12.3593C54.3419 12.2445 54.5185 12.2798 54.695 12.4122C55.1982 12.783 55.7101 13.1449 56.2486 13.5245L56.2751 13.5421Z" fill="white"/>
<path d="M70.1164 20.1866C69.7368 20.6368 69.4014 21.0781 69.013 21.4842C67.733 22.8171 66.1706 23.5851 64.3433 23.8146C62.7191 24.0264 61.1832 23.7528 59.7444 22.9848C59.2324 22.7112 58.7734 22.3581 58.3055 22.0138C58.2261 21.9609 58.1731 21.7667 58.2084 21.6872C58.2437 21.6078 58.4114 21.5283 58.5174 21.5372C59.0911 21.5548 59.6561 21.6431 60.2299 21.6166C62.1542 21.5107 63.8049 20.7604 65.1466 19.3745C65.6586 18.8448 66.0735 18.2446 66.4354 17.5561C66.1971 17.3884 65.9676 17.2206 65.738 17.0529C65.4467 16.8411 65.1643 16.638 64.8642 16.435C64.6964 16.3203 64.6082 16.1614 64.6435 15.9583C64.6876 15.7377 64.8377 15.6406 65.0495 15.6053C65.6498 15.5082 66.2412 15.4111 66.8415 15.3051C68.1391 15.0933 69.4455 14.8726 70.7431 14.6607C71.2109 14.5813 71.361 14.6872 71.4404 15.1551C71.7494 17.0353 72.0672 18.9155 72.3761 20.7957C72.4291 21.1135 72.3055 21.3606 72.0495 21.3871C71.9259 21.3959 71.7671 21.3606 71.6611 21.29C71.1403 20.9281 70.6283 20.5573 70.1252 20.1954L70.1164 20.1866Z" fill="white"/>
<defs>
<linearGradient id="paint0_linear_2250_10969" x1="84.6205" y1="120.14" x2="-13.2338" y2="-28.4042" gradientUnits="userSpaceOnUse">
<stop stop-color="#939393"/>
<stop offset="0.1" stop-color="#A3A3A3"/>
<stop offset="0.38" stop-color="#CBCBCB"/>
<stop offset="0.62" stop-color="#E7E7E7"/>
<stop offset="0.84" stop-color="#F8F8F8"/>
<stop offset="1" stop-color="white"/>
</linearGradient>
<linearGradient id="paint1_linear_2250_10969" x1="14.8944" y1="74.5408" x2="14.8944" y2="29.7808" gradientUnits="userSpaceOnUse">
<stop stop-color="#777777"/>
<stop offset="1" stop-color="#939393"/>
</linearGradient>
<linearGradient id="paint2_linear_2250_10969" x1="34.3137" y1="16.3216" x2="18.9712" y2="27.0095" gradientUnits="userSpaceOnUse">
<stop stop-color="#C7C7C7"/>
<stop offset="1" stop-color="#CFCFCF"/>
</linearGradient>
<linearGradient id="paint3_linear_2250_10969" x1="43.1522" y1="55.2129" x2="54.6038" y2="55.1644" gradientUnits="userSpaceOnUse">
<stop stop-color="#939393" stop-opacity="0.4"/>
<stop offset="1" stop-color="#939393" stop-opacity="0"/>
</linearGradient>
<linearGradient id="paint4_linear_2250_10969" x1="33.5714" y1="80.7154" x2="36.7303" y2="67.9328" gradientUnits="userSpaceOnUse">
<stop stop-color="#939393"/>
<stop offset="0.1" stop-color="#A3A3A3"/>
<stop offset="0.38" stop-color="#CBCBCB"/>
<stop offset="0.62" stop-color="#E7E7E7"/>
<stop offset="0.84" stop-color="#F8F8F8"/>
<stop offset="1" stop-color="white"/>
</linearGradient>
<linearGradient id="paint5_linear_2250_10969" x1="52.8585" y1="83.5725" x2="57.5388" y2="65.2074" gradientUnits="userSpaceOnUse">
<stop stop-color="#939393"/>
<stop offset="0.1" stop-color="#A3A3A3"/>
<stop offset="0.38" stop-color="#CBCBCB"/>
<stop offset="0.62" stop-color="#E7E7E7"/>
<stop offset="0.84" stop-color="#F8F8F8"/>
<stop offset="1" stop-color="white"/>
</linearGradient>
<linearGradient id="paint6_linear_2250_10969" x1="6.57227" y1="73.2203" x2="22.54" y2="73.2203" gradientUnits="userSpaceOnUse">
<stop stop-color="#777777"/>
<stop offset="1" stop-color="#939393"/>
</linearGradient>
<linearGradient id="paint7_linear_2250_10969" x1="54.5192" y1="27.6639" x2="80.789" y2="-15.0687" gradientUnits="userSpaceOnUse">
<stop stop-color="#7C47E1"/>
<stop offset="1" stop-color="#D0BDF4"/>
</linearGradient>
<radialGradient id="paint8_radial_2250_10969" cx="0" cy="0" r="1" gradientUnits="userSpaceOnUse" gradientTransform="translate(70.6823 5.1368) scale(44.2862 44.2863)">
<stop stop-color="#D0BDF4"/>
<stop offset="1" stop-color="#7C47E1"/>
</radialGradient>
</defs>
</svg>
