<svg width="64" height="64" viewBox="0 0 64 64" fill="none" xmlns="http://www.w3.org/2000/svg">
<g clip-path="url(#clip0_2585_68140)">
<path d="M-8.79991 44.0008C7.54772 44.0008 20.8001 43.2844 20.8001 42.4008C20.8001 41.5171 7.54772 40.8008 -8.79991 40.8008C-25.1475 40.8008 -38.3999 41.5171 -38.3999 42.4008C-38.3999 43.2844 -25.1475 44.0008 -8.79991 44.0008Z" fill="url(#paint0_radial_2585_68140)"/>
<path d="M14.1871 27.1399C14.1871 27.1399 21.2564 28.0657 24.8023 29.6368C25.9893 30.1627 26.7846 31.3873 26.7247 32.0153L26.3088 36.3719C26.168 37.8467 24.9545 38.9714 23.504 38.9714H-23.1091L-24.0038 38.289L-26.7668 37.1299C-27.581 36.7883 -28.1771 36.0406 -28.2634 35.1458C-28.4239 33.4816 -28.337 29.7008 -27.9682 27.4462C-27.9563 27.3734 -27.9437 27.3011 -27.9306 27.2298C-27.8323 26.6972 -27.4666 26.2568 -26.9739 26.0561C-21.8697 23.9772 -19.4789 20 -10.825 20H-0.592785C4.64829 20 14.1871 27.1399 14.1871 27.1399Z" fill="url(#paint1_linear_2585_68140)"/>
<path d="M24.4832 37.3686C24.4832 40.2574 22.702 42.5991 20.5047 42.5991H17.8159V32.1382H20.5047C22.702 32.1382 24.4832 34.4799 24.4832 37.3686Z" fill="black"/>
<path d="M17.8159 42.5992C20.0132 42.5992 21.7944 40.2574 21.7944 37.3687C21.7944 34.48 20.0132 32.1382 17.8159 32.1382C15.6186 32.1382 13.8374 34.48 13.8374 37.3687C13.8374 40.2574 15.6186 42.5992 17.8159 42.5992Z" fill="url(#paint2_linear_2585_68140)"/>
<path d="M12.2889 37.3686C12.2889 40.2574 10.5077 42.5991 8.31039 42.5991H5.62158V32.1382H8.31039C10.5076 32.1382 12.2889 34.4799 12.2889 37.3686Z" fill="black"/>
<path d="M14.1876 27.1399C14.1876 27.1399 4.96175 20 -0.835245 20H-8.98145C-6.9398 20 -5.26459 20.7226 -4.38073 21.5706L-0.385073 27.1399C-0.385073 27.1399 8.5966 28.8171 12.2526 31.112C12.9227 31.5326 13.2073 32.0203 13.2329 32.7858L12.7988 37.6111C12.7988 37.6111 12.8489 38.9715 11.3391 38.9715H23.5035C24.9545 38.9715 26.1684 37.8464 26.3093 36.3711C26.3093 36.3711 26.6684 32.7696 26.7251 32.0154C26.7819 31.2612 25.7452 29.9919 24.2667 29.4143C20.5919 27.9788 14.1876 27.1399 14.1876 27.1399Z" fill="url(#paint3_linear_2585_68140)"/>
<path d="M-27.9682 27.4463L-24.2265 28.7476C-22.821 29.2365 -21.3464 29.4858 -19.8617 29.4858H0.0966187C0.0966187 29.4858 7.12908 29.5552 11.9103 30.9692C12.6978 31.2021 13.2326 31.9483 13.2326 32.7858L12.676 38.9715H-23.109L-24.0038 38.2891L-27.238 36.9323C-27.7422 36.7208 -28.1067 36.2586 -28.19 35.7083C-28.5687 33.2098 -28.3371 29.6568 -27.9682 27.4463Z" fill="url(#paint4_linear_2585_68140)"/>
<path d="M1.00553 27.14H14.1873C10.5185 24.1986 6.26678 21.8286 2.6112 20.623L-7.52832 20.6355C-4.66163 21.4986 -1.82298 24.0202 1.00553 27.14Z" fill="url(#paint5_linear_2585_68140)"/>
<path d="M5.62159 42.5992C7.81887 42.5992 9.60011 40.2574 9.60011 37.3687C9.60011 34.48 7.81887 32.1382 5.62159 32.1382C3.42431 32.1382 1.64307 34.48 1.64307 37.3687C1.64307 40.2574 3.42431 42.5992 5.62159 42.5992Z" fill="url(#paint6_linear_2585_68140)"/>
<path d="M5.48129 40.6445C6.74677 40.6445 7.77265 39.1778 7.77265 37.3686C7.77265 35.5594 6.74677 34.0928 5.48129 34.0928C4.21582 34.0928 3.18994 35.5594 3.18994 37.3686C3.18994 39.1778 4.21582 40.6445 5.48129 40.6445Z" fill="url(#paint7_linear_2585_68140)"/>
<path d="M5.48122 39.2894C6.22323 39.2894 6.82475 38.4294 6.82475 37.3686C6.82475 36.3077 6.22323 35.4478 5.48122 35.4478C4.73921 35.4478 4.1377 36.3077 4.1377 37.3686C4.1377 38.4294 4.73921 39.2894 5.48122 39.2894Z" fill="url(#paint8_linear_2585_68140)"/>
<path d="M11.1382 30.7572C11.1382 30.7572 17.631 31.0687 21.4514 31.0244C25.2719 30.98 26.0029 30.5137 26.0029 30.5137C26.0029 30.5137 26.7656 31.2403 26.7249 32.0155L26.672 32.6256C26.672 32.6256 26.1157 32.963 25.0706 33.022C24.5097 33.0536 24.0296 33.0125 23.6867 32.5581C23.5213 32.3389 23.0092 31.6504 23.0092 31.6504C23.0092 31.6504 21.2036 31.7371 18.7539 31.6212C18.7539 31.6212 18.0244 32.771 17.4061 33.067C17.0396 33.2426 14.3988 33.1463 13.1701 32.9456C11.5741 32.685 11.1382 30.7572 11.1382 30.7572Z" fill="#606060"/>
<path d="M16.7976 32.286C14.9503 32.286 12.7762 32.1178 12.6777 32.102C12.5069 32.0746 12.39 31.9108 12.4169 31.7362C12.4437 31.5618 12.6014 31.4422 12.775 31.4698C12.7998 31.4737 15.2399 31.6841 17.0822 31.6428C17.2483 31.6423 17.3985 31.7789 17.4023 31.9558C17.4059 32.1325 17.2689 32.2789 17.0959 32.2828C16.9979 32.285 16.8981 32.286 16.7976 32.286Z" fill="url(#paint9_linear_2585_68140)"/>
<path d="M24.1423 32.1795C23.9863 32.1795 23.8514 32.0606 23.832 31.8985C23.8108 31.7231 23.9331 31.5635 24.1047 31.5419C24.1177 31.5403 25.5174 31.4903 26.4119 31.0244C26.5286 31.1822 26.6495 31.4451 26.6803 31.6116C25.6183 32.1813 24.2396 32.1698 24.1805 32.1772C24.1678 32.1788 24.155 32.1795 24.1423 32.1795Z" fill="url(#paint10_linear_2585_68140)"/>
<path d="M20.7444 42.1938C20.7444 43.1913 35.8003 43.9999 54.3727 43.9999C72.945 43.9999 82 43.1913 82 42.1938C82 41.1963 72.945 40.3877 54.3727 40.3877C35.8003 40.3877 20.7444 41.1963 20.7444 42.1938Z" fill="url(#paint11_radial_2585_68140)"/>
<path d="M23.5834 35.4314L23.953 33.1471L23.127 31.5582L23.0111 30.1101L23.8678 28.5005C24.2057 28.1583 24.6391 27.7689 25.1196 27.5609C29.0088 25.877 34.3576 24.8848 34.3576 24.8848C37.6902 21.7702 41.0136 18.6754 43.5562 17.2534C45.7551 15.8352 48.0396 15.8604 50.341 15.8604H69.42C71.5044 15.8604 73.4441 16.9239 74.5622 18.68L78.0511 23.4731C78.5695 24.0852 79.1021 25.3733 79.1021 27.399V34.1145C79.1021 35.9733 78.0956 37.6869 76.4707 38.5947H26.5445L24.132 37.4307L23.5834 35.4314Z" fill="url(#paint12_linear_2585_68140)"/>
<path d="M25.4713 36.8771C25.4713 39.9732 27.425 42.483 29.835 42.483H32.7842V31.271H29.835C27.425 31.271 25.4713 33.781 25.4713 36.8771Z" fill="black"/>
<path d="M32.7823 42.4829C30.3723 42.4829 28.4186 39.9731 28.4186 36.877C28.4186 33.7809 30.3723 31.271 32.7823 31.271C35.1923 31.271 37.146 33.7809 37.146 36.877C37.146 39.9731 35.1923 42.4829 32.7823 42.4829Z" fill="url(#paint13_linear_2585_68140)"/>
<path d="M38.8463 36.8771C38.8463 39.9732 40.8 42.483 43.21 42.483H46.1592V31.271H43.21C40.8 31.271 38.8463 33.781 38.8463 36.8771Z" fill="black"/>
<path d="M23.9527 33.1472L23.1256 31.5572C23.0721 30.8877 23.0283 30.3365 23.0109 30.1101L23.8676 28.5005C24.3443 28.0009 24.9235 27.6215 25.7072 27.3223C29.7379 25.7837 34.3574 24.8848 34.3574 24.8848C37.6569 21.7922 40.942 18.7347 43.5889 17.226C46.2687 15.6376 48.7532 15.8603 51.0547 15.8603H61.1377C59.7598 15.8603 57.5614 16.3232 56.5639 17.0373L50.3409 24.8847C50.3409 24.8847 42.8945 26.6823 38.8846 29.1419C38.1496 29.5927 37.8374 30.1155 37.8094 30.9359L38.2856 37.1365C38.2856 37.1365 38.2306 38.5946 39.8865 38.5946H26.5444L24.1318 37.4306L23.5832 35.4315L23.9527 33.1472Z" fill="url(#paint14_linear_2585_68140)"/>
<path d="M43.6964 17.1842C40.8707 18.5737 34.3577 24.8849 34.3577 24.8849H74.4775C75.4292 24.8849 76.0207 23.8525 75.5382 23.0336L73.2071 19.0774C72.4625 17.8136 71.1035 17.0376 69.6348 17.0376H44.6894C44.3653 17.0376 43.9872 17.0413 43.6964 17.1842Z" fill="black"/>
<path d="M79.1021 27.3994H52.2173C52.2173 27.3994 44.504 27.4737 39.2599 28.9893C38.3962 29.239 37.8096 30.0386 37.8096 30.9363L38.3086 37.3843C38.3718 38.0702 38.9481 38.5951 39.638 38.5951H76.4707C78.0956 37.6874 79.1021 35.9737 79.1021 34.1149V27.3994Z" fill="url(#paint15_linear_2585_68140)"/>
<path d="M48.817 24.8849H34.359C34.359 24.8849 40.6214 18.695 43.6486 17.1921C43.9388 17.048 44.3835 17.0376 44.7076 17.0376H56.5654C53.7153 18.4948 51.0563 21.7197 48.817 24.8849Z" fill="url(#paint16_linear_2585_68140)"/>
<path d="M46.1597 42.4829C43.7497 42.4829 41.796 39.9731 41.796 36.877C41.796 33.7809 43.7497 31.271 46.1597 31.271C48.5697 31.271 50.5234 33.7809 50.5234 36.877C50.5234 39.9731 48.5697 42.4829 46.1597 42.4829Z" fill="url(#paint17_linear_2585_68140)"/>
<path d="M46.3139 40.3883C44.9259 40.3883 43.8007 38.8164 43.8007 36.8773C43.8007 34.9382 44.9259 33.3662 46.3139 33.3662C47.7019 33.3662 48.8271 34.9382 48.8271 36.8773C48.8271 38.8164 47.7019 40.3883 46.3139 40.3883Z" fill="url(#paint18_linear_2585_68140)"/>
<path d="M46.313 38.9357C45.4992 38.9357 44.8394 38.014 44.8394 36.877C44.8394 35.7401 45.4992 34.8184 46.313 34.8184C47.1269 34.8184 47.7866 35.7401 47.7866 36.877C47.7866 38.014 47.1269 38.9357 46.313 38.9357Z" fill="url(#paint19_linear_2585_68140)"/>
<path d="M40.1079 28.7616C40.1079 28.7616 32.9865 29.0954 28.7962 29.0479C24.6059 29.0004 23.8689 28.5005 23.8689 28.5005L23.0122 30.1102L23.0702 30.764L24.8826 29.9179L26.3445 30.6916L27.0876 29.7187C27.0876 29.7187 29.068 29.8116 31.7548 29.6874C31.7548 29.6874 32.555 30.9197 33.2331 31.2371C33.6352 31.4252 36.5316 31.322 37.8793 31.1069C39.6298 30.8276 40.1079 28.7616 40.1079 28.7616Z" fill="#929292"/>
<path d="M61.644 27.3994H59.5999V27.9892C59.5999 28.2703 59.8285 28.4986 60.1102 28.4986H61.1337C61.4154 28.4986 61.644 28.2703 61.644 27.9892V27.3994Z" fill="url(#paint20_linear_2585_68140)"/>
<path d="M61.5186 27.3994H59.7253V27.6698C59.7253 27.7882 59.8215 27.8843 59.9401 27.8843H61.3037C61.4223 27.8843 61.5186 27.7882 61.5186 27.6698V27.3994Z" fill="url(#paint21_linear_2585_68140)"/>
<path d="M50.3433 25.7643H53.2158C53.7592 25.7643 54.1997 25.3246 54.1997 24.7821C54.1997 24.2396 53.7592 23.7998 53.2158 23.7998H52.2896C51.8052 23.7998 51.3382 23.9802 50.9801 24.3059L50.3433 24.8849V25.7643Z" fill="url(#paint22_linear_2585_68140)"/>
<path d="M49.9038 24.9964L34.685 25.0344L31.6173 23.2845L27.2031 22.0843L38.4225 19.6948L42.5109 23.3754L49.9038 24.9964Z" fill="black"/>
<path d="M49.9018 24.9964L43.0325 23.7128C42.5618 23.6248 42.1287 23.3969 41.79 23.0588L38.7292 20.0032C38.5408 19.8151 38.2604 19.7527 38.0098 19.8433L31.0904 22.3456L27.201 22.0843L30.0164 20.679C30.3316 20.5217 30.6694 20.4145 31.0177 20.3616L37.8639 19.3201C38.1683 19.2738 38.4771 19.3686 38.7029 19.5775L42.1252 22.7444C42.3716 22.9723 42.6736 23.1317 43.001 23.2066L50.3413 24.885L49.9018 24.9964Z" fill="url(#paint23_linear_2585_68140)"/>
<path d="M38.7028 19.5771L50.3413 24.8847L42.8749 23.1775C42.6301 23.1215 42.4043 23.0023 42.2201 22.8319L38.7028 19.5771Z" fill="white"/>
<path d="M49.1987 24.996C49.1987 24.996 43.5656 26.2582 40.784 27.6318C38.0025 29.0053 29.6577 28.856 29.6577 28.856C29.6577 28.856 25.8204 28.9568 25.4699 28.2588C25.1195 27.5609 32.8878 25.2729 34.6825 25.034C36.4771 24.7951 49.1987 24.996 49.1987 24.996Z" fill="#403F41"/>
<path d="M23.5846 35.4318L27.6633 34.2761L31.9136 35.4318L28.0883 33.2255L23.9542 33.1475L23.5846 35.4318Z" fill="#403F41"/>
<path d="M24.1324 37.431L26.0309 36.4829L27.8178 37.563L31.5586 38.595H26.545L24.1324 37.431Z" fill="#929292"/>
<path d="M33.9169 30.3747C35.9956 30.3677 38.442 30.17 38.5515 30.1559C38.746 30.1242 38.8767 29.9442 38.8414 29.7536C38.8096 29.563 38.6328 29.4289 38.4383 29.4641C38.4101 29.4677 35.6632 29.7112 33.5917 29.6759C33.4043 29.6759 33.2346 29.8276 33.2346 30.0218C33.2346 30.2159 33.3866 30.3782 33.5811 30.3782H33.9169V30.3747Z" fill="url(#paint24_linear_2585_68140)"/>
<path opacity="0.5" d="M28.0696 45.385C26.6545 45.385 25.5074 45.2762 25.5074 45.142C25.5074 45.0077 26.6545 44.8989 28.0696 44.8989C29.4847 44.8989 30.6318 45.0077 30.6318 45.142C30.6318 45.2762 29.4847 45.385 28.0696 45.385Z" fill="black"/>
<path d="M31.0984 43.9753C31.195 44.3184 29.5796 45.0583 29.5796 45.0583C29.5011 45.1143 29.4071 45.1444 29.3106 45.1444H25.908C25.7825 45.1444 25.6624 45.0935 25.5753 45.0034L25.0616 44.473C24.8323 44.2361 24.9178 43.8426 25.2249 43.7219L26.7475 43.1239C26.8819 43.0711 27.0333 43.0839 27.1568 43.1587L28.737 44.1145C28.8225 44.1662 28.9226 44.1889 29.0221 44.1792C29.0221 44.1792 31.0017 43.6323 31.0984 43.9753Z" fill="url(#paint25_linear_2585_68140)"/>
<path opacity="0.1" d="M28.0883 33.2249L31.9136 32.3604V35.4312L28.0883 33.2249Z" fill="black"/>
<path opacity="0.1" d="M27.6642 34.2759L27.75 35.6096L26.0326 36.4826L23.5855 35.4315L27.6642 34.2759Z" fill="black"/>
<path opacity="0.4" d="M23.1279 31.5579L24.6348 30.8735L23.955 33.1477L23.1279 31.5579Z" fill="white"/>
<path opacity="0.1" d="M26.3455 30.6921L29.335 29.7513L27.0886 29.7192L26.3455 30.6921Z" fill="black"/>
<path d="M27.0879 29.7189L23.8026 28.8613L23.1272 30.1016L23.1935 30.6918L24.8829 29.9182L26.3448 30.6918L27.0879 29.7189Z" fill="#CFD0D2"/>
<path opacity="0.5" d="M22.7898 14.2042C25.1793 14.2042 27.2298 15.6498 28.1141 17.7124C28.6091 17.2975 29.239 17.0377 29.936 17.0377C31.5091 17.0377 32.7842 18.3107 32.7842 19.8811C32.7842 20.9516 32.1846 21.8727 31.309 22.3577C31.6897 22.9988 31.9137 23.7432 31.9137 24.5434C31.9137 26.9281 29.9771 28.8615 27.5884 28.8615C25.6127 28.8615 23.965 27.5311 23.4476 25.7246C23.2314 25.7491 23.0126 25.7646 22.7897 25.7646C19.5921 25.7646 16.9998 23.1766 16.9998 19.9843C16.9998 16.7921 19.5922 14.2042 22.7898 14.2042Z" fill="black"/>
<path opacity="0.2" d="M30.5066 15.9474C29.4149 15.9474 28.5299 15.064 28.5299 13.974C28.5299 12.8841 29.4149 12.0005 30.5066 12.0005C31.5983 12.0005 32.4834 12.8841 32.4834 13.974C32.4834 15.064 31.5983 15.9474 30.5066 15.9474Z" fill="black"/>
<path opacity="0.1" d="M30.0425 15.2588C31.1342 15.2588 32.0193 14.3753 32.0193 13.2853C32.0193 13.0265 31.9662 12.7808 31.8755 12.5542C32.2489 12.9133 32.4834 13.4152 32.4834 13.9736C32.4834 15.0635 31.5983 15.947 30.5066 15.947C29.6742 15.947 28.9649 15.4319 28.6736 14.7045C29.029 15.0461 29.5101 15.2588 30.0425 15.2588Z" fill="black"/>
<path opacity="0.3" d="M17.8853 17.1598C17.6269 17.8058 17.4808 18.5089 17.4808 19.2471C17.4808 22.3609 20.0093 24.885 23.1282 24.885C25.2538 24.885 27.1032 23.7113 28.0669 21.9788C27.2353 24.0579 25.2036 25.5289 22.8242 25.5289C19.7052 25.5289 17.1769 23.0046 17.1769 19.891C17.1769 18.8995 17.4351 17.9693 17.8853 17.1598Z" fill="black"/>
<path opacity="0.1" d="M30.95 24.6005C30.95 22.7342 29.5356 21.2144 27.7216 21.0077C27.8586 20.9921 27.9925 20.9663 28.1336 20.9663C30.1441 20.9663 31.7739 22.5934 31.7739 24.6005C31.7739 26.6076 30.1441 28.2347 28.1336 28.2347C27.9924 28.2347 27.8586 28.209 27.7216 28.1933C29.5356 27.9867 30.95 26.4668 30.95 24.6005Z" fill="black"/>
</g>
<defs>
<radialGradient id="paint0_radial_2585_68140" cx="0" cy="0" r="1" gradientUnits="userSpaceOnUse" gradientTransform="translate(-8.80093 42.3987) scale(29.263 1.61877)">
<stop/>
<stop offset="1" stop-color="#414042" stop-opacity="0"/>
</radialGradient>
<linearGradient id="paint1_linear_2585_68140" x1="8.47957" y1="22.4914" x2="-1.75365" y2="32.6013" gradientUnits="userSpaceOnUse">
<stop stop-color="#BFBFBF"/>
<stop offset="1" stop-color="#B4B4B4"/>
</linearGradient>
<linearGradient id="paint2_linear_2585_68140" x1="17.8159" y1="32.8686" x2="17.8159" y2="42.9075" gradientUnits="userSpaceOnUse">
<stop stop-color="#414042"/>
<stop offset="1"/>
</linearGradient>
<linearGradient id="paint3_linear_2585_68140" x1="8.88464" y1="21.5184" x2="8.83652" y2="39.0916" gradientUnits="userSpaceOnUse">
<stop stop-color="#B6B6B6"/>
<stop offset="0.5074" stop-color="#CCCCCC"/>
<stop offset="0.5257" stop-color="#C5C5C5"/>
<stop offset="0.6063" stop-color="#ABABAB"/>
<stop offset="0.6899" stop-color="#999999"/>
<stop offset="0.7775" stop-color="#8E8E8E"/>
<stop offset="0.8755" stop-color="#8B8B8B"/>
<stop offset="1" stop-color="#4F4F4F"/>
</linearGradient>
<linearGradient id="paint4_linear_2585_68140" x1="-7.46037" y1="27.939" x2="-7.74468" y2="38.8482" gradientUnits="userSpaceOnUse">
<stop stop-color="#B4B4B4"/>
<stop offset="0.297" stop-color="#757575"/>
<stop offset="0.7588" stop-color="#8B8B8B"/>
<stop offset="0.9982" stop-color="#4F4F4F"/>
</linearGradient>
<linearGradient id="paint5_linear_2585_68140" x1="5.54079" y1="19.8482" x2="0.289156" y2="29.0401" gradientUnits="userSpaceOnUse">
<stop offset="0.1404" stop-color="#414042"/>
<stop offset="0.3375" stop-color="#6D6E71"/>
<stop offset="1"/>
</linearGradient>
<linearGradient id="paint6_linear_2585_68140" x1="5.62159" y1="20" x2="5.62159" y2="20" gradientUnits="userSpaceOnUse">
<stop stop-color="#414042"/>
<stop offset="1"/>
</linearGradient>
<linearGradient id="paint7_linear_2585_68140" x1="6.29894" y1="34.1886" x2="4.77431" y2="39.87" gradientUnits="userSpaceOnUse">
<stop stop-color="#606060"/>
<stop offset="1" stop-color="#E6E7E8"/>
</linearGradient>
<linearGradient id="paint8_linear_2585_68140" x1="5.96065" y1="35.5039" x2="5.06669" y2="38.8353" gradientUnits="userSpaceOnUse">
<stop stop-color="#606060"/>
<stop offset="1" stop-color="#E6E7E8"/>
</linearGradient>
<linearGradient id="paint9_linear_2585_68140" x1="12.4131" y1="31.8759" x2="17.4023" y2="31.8759" gradientUnits="userSpaceOnUse">
<stop offset="0.003" stop-color="#939393"/>
<stop offset="0.1044" stop-color="#A3A3A3"/>
<stop offset="0.3756" stop-color="#CBCBCB"/>
<stop offset="0.6245" stop-color="#E7E7E7"/>
<stop offset="0.8407" stop-color="#F8F8F8"/>
<stop offset="1" stop-color="white"/>
</linearGradient>
<linearGradient id="paint10_linear_2585_68140" x1="26.6759" y1="30.9418" x2="25.8369" y2="31.3345" gradientUnits="userSpaceOnUse">
<stop stop-color="#606060"/>
<stop offset="1" stop-color="#E6E7E8"/>
</linearGradient>
<radialGradient id="paint11_radial_2585_68140" cx="0" cy="0" r="1" gradientUnits="userSpaceOnUse" gradientTransform="translate(51.3729 42.1778) rotate(180) scale(30.3151 1.66504)">
<stop/>
<stop offset="1" stop-color="#414042" stop-opacity="0"/>
</radialGradient>
<linearGradient id="paint12_linear_2585_68140" x1="42.0328" y1="20.5861" x2="52.6187" y2="31.2885" gradientUnits="userSpaceOnUse">
<stop stop-color="#F0F1F1"/>
<stop offset="1" stop-color="#E5E6E7"/>
</linearGradient>
<linearGradient id="paint13_linear_2585_68140" x1="32.7823" y1="32.0538" x2="32.7823" y2="42.8133" gradientUnits="userSpaceOnUse">
<stop stop-color="#414042"/>
<stop offset="1"/>
</linearGradient>
<linearGradient id="paint14_linear_2585_68140" x1="42.06" y1="17.6592" x2="42.1164" y2="38.7411" gradientUnits="userSpaceOnUse">
<stop stop-color="#E7E8E9"/>
<stop offset="0.5074" stop-color="white"/>
<stop offset="0.5327" stop-color="#F5F5F5"/>
<stop offset="0.6118" stop-color="#DBDCDD"/>
<stop offset="0.6937" stop-color="#C9CACC"/>
<stop offset="0.7795" stop-color="#BEC0C2"/>
<stop offset="0.8755" stop-color="#BBBDBF"/>
<stop offset="1" stop-color="#818181"/>
</linearGradient>
<linearGradient id="paint15_linear_2585_68140" x1="58.4054" y1="27.1958" x2="58.6934" y2="38.5048" gradientUnits="userSpaceOnUse">
<stop stop-color="#E5E6E7"/>
<stop offset="0.297" stop-color="#A7A6A9"/>
<stop offset="0.7588" stop-color="#BBBDBF"/>
<stop offset="0.9982" stop-color="#818181"/>
</linearGradient>
<linearGradient id="paint16_linear_2585_68140" x1="38.8801" y1="14.1453" x2="53.7266" y2="29.5711" gradientUnits="userSpaceOnUse">
<stop offset="0.1404" stop-color="#414042"/>
<stop offset="0.3375" stop-color="#6D6E71"/>
<stop offset="1"/>
</linearGradient>
<linearGradient id="paint17_linear_2585_68140" x1="46.1597" y1="12.0002" x2="46.1597" y2="12.0002" gradientUnits="userSpaceOnUse">
<stop stop-color="#414042"/>
<stop offset="1"/>
</linearGradient>
<linearGradient id="paint18_linear_2585_68140" x1="45.4171" y1="33.4689" x2="47.0187" y2="39.5767" gradientUnits="userSpaceOnUse">
<stop stop-color="#606060"/>
<stop offset="1" stop-color="#E5E6E7"/>
</linearGradient>
<linearGradient id="paint19_linear_2585_68140" x1="45.7871" y1="34.8785" x2="46.7263" y2="38.4599" gradientUnits="userSpaceOnUse">
<stop stop-color="#606060"/>
<stop offset="1" stop-color="#E5E6E7"/>
</linearGradient>
<linearGradient id="paint20_linear_2585_68140" x1="60.622" y1="28.5362" x2="60.622" y2="27.5444" gradientUnits="userSpaceOnUse">
<stop stop-color="#DCDEDF"/>
<stop offset="1" stop-color="#A6A8AB"/>
</linearGradient>
<linearGradient id="paint21_linear_2585_68140" x1="60.6219" y1="26.996" x2="60.6219" y2="27.7618" gradientUnits="userSpaceOnUse">
<stop stop-color="#F0F1F1"/>
<stop offset="1" stop-color="#E5E6E7"/>
</linearGradient>
<linearGradient id="paint22_linear_2585_68140" x1="54.7703" y1="24.9737" x2="49.8724" y2="24.6572" gradientUnits="userSpaceOnUse">
<stop stop-color="#F0F1F1"/>
<stop offset="1" stop-color="#E5E6E7"/>
</linearGradient>
<linearGradient id="paint23_linear_2585_68140" x1="38.7612" y1="19.7571" x2="38.7755" y2="25.0646" gradientUnits="userSpaceOnUse">
<stop stop-color="#606060"/>
<stop offset="1" stop-color="#E5E6E7"/>
</linearGradient>
<linearGradient id="paint24_linear_2585_68140" x1="38.8476" y1="29.9074" x2="33.2343" y2="29.9309" gradientUnits="userSpaceOnUse">
<stop offset="0.003" stop-color="#929292"/>
<stop offset="0.1097" stop-color="#A3A3A3"/>
<stop offset="0.3793" stop-color="#CBCBCB"/>
<stop offset="0.6267" stop-color="#E7E7E7"/>
<stop offset="0.8416" stop-color="#F8F8F8"/>
<stop offset="1" stop-color="white"/>
</linearGradient>
<linearGradient id="paint25_linear_2585_68140" x1="28.017" y1="48.4938" x2="28.017" y2="42.2753" gradientUnits="userSpaceOnUse">
<stop stop-color="#606060"/>
<stop offset="1" stop-color="#E5E6E7"/>
</linearGradient>
<clipPath id="clip0_2585_68140">
<rect width="56" height="56" fill="white" transform="matrix(-1 0 0 1 60 4)"/>
</clipPath>
</defs>
</svg>
