<svg width="64" height="64" viewBox="0 0 64 64" fill="none" xmlns="http://www.w3.org/2000/svg">
<g clip-path="url(#clip0_2585_68093)">
<path d="M59.1327 45.8721C59.1327 46.815 44.9261 47.5792 27.4014 47.5792C9.87669 47.5792 1.33252 46.815 1.33252 45.8721C1.33252 44.9293 9.87669 44.165 27.4014 44.165C44.9261 44.165 59.1327 44.9293 59.1327 45.8721Z" fill="url(#paint0_radial_2585_68093)"/>
<path d="M56.4537 39.4801L56.105 37.321L56.8844 35.8193L56.9938 34.4505L56.1854 32.9292C55.8665 32.6057 55.4576 32.2377 55.0042 32.0411C51.3344 30.4495 46.2873 29.5117 46.2873 29.5117C43.1427 26.5678 40.0068 23.6427 37.6076 22.2986C35.5328 20.9582 33.3771 20.982 31.2055 20.982H13.2027C11.236 20.982 9.40572 21.9872 8.35066 23.647L5.0586 28.1774C4.56944 28.7559 4.06689 29.9734 4.06689 31.8881V38.2354C4.06689 39.9923 5.01661 41.612 6.54985 42.47H53.6596L55.9361 41.3698L56.4537 39.4801Z" fill="url(#paint1_linear_2585_68093)"/>
<path d="M54.6728 40.8461C54.6728 43.7725 52.8293 46.1448 50.5552 46.1448H47.7725V35.5474H50.5552C52.8293 35.5474 54.6728 37.9197 54.6728 40.8461Z" fill="black"/>
<path d="M47.7738 46.1447C50.0479 46.1447 51.8914 43.7724 51.8914 40.846C51.8914 37.9197 50.0479 35.5474 47.7738 35.5474C45.4997 35.5474 43.6562 37.9197 43.6562 40.846C43.6562 43.7724 45.4997 46.1447 47.7738 46.1447Z" fill="url(#paint2_linear_2585_68093)"/>
<path d="M42.0522 40.8461C42.0522 43.7725 40.2087 46.1448 37.9346 46.1448H35.1519V35.5474H37.9346C40.2087 35.5474 42.0522 37.9197 42.0522 40.8461Z" fill="black"/>
<path d="M17.3691 40.8461C17.3691 43.7725 15.5256 46.1448 13.2515 46.1448H10.4688V35.5474H13.2515C15.5256 35.5474 17.3691 37.9197 17.3691 40.8461Z" fill="black"/>
<path d="M56.105 37.321L56.8854 35.8182C56.9358 35.1854 56.9773 34.6645 56.9936 34.4504L56.1853 32.9291C55.7354 32.4569 55.1889 32.0983 54.4494 31.8155C50.6461 30.3612 46.2872 29.5116 46.2872 29.5116C43.1738 26.5885 40.074 23.6986 37.5764 22.2726C35.0478 20.7712 32.7035 20.9818 30.5318 20.9818H21.0176C22.3178 20.9818 24.3921 21.4193 25.3334 22.0943L31.2053 29.5115C31.2053 29.5115 38.2316 31.2106 42.0153 33.5353C42.7089 33.9615 43.0035 34.4555 43.0299 35.2309L42.5806 41.0917C42.5806 41.0917 42.6325 42.4699 41.07 42.4699H53.6595L55.936 41.3697L56.4536 39.4801L56.105 37.321Z" fill="url(#paint3_linear_2585_68093)"/>
<path d="M37.4753 22.2328C40.1416 23.5462 46.2872 29.5114 46.2872 29.5114H8.43049C7.53249 29.5114 6.97432 28.5356 7.42964 27.7616L9.62923 24.0222C10.3318 22.8277 11.6142 22.0942 13 22.0942H36.5383C36.8441 22.0942 37.2009 22.0977 37.4753 22.2328Z" fill="black"/>
<path d="M4.06689 31.8882H29.4351C29.4351 31.8882 36.7132 31.9584 41.6615 33.3909C42.4765 33.6269 43.03 34.3827 43.03 35.2312L42.5592 41.3258C42.4996 41.9741 41.9558 42.4701 41.3048 42.4701H6.54985C5.01661 41.6122 4.06689 39.9925 4.06689 38.2355V31.8882Z" fill="url(#paint4_linear_2585_68093)"/>
<path d="M32.6439 29.5119H46.2863C46.2863 29.5119 40.3772 23.6613 37.5207 22.2407C37.2469 22.1045 36.8273 22.0947 36.5214 22.0947H25.3325C28.0218 23.4721 30.5309 26.5202 32.6439 29.5119Z" fill="url(#paint5_linear_2585_68093)"/>
<path d="M10.4681 46.1447C12.7422 46.1447 14.5857 43.7724 14.5857 40.846C14.5857 37.9197 12.7422 35.5474 10.4681 35.5474C8.19408 35.5474 6.35059 37.9197 6.35059 40.846C6.35059 43.7724 8.19408 46.1447 10.4681 46.1447Z" fill="url(#paint6_linear_2585_68093)"/>
<path d="M10.3246 44.165C11.6343 44.165 12.696 42.6792 12.696 40.8464C12.696 39.0136 11.6343 37.5278 10.3246 37.5278C9.01486 37.5278 7.95312 39.0136 7.95312 40.8464C7.95312 42.6792 9.01486 44.165 10.3246 44.165Z" fill="url(#paint7_linear_2585_68093)"/>
<path d="M10.3236 42.792C11.0915 42.792 11.7141 41.9209 11.7141 40.8462C11.7141 39.7716 11.0915 38.9004 10.3236 38.9004C9.55564 38.9004 8.93311 39.7716 8.93311 40.8462C8.93311 41.9209 9.55564 42.792 10.3236 42.792Z" fill="url(#paint8_linear_2585_68093)"/>
<path d="M35.1508 46.1447C37.4248 46.1447 39.2683 43.7724 39.2683 40.846C39.2683 37.9197 37.4248 35.5474 35.1508 35.5474C32.8767 35.5474 31.0332 37.9197 31.0332 40.846C31.0332 43.7724 32.8767 46.1447 35.1508 46.1447Z" fill="url(#paint9_linear_2585_68093)"/>
<path d="M35.0052 44.165C36.315 44.165 37.3767 42.6792 37.3767 40.8464C37.3767 39.0136 36.315 37.5278 35.0052 37.5278C33.6955 37.5278 32.6338 39.0136 32.6338 40.8464C32.6338 42.6792 33.6955 44.165 35.0052 44.165Z" fill="url(#paint10_linear_2585_68093)"/>
<path d="M35.0067 42.792C35.7746 42.792 36.3972 41.9209 36.3972 40.8462C36.3972 39.7716 35.7746 38.9004 35.0067 38.9004C34.2388 38.9004 33.6162 39.7716 33.6162 40.8462C33.6162 41.9209 34.2388 42.792 35.0067 42.792Z" fill="url(#paint11_linear_2585_68093)"/>
<path d="M40.8613 33.176C40.8613 33.176 47.581 33.4915 51.5349 33.4466C55.4888 33.4017 56.1843 32.9292 56.1843 32.9292L56.9926 34.4506L56.9379 35.0687L55.2277 34.269L53.8483 35.0002L53.1471 34.0806C53.1471 34.0806 51.2785 34.1684 48.7432 34.051C48.7432 34.051 47.9882 35.2158 47.3483 35.5158C46.9689 35.6936 44.2359 35.5961 42.9642 35.3928C41.3125 35.1287 40.8613 33.176 40.8613 33.176Z" fill="#929292"/>
<path d="M20.54 31.8882H22.4689V32.4456C22.4689 32.7113 22.2531 32.9271 21.9874 32.9271H21.0215C20.7558 32.9271 20.54 32.7113 20.54 32.4456V31.8882Z" fill="url(#paint12_linear_2585_68093)"/>
<path d="M20.6582 31.8882H22.3503V32.1438C22.3503 32.2557 22.2595 32.3465 22.1476 32.3465H20.8609C20.749 32.3465 20.6582 32.2557 20.6582 32.1438V31.8882Z" fill="url(#paint13_linear_2585_68093)"/>
<path d="M10.895 31.8882H12.8239V32.4456C12.8239 32.7113 12.6081 32.9271 12.3424 32.9271H11.3765C11.1108 32.9271 10.895 32.7113 10.895 32.4456V31.8882Z" fill="url(#paint14_linear_2585_68093)"/>
<path d="M11.0156 31.8882H12.7078V32.1438C12.7078 32.2557 12.617 32.3465 12.505 32.3465H11.2183C11.1064 32.3465 11.0156 32.2557 11.0156 32.1438V31.8882Z" fill="url(#paint15_linear_2585_68093)"/>
<path d="M31.2033 30.3432H28.4929C27.9801 30.3432 27.5645 29.9275 27.5645 29.4148C27.5645 28.902 27.9801 28.4863 28.4929 28.4863H29.3668C29.8239 28.4863 30.2645 28.6569 30.6024 28.9647L31.2033 29.512V30.3432Z" fill="url(#paint16_linear_2585_68093)"/>
<path d="M31.6182 29.6169L45.9785 29.6529L48.8731 27.9989L53.0383 26.8644L42.4518 24.606L38.594 28.0848L31.6182 29.6169Z" fill="black"/>
<path d="M31.6198 29.6168L38.1016 28.4035C38.5458 28.3203 38.9544 28.1049 39.274 27.7854L42.1621 24.8972C42.3399 24.7195 42.6045 24.6605 42.8409 24.7462L49.37 27.1113L53.0401 26.8643L50.3835 25.536C50.0861 25.3873 49.7673 25.286 49.4386 25.236L42.9786 24.2516C42.6914 24.2079 42.4 24.2974 42.187 24.4949L38.9577 27.4882C38.7252 27.7036 38.4403 27.8543 38.1314 27.9251L31.2051 29.5114L31.6198 29.6168Z" fill="url(#paint17_linear_2585_68093)"/>
<path d="M42.1871 24.4946L31.2051 29.5113L38.2503 27.8976C38.4813 27.8447 38.6944 27.7321 38.8682 27.5709L42.1871 24.4946Z" fill="white"/>
<path d="M32.2832 29.6167C32.2832 29.6167 37.5986 30.8097 40.2232 32.108C42.8479 33.4062 50.7219 33.265 50.7219 33.265C50.7219 33.265 54.3428 33.3603 54.6734 32.7006C55.0041 32.0409 47.674 29.8784 45.9806 29.6526C44.2872 29.4268 32.2832 29.6167 32.2832 29.6167Z" fill="#403F41"/>
<path d="M56.4529 39.4799L52.6043 38.3876L48.5938 39.4799L52.2033 37.3946L56.1041 37.3208L56.4529 39.4799Z" fill="#403F41"/>
<path d="M55.936 41.3697L54.1446 40.4736L52.4585 41.4945L48.9287 42.4699H53.6595L55.936 41.3697Z" fill="#929292"/>
<path d="M46.7034 34.7005C44.742 34.6938 42.4336 34.507 42.3303 34.4937C42.1468 34.4637 42.0234 34.2935 42.0567 34.1134C42.0867 33.9333 42.2535 33.8065 42.437 33.8398C42.4637 33.8431 45.0556 34.0733 47.0103 34.0399C47.1871 34.0399 47.3472 34.1834 47.3472 34.3669C47.3472 34.5504 47.2038 34.7038 47.0203 34.7038H46.7034V34.7005Z" fill="url(#paint18_linear_2585_68093)"/>
<path opacity="0.5" d="M54.6208 46.4883C55.9561 46.4883 57.0385 46.3854 57.0385 46.2585C57.0385 46.1317 55.9561 46.0288 54.6208 46.0288C53.2856 46.0288 52.2031 46.1317 52.2031 46.2585C52.2031 46.3854 53.2856 46.4883 54.6208 46.4883Z" fill="black"/>
<path d="M51.7627 45.1559C51.6715 45.4802 53.1958 46.1795 53.1958 46.1795C53.2699 46.2324 53.3586 46.2609 53.4496 46.2609H56.6603C56.7787 46.2609 56.892 46.2128 56.9743 46.1277L57.4589 45.6263C57.6754 45.4024 57.5946 45.0304 57.3048 44.9164L55.8681 44.3511C55.7413 44.3012 55.5985 44.3134 55.4819 44.3841L53.9909 45.2874C53.9102 45.3363 53.8158 45.3578 53.7218 45.3486C53.7218 45.3486 51.8539 44.8317 51.7627 45.1559Z" fill="url(#paint19_linear_2585_68093)"/>
<path opacity="0.1" d="M52.2033 37.3948L48.5938 36.5776V39.4802L52.2033 37.3948Z" fill="black"/>
<path opacity="0.1" d="M52.6034 38.3877L52.5225 39.6483L54.143 40.4735L56.452 39.48L52.6034 38.3877Z" fill="black"/>
<path opacity="0.4" d="M56.8837 35.8187L55.4619 35.1719L56.1033 37.3214L56.8837 35.8187Z" fill="white"/>
<path opacity="0.1" d="M53.8477 35.0001L51.0269 34.1109L53.1465 34.0806L53.8477 35.0001Z" fill="black"/>
<path d="M53.1475 34.0806L56.2475 33.27L56.8847 34.4423L56.8222 35.0002L55.2281 34.269L53.8486 35.0002L53.1475 34.0806Z" fill="#CFD0D2"/>
<path opacity="0.3" d="M57.2031 19.4161C54.9484 19.4161 53.0135 20.7825 52.1791 22.732C51.712 22.3398 51.1177 22.0943 50.46 22.0943C48.9756 22.0943 47.7725 23.2975 47.7725 24.7818C47.7725 25.7936 48.3382 26.6642 49.1644 27.1226C48.8052 27.7286 48.5938 28.4322 48.5938 29.1885C48.5938 31.4426 50.4212 33.2699 52.6752 33.2699C54.5394 33.2699 56.0941 32.0125 56.5824 30.305C56.7864 30.3281 56.9929 30.3428 57.2031 30.3428C60.2204 30.3428 62.6664 27.8967 62.6664 24.8794C62.6664 21.8621 60.2203 19.4161 57.2031 19.4161Z" fill="black"/>
<path opacity="0.2" d="M49.9209 21.0646C50.951 21.0646 51.7862 20.2295 51.7862 19.1993C51.7862 18.1691 50.951 17.334 49.9209 17.334C48.8908 17.334 48.0557 18.1691 48.0557 19.1993C48.0557 20.2295 48.8908 21.0646 49.9209 21.0646Z" fill="black"/>
<path opacity="0.1" d="M50.3589 20.4138C49.3287 20.4138 48.4936 19.5787 48.4936 18.5485C48.4936 18.3038 48.5437 18.0716 48.6293 17.8574C48.2769 18.1968 48.0557 18.6713 48.0557 19.199C48.0557 20.2292 48.8908 21.0643 49.9209 21.0643C50.7064 21.0643 51.3757 20.5773 51.6505 19.8899C51.3152 20.2127 50.8612 20.4138 50.3589 20.4138Z" fill="black"/>
<path opacity="0.1" d="M61.8304 22.21C62.0742 22.8207 62.2121 23.4853 62.2121 24.183C62.2121 27.1261 59.8262 29.5118 56.8832 29.5118C54.8775 29.5118 53.1324 28.4025 52.2231 26.765C53.0078 28.7301 54.9249 30.1204 57.1701 30.1204C60.1132 30.1204 62.4989 27.7345 62.4989 24.7916C62.4989 23.8545 62.2552 22.9752 61.8304 22.21Z" fill="black"/>
<path opacity="0.1" d="M49.503 29.2426C49.503 27.4786 50.8376 26.0421 52.5493 25.8468C52.4201 25.832 52.2937 25.8076 52.1606 25.8076C50.2635 25.8076 48.7256 27.3455 48.7256 29.2426C48.7256 31.1397 50.2635 32.6776 52.1606 32.6776C52.2938 32.6776 52.4201 32.6532 52.5493 32.6384C50.8376 32.4431 49.503 31.0066 49.503 29.2426Z" fill="black"/>
</g>
<defs>
<radialGradient id="paint0_radial_2585_68093" cx="0" cy="0" r="1" gradientUnits="userSpaceOnUse" gradientTransform="translate(30.232 45.857) scale(28.605 1.57377)">
<stop/>
<stop offset="1" stop-color="#414042" stop-opacity="0"/>
</radialGradient>
<linearGradient id="paint1_linear_2585_68093" x1="39.0451" y1="25.4487" x2="29.0393" y2="35.5475" gradientUnits="userSpaceOnUse">
<stop stop-color="#F0F1F1"/>
<stop offset="1" stop-color="#E5E6E7"/>
</linearGradient>
<linearGradient id="paint2_linear_2585_68093" x1="47.7738" y1="36.2872" x2="47.7738" y2="46.457" gradientUnits="userSpaceOnUse">
<stop stop-color="#414042"/>
<stop offset="1"/>
</linearGradient>
<linearGradient id="paint3_linear_2585_68093" x1="39.0191" y1="22.6821" x2="38.9657" y2="42.6083" gradientUnits="userSpaceOnUse">
<stop stop-color="#E7E8E9"/>
<stop offset="0.5074" stop-color="white"/>
<stop offset="0.5327" stop-color="#F5F5F5"/>
<stop offset="0.6118" stop-color="#DBDCDD"/>
<stop offset="0.6937" stop-color="#C9CACC"/>
<stop offset="0.7795" stop-color="#BEC0C2"/>
<stop offset="0.8755" stop-color="#BBBDBF"/>
<stop offset="1" stop-color="#818181"/>
</linearGradient>
<linearGradient id="paint4_linear_2585_68093" x1="23.596" y1="31.6957" x2="23.3234" y2="42.3848" gradientUnits="userSpaceOnUse">
<stop stop-color="#E5E6E7"/>
<stop offset="0.297" stop-color="#A7A6A9"/>
<stop offset="0.7588" stop-color="#BBBDBF"/>
<stop offset="0.9982" stop-color="#818181"/>
</linearGradient>
<linearGradient id="paint5_linear_2585_68093" x1="42.0202" y1="19.361" x2="27.9867" y2="33.9175" gradientUnits="userSpaceOnUse">
<stop offset="0.1404" stop-color="#414042"/>
<stop offset="0.3375" stop-color="#6D6E71"/>
<stop offset="1"/>
</linearGradient>
<linearGradient id="paint6_linear_2585_68093" x1="10.4681" y1="17.333" x2="10.4681" y2="17.333" gradientUnits="userSpaceOnUse">
<stop stop-color="#414042"/>
<stop offset="1"/>
</linearGradient>
<linearGradient id="paint7_linear_2585_68093" x1="11.1708" y1="37.6249" x2="9.65466" y2="43.3966" gradientUnits="userSpaceOnUse">
<stop stop-color="#606060"/>
<stop offset="1" stop-color="#E5E6E7"/>
</linearGradient>
<linearGradient id="paint8_linear_2585_68093" x1="10.8197" y1="38.9573" x2="9.93079" y2="42.3415" gradientUnits="userSpaceOnUse">
<stop stop-color="#606060"/>
<stop offset="1" stop-color="#E5E6E7"/>
</linearGradient>
<linearGradient id="paint9_linear_2585_68093" x1="35.1508" y1="17.333" x2="35.1508" y2="17.333" gradientUnits="userSpaceOnUse">
<stop stop-color="#414042"/>
<stop offset="1"/>
</linearGradient>
<linearGradient id="paint10_linear_2585_68093" x1="35.8514" y1="37.6249" x2="34.3354" y2="43.3966" gradientUnits="userSpaceOnUse">
<stop stop-color="#606060"/>
<stop offset="1" stop-color="#E5E6E7"/>
</linearGradient>
<linearGradient id="paint11_linear_2585_68093" x1="35.5029" y1="38.9573" x2="34.6139" y2="42.3415" gradientUnits="userSpaceOnUse">
<stop stop-color="#606060"/>
<stop offset="1" stop-color="#E5E6E7"/>
</linearGradient>
<linearGradient id="paint12_linear_2585_68093" x1="21.5045" y1="32.9627" x2="21.5045" y2="32.0252" gradientUnits="userSpaceOnUse">
<stop stop-color="#DCDEDF"/>
<stop offset="1" stop-color="#A6A8AB"/>
</linearGradient>
<linearGradient id="paint13_linear_2585_68093" x1="21.5043" y1="31.5069" x2="21.5043" y2="32.2307" gradientUnits="userSpaceOnUse">
<stop stop-color="#F0F1F1"/>
<stop offset="1" stop-color="#E5E6E7"/>
</linearGradient>
<linearGradient id="paint14_linear_2585_68093" x1="11.8594" y1="17.3334" x2="11.8594" y2="17.3334" gradientUnits="userSpaceOnUse">
<stop stop-color="#DCDEDF"/>
<stop offset="1" stop-color="#A6A8AB"/>
</linearGradient>
<linearGradient id="paint15_linear_2585_68093" x1="11.8617" y1="31.5069" x2="11.8617" y2="32.2307" gradientUnits="userSpaceOnUse">
<stop stop-color="#F0F1F1"/>
<stop offset="1" stop-color="#E5E6E7"/>
</linearGradient>
<linearGradient id="paint16_linear_2585_68093" x1="27.0261" y1="29.5958" x2="31.6478" y2="29.2977" gradientUnits="userSpaceOnUse">
<stop stop-color="#F0F1F1"/>
<stop offset="1" stop-color="#E5E6E7"/>
</linearGradient>
<linearGradient id="paint17_linear_2585_68093" x1="42.1319" y1="24.6647" x2="42.1185" y2="29.6812" gradientUnits="userSpaceOnUse">
<stop stop-color="#606060"/>
<stop offset="1" stop-color="#E5E6E7"/>
</linearGradient>
<linearGradient id="paint18_linear_2585_68093" x1="42.0509" y1="34.2588" x2="47.3476" y2="34.2809" gradientUnits="userSpaceOnUse">
<stop offset="0.003" stop-color="#929292"/>
<stop offset="0.1097" stop-color="#A3A3A3"/>
<stop offset="0.3793" stop-color="#CBCBCB"/>
<stop offset="0.6267" stop-color="#E7E7E7"/>
<stop offset="0.8416" stop-color="#F8F8F8"/>
<stop offset="1" stop-color="white"/>
</linearGradient>
<linearGradient id="paint19_linear_2585_68093" x1="54.6703" y1="49.4267" x2="54.6703" y2="43.5491" gradientUnits="userSpaceOnUse">
<stop stop-color="#606060"/>
<stop offset="1" stop-color="#E5E6E7"/>
</linearGradient>
<clipPath id="clip0_2585_68093">
<rect width="61.3333" height="30.2459" fill="white" transform="translate(1.33252 17.333)"/>
</clipPath>
</defs>
</svg>
